{
.appVersion = "1342";
customParameters = (
{
name = panose;
value = (
3,
8,
9,
2,
4,
3,
2,
2,
2,
0
);
},
{
name = unicodeRanges;
value = (
0,
1,
2,
3,
4,
5,
6,
16,
29,
31,
32,
33,
35,
36,
37,
38,
45,
62
);
},
{
name = fsType;
value = (
);
},
{
name = blueScale;
value = 0.03333;
},
{
name = blueShift;
value = 15;
},
{
name = licenseURL;
value = "http://scripts.sil.org/OFL";
},
{
name = license;
value = "This Font Software is licensed under the SIL Open Font License, Version 1.1. This license is available with a FAQ at: http://scripts.sil.org/OFL";
},
{
name = vendorID;
value = SUBY;
},
{
name = Axes;
value = (
{
Name = Weight;
Tag = wght;
}
);
}
);
date = "2022-01-18 17:16:13 +0000";
designer = "Suman Bhandary";
designerURL = "http://reg-it-bold.com/";
disablesNiceNames = 1;
familyName = Alkatra;
featurePrefixes = (
{
automatic = 1;
code = "languagesystem DFLT dflt;\012\012languagesystem ory2 dflt;\012";
name = Languagesystems;
}
);
features = (
{
automatic = 1;
code = "feature rphf;\012feature blwf;\012feature pstf;\012feature cjct;\012";
name = aalt;
},
{
automatic = 1;
code = "script ory2;\012sub ra-oriya halant-oriya by reph-oriya;\012";
name = rphf;
},
{
automatic = 1;

glyphs = (
{
glyphname = "a-oriya";
lastChange = "2022-01-22 11:08:35 +0000";
layers = (
{
background = {
paths = (
{
closed = 1;
nodes = (
"411 519 OFFCURVE",
"426 491 OFFCURVE",
"426 466 CURVE SMOOTH",
"426 380 OFFCURVE",
"50 330 OFFCURVE",
"50 166 CURVE SMOOTH",
"50 79 OFFCURVE",
"125 10 OFFCURVE",
"261 10 CURVE SMOOTH",
"411 10 OFFCURVE",
"531 96 OFFCURVE",
"564 126 CURVE",
"575 284 LINE",
"520 216 OFFCURVE",
"369 114 OFFCURVE",
"258 114 CURVE SMOOTH",
"212 114 OFFCURVE",
"173 138 OFFCURVE",
"173 171 CURVE SMOOTH",
"173 266 OFFCURVE",
"530 288 OFFCURVE",
"530 478 CURVE SMOOTH",
"530 570 OFFCURVE",
"462 613 OFFCURVE",
"403 613 CURVE SMOOTH",
"365 613 OFFCURVE",
"329 594 OFFCURVE",
"307 565 CURVE",
"287 592 OFFCURVE",
"257 613 OFFCURVE",
"207 613 CURVE SMOOTH",
"139 613 OFFCURVE",
"68 554 OFFCURVE",
"68 475 CURVE SMOOTH",
"68 405 OFFCURVE",
"127 343 OFFCURVE",
"165 343 CURVE SMOOTH",
"203 343 OFFCURVE",
"249 396 OFFCURVE",
"249 435 CURVE SMOOTH",
"249 441 OFFCURVE",
"247 443 OFFCURVE",
"244 443 CURVE SMOOTH",
"237 443 OFFCURVE",
"226 428 OFFCURVE",
"216 428 CURVE SMOOTH",
"200 428 OFFCURVE",
"163 453 OFFCURVE",
"163 478 CURVE SMOOTH",
"163 508 OFFCURVE",
"191 524 OFFCURVE",
"215 524 CURVE SMOOTH",
"248 524 OFFCURVE",
"264 506 OFFCURVE",
"264 477 CURVE SMOOTH",
"264 463 OFFCURVE",
"267 458 OFFCURVE",
"276 458 CURVE SMOOTH",
"290 458 OFFCURVE",
"317 458 OFFCURVE",
"327 458 CURVE SMOOTH",
"336 458 OFFCURVE",
"341 461 OFFCURVE",
"341 476 CURVE SMOOTH",
"341 506 OFFCURVE",
"352 519 OFFCURVE",
"380 519 CURVE SMOOTH"
);
},
{
closed = 1;
nodes = (
"704 595 OFFCURVE",
"704 606 OFFCURVE",
"691 606 CURVE SMOOTH",
"677 606 OFFCURVE",
"662 606 OFFCURVE",
"613 606 CURVE SMOOTH",
"600 606 OFFCURVE",
"596 600 OFFCURVE",
"595 589 CURVE SMOOTH",
"578 402 OFFCURVE",
"556 171 OFFCURVE",
"543 77 CURVE SMOOTH",
"538 40 OFFCURVE",
"530 -3 OFFCURVE",
"557 -3 CURVE SMOOTH",
"601 -3 OFFCURVE",
"660 109 OFFCURVE",
"668 188 CURVE SMOOTH",
"683 339 OFFCURVE",
"697 542 OFFCURVE",
"703 587 CURVE SMOOTH"
);
}
);
};
layerId = "555B79C6-6D98-46E7-9307-77C37975E414";
paths = (
{
closed = 1;
nodes = (
"409 0 OFFCURVE",
"532 87 OFFCURVE",
"565 117 CURVE",
"576 304 LINE",
"521 236 OFFCURVE",
"370 132 OFFCURVE",
"259 132 CURVE SMOOTH",
"215 132 OFFCURVE",
"196 151 OFFCURVE",
"196 170 CURVE SMOOTH",
"196 240 OFFCURVE",
"551 292 OFFCURVE",
"551 473 CURVE SMOOTH",
"551 577 OFFCURVE",
"476 613 OFFCURVE",
"415 613 CURVE SMOOTH",
"370 613 OFFCURVE",
"330 594 OFFCURVE",
"308 565 CURVE",
"288 592 OFFCURVE",
"258 613 OFFCURVE",
"208 613 CURVE SMOOTH",
"140 613 OFFCURVE",
"59 554 OFFCURVE",
"59 475 CURVE SMOOTH",
"59 392 OFFCURVE",
"125 336 OFFCURVE",
"163 336 CURVE SMOOTH",
"211 336 OFFCURVE",
"255 396 OFFCURVE",
"255 435 CURVE SMOOTH",
"255 441 OFFCURVE",
"253 447 OFFCURVE",
"247 447 CURVE SMOOTH",
"240 447 OFFCURVE",
"231 435 OFFCURVE",
"223 435 CURVE SMOOTH",
"207 435 OFFCURVE",
"177 455 OFFCURVE",
"177 478 CURVE SMOOTH",
"177 497 OFFCURVE",
"195 509 OFFCURVE",
"216 509 CURVE SMOOTH",
"249 509 OFFCURVE",
"255 490 OFFCURVE",
"255 477 CURVE SMOOTH",
"255 463 OFFCURVE",
"258 458 OFFCURVE",
"267 458 CURVE SMOOTH",
"281 458 OFFCURVE",
"328 458 OFFCURVE",
"338 458 CURVE SMOOTH",
"347 458 OFFCURVE",
"352 461 OFFCURVE",
"352 476 CURVE SMOOTH",
"352 501 OFFCURVE",
"365 506 OFFCURVE",
"380 506 CURVE SMOOTH",
"400 506 OFFCURVE",
"415 490 OFFCURVE",
"415 468 CURVE SMOOTH",
"415 383 OFFCURVE",
"40 319 OFFCURVE",
"40 155 CURVE SMOOTH",
"40 64 OFFCURVE",
"127 0 OFFCURVE",
"259 0 CURVE SMOOTH"
);
},
{
closed = 1;
nodes = (
"606 -2 OFFCURVE",
"686 73 OFFCURVE",
"696 189 CURVE SMOOTH",
"709 340 OFFCURVE",
"725 543 OFFCURVE",
"731 588 CURVE SMOOTH",
"732 596 OFFCURVE",
"732 607 OFFCURVE",
"719 607 CURVE SMOOTH",
"705 607 OFFCURVE",
"690 607 OFFCURVE",
"614 607 CURVE SMOOTH",
"601 607 OFFCURVE",
"597 601 OFFCURVE",
"596 590 CURVE SMOOTH",
"579 403 OFFCURVE",
"557 172 OFFCURVE",
"544 78 CURVE SMOOTH",
"539 41 OFFCURVE",
"535 -2 OFFCURVE",
"562 -2 CURVE SMOOTH"
);
}
);
width = 751;
},
{
layerId = "08AC27E4-54F0-4C9D-B904-08FC42541096";
paths = (
{
closed = 1;
nodes = (
"411 10 OFFCURVE",
"531 96 OFFCURVE",
"564 126 CURVE",
"575 284 LINE",
"520 216 OFFCURVE",
"369 114 OFFCURVE",
"258 114 CURVE SMOOTH",
"212 114 OFFCURVE",
"173 138 OFFCURVE",
"173 171 CURVE SMOOTH",
"173 266 OFFCURVE",
"530 288 OFFCURVE",
"530 478 CURVE SMOOTH",
"530 570 OFFCURVE",
"462 613 OFFCURVE",
"403 613 CURVE SMOOTH",
"365 613 OFFCURVE",
"329 594 OFFCURVE",
"307 565 CURVE",
"287 592 OFFCURVE",
"257 613 OFFCURVE",
"207 613 CURVE SMOOTH",
"139 613 OFFCURVE",
"68 554 OFFCURVE",
"68 475 CURVE SMOOTH",
"68 405 OFFCURVE",
"127 343 OFFCURVE",
"165 343 CURVE SMOOTH",
"203 343 OFFCURVE",
"249 396 OFFCURVE",
"249 435 CURVE SMOOTH",
"249 441 OFFCURVE",
"247 443 OFFCURVE",
"244 443 CURVE SMOOTH",
"237 443 OFFCURVE",
"226 428 OFFCURVE",
"216 428 CURVE SMOOTH",
"200 428 OFFCURVE",
"163 453 OFFCURVE",
"163 478 CURVE SMOOTH",
"163 508 OFFCURVE",
"191 524 OFFCURVE",
"215 524 CURVE SMOOTH",
"248 524 OFFCURVE",
"264 506 OFFCURVE",
"264 477 CURVE SMOOTH",
"264 463 OFFCURVE",
"267 458 OFFCURVE",
"276 458 CURVE SMOOTH",
"290 458 OFFCURVE",
"317 458 OFFCURVE",
"327 458 CURVE SMOOTH",
"336 458 OFFCURVE",
"341 461 OFFCURVE",
"341 476 CURVE SMOOTH",
"341 506 OFFCURVE",
"352 519 OFFCURVE",
"380 519 CURVE SMOOTH",
"411 519 OFFCURVE",
"426 491 OFFCURVE",
"426 466 CURVE SMOOTH",
"426 380 OFFCURVE",
"50 330 OFFCURVE",
"50 166 CURVE SMOOTH",
"50 79 OFFCURVE",
"125 10 OFFCURVE",
"261 10 CURVE SMOOTH"
);
},
{
closed = 1;
nodes = (
"601 -2 OFFCURVE",
"660 109 OFFCURVE",
"668 189 CURVE SMOOTH",
"683 340 OFFCURVE",
"697 543 OFFCURVE",
"703 588 CURVE SMOOTH",
"704 596 OFFCURVE",
"704 607 OFFCURVE",
"691 607 CURVE SMOOTH",
"677 607 OFFCURVE",
"662 607 OFFCURVE",
"613 607 CURVE SMOOTH",
"600 607 OFFCURVE",
"596 601 OFFCURVE",
"595 590 CURVE SMOOTH",
"578 403 OFFCURVE",
"556 172 OFFCURVE",
"543 78 CURVE SMOOTH",
"538 41 OFFCURVE",
"530 -2 OFFCURVE",
"557 -2 CURVE SMOOTH"
);
}
);
width = 743.13115;
}
);
unicode = 0B05;
},
{
glyphname = "aa-oriya";
lastChange = "2022-01-22 11:08:42 +0000";
layers = (
{
background = {
paths = (
{
closed = 1;
nodes = (
"50 51 OFFCURVE",
"50 302 OFFCURVE",
"50 138 CURVE SMOOTH"
);
},
{
closed = 1;
nodes = (
"411 519 OFFCURVE",
"426 491 OFFCURVE",
"426 466 CURVE SMOOTH",
"426 380 OFFCURVE",
"50 330 OFFCURVE",
"50 166 CURVE SMOOTH",
"50 79 OFFCURVE",
"125 10 OFFCURVE",
"261 10 CURVE SMOOTH",
"411 10 OFFCURVE",
"528 96 OFFCURVE",
"561 126 CURVE",
"572 284 LINE",
"517 216 OFFCURVE",
"369 113 OFFCURVE",
"258 113 CURVE SMOOTH",
"212 113 OFFCURVE",
"173 138 OFFCURVE",
"173 171 CURVE SMOOTH",
"173 266 OFFCURVE",
"530 288 OFFCURVE",
"530 478 CURVE SMOOTH",
"530 570 OFFCURVE",
"462 613 OFFCURVE",
"403 613 CURVE SMOOTH",
"365 613 OFFCURVE",
"329 594 OFFCURVE",
"307 565 CURVE",
"287 592 OFFCURVE",
"257 613 OFFCURVE",
"207 613 CURVE SMOOTH",
"139 613 OFFCURVE",
"68 554 OFFCURVE",
"68 475 CURVE SMOOTH",
"68 405 OFFCURVE",
"127 343 OFFCURVE",
"165 343 CURVE SMOOTH",
"203 343 OFFCURVE",
"249 396 OFFCURVE",
"249 435 CURVE SMOOTH",
"249 441 OFFCURVE",
"247 443 OFFCURVE",
"244 443 CURVE SMOOTH",
"237 443 OFFCURVE",
"226 428 OFFCURVE",
"216 428 CURVE SMOOTH",
"200 428 OFFCURVE",
"163 453 OFFCURVE",
"163 478 CURVE SMOOTH",
"163 508 OFFCURVE",
"191 524 OFFCURVE",
"215 524 CURVE SMOOTH",
"248 524 OFFCURVE",
"264 506 OFFCURVE",
"264 477 CURVE SMOOTH",
"264 463 OFFCURVE",
"267 458 OFFCURVE",
"276 458 CURVE SMOOTH",
"290 458 OFFCURVE",
"317 458 OFFCURVE",
"327 458 CURVE SMOOTH",
"336 458 OFFCURVE",
"341 461 OFFCURVE",
"341 476 CURVE SMOOTH",
"341 506 OFFCURVE",
"352 519 OFFCURVE",
"380 519 CURVE SMOOTH"
);
},
{
closed = 1;
nodes = (
"704 595 OFFCURVE",
"704 606 OFFCURVE",
"691 606 CURVE SMOOTH",
"677 606 OFFCURVE",
"662 606 OFFCURVE",
"613 606 CURVE SMOOTH",
"600 606 OFFCURVE",
"596 600 OFFCURVE",
"595 589 CURVE SMOOTH",
"578 402 OFFCURVE",
"553 171 OFFCURVE",
"540 77 CURVE SMOOTH",
"535 40 OFFCURVE",
"527 -3 OFFCURVE",
"554 -3 CURVE SMOOTH",
"598 -3 OFFCURVE",
"657 109 OFFCURVE",
"665 188 CURVE SMOOTH",
"680 339 OFFCURVE",
"697 542 OFFCURVE",
"703 587 CURVE SMOOTH"
);
},
{
closed = 1;
nodes = (
"919 595 OFFCURVE",
"919 606 OFFCURVE",
"906 606 CURVE SMOOTH",
"892 606 OFFCURVE",
"877 606 OFFCURVE",
"828 606 CURVE SMOOTH",
"815 606 OFFCURVE",
"811 600 OFFCURVE",
"810 589 CURVE SMOOTH",
"793 402 OFFCURVE",
"768 171 OFFCURVE",
"755 77 CURVE SMOOTH",
"750 40 OFFCURVE",
"742 -3 OFFCURVE",
"769 -3 CURVE SMOOTH",
"813 -3 OFFCURVE",
"872 109 OFFCURVE",
"880 188 CURVE SMOOTH",
"895 339 OFFCURVE",
"912 542 OFFCURVE",
"918 587 CURVE SMOOTH"
);
}
);
};
layerId = "555B79C6-6D98-46E7-9307-77C37975E414";
paths = (
{
closed = 1;
nodes = (
"409 0 OFFCURVE",
"532 87 OFFCURVE",
"565 117 CURVE",
"576 304 LINE",
"521 236 OFFCURVE",
"370 132 OFFCURVE",
"259 132 CURVE SMOOTH",
"215 132 OFFCURVE",
"196 151 OFFCURVE",
"196 170 CURVE SMOOTH",
"196 240 OFFCURVE",
"551 292 OFFCURVE",
"551 473 CURVE SMOOTH",
"551 577 OFFCURVE",
"476 613 OFFCURVE",
"415 613 CURVE SMOOTH",
"370 613 OFFCURVE",
"330 594 OFFCURVE",
"308 565 CURVE",
"288 592 OFFCURVE",
"258 613 OFFCURVE",
"208 613 CURVE SMOOTH",
"140 613 OFFCURVE",
"59 554 OFFCURVE",
"59 475 CURVE SMOOTH",
"59 392 OFFCURVE",
"125 336 OFFCURVE",
"163 336 CURVE SMOOTH",
"211 336 OFFCURVE",
"255 396 OFFCURVE",
"255 435 CURVE SMOOTH",
"255 441 OFFCURVE",
"253 447 OFFCURVE",
"247 447 CURVE SMOOTH",
"240 447 OFFCURVE",
"231 435 OFFCURVE",
"223 435 CURVE SMOOTH",
"207 435 OFFCURVE",
"177 455 OFFCURVE",
"177 478 CURVE SMOOTH",
"177 497 OFFCURVE",
"195 509 OFFCURVE",
"216 509 CURVE SMOOTH",
"249 509 OFFCURVE",
"255 490 OFFCURVE",
"255 477 CURVE SMOOTH",
"255 463 OFFCURVE",
"258 458 OFFCURVE",
"267 458 CURVE SMOOTH",
"281 458 OFFCURVE",
"328 458 OFFCURVE",
"338 458 CURVE SMOOTH",
"347 458 OFFCURVE",
"352 461 OFFCURVE",
"352 476 CURVE SMOOTH",
"352 501 OFFCURVE",
"365 506 OFFCURVE",
"380 506 CURVE SMOOTH",
"400 506 OFFCURVE",
"415 490 OFFCURVE",
"415 468 CURVE SMOOTH",
"415 383 OFFCURVE",
"40 319 OFFCURVE",
"40 155 CURVE SMOOTH",
"40 64 OFFCURVE",
"127 0 OFFCURVE",
"259 0 CURVE SMOOTH"
);
},
{
closed = 1;
nodes = (
"606 -2 OFFCURVE",
"686 73 OFFCURVE",
"696 189 CURVE SMOOTH",
"709 340 OFFCURVE",
"725 543 OFFCURVE",
"731 588 CURVE SMOOTH",
"732 596 OFFCURVE",
"732 607 OFFCURVE",
"719 607 CURVE SMOOTH",
"705 607 OFFCURVE",
"690 607 OFFCURVE",
"614 607 CURVE SMOOTH",
"601 607 OFFCURVE",
"597 601 OFFCURVE",
"596 590 CURVE SMOOTH",
"579 403 OFFCURVE",
"557 172 OFFCURVE",
"544 78 CURVE SMOOTH",
"539 41 OFFCURVE",
"535 -2 OFFCURVE",
"562 -2 CURVE SMOOTH"
);
},
{
closed = 1;
nodes = (
"821 -2 OFFCURVE",
"901 73 OFFCURVE",
"911 189 CURVE SMOOTH",
"924 340 OFFCURVE",
"940 543 OFFCURVE",
"946 588 CURVE SMOOTH",
"947 596 OFFCURVE",
"947 607 OFFCURVE",
"934 607 CURVE SMOOTH",
"920 607 OFFCURVE",
"905 607 OFFCURVE",
"829 607 CURVE SMOOTH",
"816 607 OFFCURVE",
"812 601 OFFCURVE",
"811 590 CURVE SMOOTH",
"794 403 OFFCURVE",
"772 172 OFFCURVE",
"759 78 CURVE SMOOTH",
"754 41 OFFCURVE",
"750 -2 OFFCURVE",
"777 -2 CURVE SMOOTH"
);
}
);
width = 966;
},
{
layerId = "08AC27E4-54F0-4C9D-B904-08FC42541096";
paths = (
{
closed = 1;
nodes = (
"412 10 OFFCURVE",
"529 96 OFFCURVE",
"562 126 CURVE",
"573 284 LINE",
"518 216 OFFCURVE",
"370 113 OFFCURVE",
"259 113 CURVE SMOOTH",
"213 113 OFFCURVE",
"174 138 OFFCURVE",
"174 171 CURVE SMOOTH",
"174 266 OFFCURVE",
"531 288 OFFCURVE",
"531 478 CURVE SMOOTH",
"531 570 OFFCURVE",
"463 613 OFFCURVE",
"404 613 CURVE SMOOTH",
"366 613 OFFCURVE",
"330 594 OFFCURVE",
"308 565 CURVE",
"288 592 OFFCURVE",
"258 613 OFFCURVE",
"208 613 CURVE SMOOTH",
"140 613 OFFCURVE",
"69 554 OFFCURVE",
"69 475 CURVE SMOOTH",
"69 405 OFFCURVE",
"128 343 OFFCURVE",
"166 343 CURVE SMOOTH",
"204 343 OFFCURVE",
"250 396 OFFCURVE",
"250 435 CURVE SMOOTH",
"250 441 OFFCURVE",
"248 443 OFFCURVE",
"245 443 CURVE SMOOTH",
"238 443 OFFCURVE",
"227 428 OFFCURVE",
"217 428 CURVE SMOOTH",
"201 428 OFFCURVE",
"164 453 OFFCURVE",
"164 478 CURVE SMOOTH",
"164 508 OFFCURVE",
"192 524 OFFCURVE",
"216 524 CURVE SMOOTH",
"249 524 OFFCURVE",
"265 506 OFFCURVE",
"265 477 CURVE SMOOTH",
"265 463 OFFCURVE",
"268 458 OFFCURVE",
"277 458 CURVE SMOOTH",
"291 458 OFFCURVE",
"318 458 OFFCURVE",
"328 458 CURVE SMOOTH",
"337 458 OFFCURVE",
"342 461 OFFCURVE",
"342 476 CURVE SMOOTH",
"342 506 OFFCURVE",
"353 519 OFFCURVE",
"381 519 CURVE SMOOTH",
"412 519 OFFCURVE",
"427 491 OFFCURVE",
"427 466 CURVE SMOOTH",
"427 380 OFFCURVE",
"51 330 OFFCURVE",
"51 166 CURVE SMOOTH",
"51 79 OFFCURVE",
"126 10 OFFCURVE",
"262 10 CURVE SMOOTH"
);
},
{
closed = 1;
nodes = (
"602 -2 OFFCURVE",
"661 109 OFFCURVE",
"669 189 CURVE SMOOTH",
"684 340 OFFCURVE",
"698 543 OFFCURVE",
"704 588 CURVE SMOOTH",
"705 596 OFFCURVE",
"705 607 OFFCURVE",
"692 607 CURVE SMOOTH",
"678 607 OFFCURVE",
"663 607 OFFCURVE",
"614 607 CURVE SMOOTH",
"601 607 OFFCURVE",
"597 601 OFFCURVE",
"596 590 CURVE SMOOTH",
"579 403 OFFCURVE",
"557 172 OFFCURVE",
"544 78 CURVE SMOOTH",
"539 41 OFFCURVE",
"531 -2 OFFCURVE",
"558 -2 CURVE SMOOTH"
);
},
{
closed = 1;
nodes = (
"817 -2 OFFCURVE",
"876 109 OFFCURVE",
"884 189 CURVE SMOOTH",
"899 340 OFFCURVE",
"913 543 OFFCURVE",
"919 588 CURVE SMOOTH",
"920 596 OFFCURVE",
"920 607 OFFCURVE",
"907 607 CURVE SMOOTH",
"893 607 OFFCURVE",
"878 607 OFFCURVE",
"829 607 CURVE SMOOTH",
"816 607 OFFCURVE",
"812 601 OFFCURVE",
"811 590 CURVE SMOOTH",
"794 403 OFFCURVE",
"772 172 OFFCURVE",
"759 78 CURVE SMOOTH",
"754 41 OFFCURVE",
"746 -2 OFFCURVE",
"773 -2 CURVE SMOOTH"
);
}
);
width = 975.83607;
}
);
unicode = 0B06;
},
{
glyphname = "i-oriya";
lastChange = "2022-01-22 11:08:49 +0000";
layers = (
{
background = {
paths = (
{
closed = 1;
nodes = (
"180 316 OFFCURVE",
"122 205 OFFCURVE",
"122 125 CURVE SMOOTH",
"122 45 OFFCURVE",
"168 -4 OFFCURVE",
"248 -4 CURVE SMOOTH",
"342 -4 OFFCURVE",
"434 76 OFFCURVE",
"434 176 CURVE SMOOTH",
"434 265 OFFCURVE",
"374 316 OFFCURVE",
"295 316 CURVE SMOOTH"
);
},
{
closed = 1;
nodes = (
"324 235 OFFCURVE",
"340 180 OFFCURVE",
"340 143 CURVE SMOOTH",
"340 97 OFFCURVE",
"298 72 OFFCURVE",
"263 72 CURVE SMOOTH",
"221 72 OFFCURVE",
"206 128 OFFCURVE",
"206 165 CURVE SMOOTH",
"206 210 OFFCURVE",
"246 235 OFFCURVE",
"282 235 CURVE SMOOTH"
);
},
{
closed = 1;
nodes = (
"429 316 OFFCURVE",
"371 205 OFFCURVE",
"371 125 CURVE SMOOTH",
"371 45 OFFCURVE",
"417 -4 OFFCURVE",
"497 -4 CURVE SMOOTH",
"591 -4 OFFCURVE",
"683 76 OFFCURVE",
"683 176 CURVE SMOOTH",
"683 265 OFFCURVE",
"622 316 OFFCURVE",
"544 316 CURVE SMOOTH"
);
},
{
closed = 1;
nodes = (
"572 235 OFFCURVE",
"588 180 OFFCURVE",
"588 143 CURVE SMOOTH",
"588 97 OFFCURVE",
"547 72 OFFCURVE",
"511 72 CURVE SMOOTH",
"470 72 OFFCURVE",
"455 128 OFFCURVE",
"455 165 CURVE SMOOTH",
"455 210 OFFCURVE",
"495 235 OFFCURVE",
"531 235 CURVE SMOOTH"
);
},
{
closed = 1;
nodes = (
"824 85 OFFCURVE",
"921 180 OFFCURVE",
"921 283 CURVE SMOOTH",
"921 485 OFFCURVE",
"725 617 OFFCURVE",
"508 617 CURVE SMOOTH",
"239 617 OFFCURVE",
"50 465 OFFCURVE",
"50 328 CURVE SMOOTH",
"50 246 OFFCURVE",
"129 192 OFFCURVE",
"182 192 CURVE",
"237 289 LINE",
"202 284 OFFCURVE",
"169 302 OFFCURVE",
"169 339 CURVE SMOOTH",
"169 409 OFFCURVE",
"285 522 OFFCURVE",
"487 522 CURVE SMOOTH",
"668 522 OFFCURVE",
"801 391 OFFCURVE",
"802 276 CURVE SMOOTH",
"803 164 OFFCURVE",
"715 113 OFFCURVE",
"715 88 CURVE SMOOTH",
"715 66 OFFCURVE",
"778 -39 OFFCURVE",
"817 -39 CURVE SMOOTH",
"839 -39 OFFCURVE",
"894 7 OFFCURVE",
"894 37 CURVE SMOOTH",
"894 42 OFFCURVE",
"893 45 OFFCURVE",
"890 45 CURVE SMOOTH",
"886 45 OFFCURVE",
"876 35 OFFCURVE",
"871 35 CURVE SMOOTH",
"862 35 OFFCURVE",
"824 62 OFFCURVE",
"817 73 CURVE"
);
}
);
};
layerId = "555B79C6-6D98-46E7-9307-77C37975E414";
paths = (
{
closed = 1;
nodes = (
"856 -52 OFFCURVE",
"910 11 OFFCURVE",
"910 39 CURVE SMOOTH",
"910 47 OFFCURVE",
"908 55 OFFCURVE",
"903 55 CURVE SMOOTH",
"899 55 OFFCURVE",
"887 43 OFFCURVE",
"882 43 CURVE SMOOTH",
"873 43 OFFCURVE",
"839 62 OFFCURVE",
"832 73 CURVE",
"844 87 OFFCURVE",
"941 177 OFFCURVE",
"941 293 CURVE SMOOTH",
"941 485 OFFCURVE",
"753 622 OFFCURVE",
"513 622 CURVE SMOOTH",
"228 622 OFFCURVE",
"40 465 OFFCURVE",
"40 328 CURVE SMOOTH",
"40 238 OFFCURVE",
"119 183 OFFCURVE",
"187 183 CURVE",
"231 302 LINE",
"209 300 OFFCURVE",
"191 316 OFFCURVE",
"191 338 CURVE SMOOTH",
"191 393 OFFCURVE",
"304 498 OFFCURVE",
"488 498 CURVE SMOOTH",
"653 498 OFFCURVE",
"786 381 OFFCURVE",
"787 276 CURVE SMOOTH",
"788 168 OFFCURVE",
"704 117 OFFCURVE",
"704 92 CURVE SMOOTH",
"704 56 OFFCURVE",
"779 -52 OFFCURVE",
"818 -52 CURVE SMOOTH"
);
},
{
closed = 1;
nodes = (
"239 92 OFFCURVE",
"228 134 OFFCURVE",
"228 162 CURVE SMOOTH",
"228 196 OFFCURVE",
"258 215 OFFCURVE",
"285 215 CURVE SMOOTH",
"316 215 OFFCURVE",
"328 173 OFFCURVE",
"328 146 CURVE SMOOTH",
"328 111 OFFCURVE",
"297 92 OFFCURVE",
"270 92 CURVE SMOOTH"
);
},
{
closed = 1;
nodes = (
"350 -11 OFFCURVE",
"446 72 OFFCURVE",
"446 177 CURVE SMOOTH",
"446 270 OFFCURVE",
"383 323 OFFCURVE",
"301 323 CURVE SMOOTH",
"180 323 OFFCURVE",
"120 207 OFFCURVE",
"120 124 CURVE SMOOTH",
"120 40 OFFCURVE",
"168 -11 OFFCURVE",
"252 -11 CURVE SMOOTH"
);
},
{
closed = 1;
nodes = (
"488 92 OFFCURVE",
"477 134 OFFCURVE",
"477 162 CURVE SMOOTH",
"477 196 OFFCURVE",
"507 215 OFFCURVE",
"534 215 CURVE SMOOTH",
"565 215 OFFCURVE",
"577 173 OFFCURVE",
"577 146 CURVE SMOOTH",
"577 111 OFFCURVE",
"546 92 OFFCURVE",
"519 92 CURVE SMOOTH"
);
},
{
closed = 1;
nodes = (
"599 -11 OFFCURVE",
"695 72 OFFCURVE",
"695 177 CURVE SMOOTH",
"695 270 OFFCURVE",
"632 323 OFFCURVE",
"550 323 CURVE SMOOTH",
"429 323 OFFCURVE",
"369 207 OFFCURVE",
"369 124 CURVE SMOOTH",
"369 40 OFFCURVE",
"417 -11 OFFCURVE",
"501 -11 CURVE SMOOTH"
);
}
);
width = 961;
},
{
layerId = "08AC27E4-54F0-4C9D-B904-08FC42541096";
paths = (
{
closed = 1;
nodes = (
"844 -39 OFFCURVE",
"899 7 OFFCURVE",
"899 37 CURVE SMOOTH",
"899 42 OFFCURVE",
"898 45 OFFCURVE",
"895 45 CURVE SMOOTH",
"891 45 OFFCURVE",
"881 35 OFFCURVE",
"876 35 CURVE SMOOTH",
"867 35 OFFCURVE",
"829 62 OFFCURVE",
"822 73 CURVE",
"829 85 OFFCURVE",
"926 180 OFFCURVE",
"926 283 CURVE SMOOTH",
"926 485 OFFCURVE",
"730 617 OFFCURVE",
"513 617 CURVE SMOOTH",
"244 617 OFFCURVE",
"55 465 OFFCURVE",
"55 328 CURVE SMOOTH",
"55 246 OFFCURVE",
"134 192 OFFCURVE",
"187 192 CURVE",
"242 289 LINE",
"207 284 OFFCURVE",
"174 302 OFFCURVE",
"174 339 CURVE SMOOTH",
"174 409 OFFCURVE",
"290 522 OFFCURVE",
"492 522 CURVE SMOOTH",
"673 522 OFFCURVE",
"806 391 OFFCURVE",
"807 276 CURVE SMOOTH",
"808 164 OFFCURVE",
"720 113 OFFCURVE",
"720 88 CURVE SMOOTH",
"720 66 OFFCURVE",
"783 -39 OFFCURVE",
"822 -39 CURVE SMOOTH"
);
},
{
closed = 1;
nodes = (
"226 72 OFFCURVE",
"211 128 OFFCURVE",
"211 165 CURVE SMOOTH",
"211 210 OFFCURVE",
"251 235 OFFCURVE",
"287 235 CURVE SMOOTH",
"329 235 OFFCURVE",
"345 180 OFFCURVE",
"345 143 CURVE SMOOTH",
"345 97 OFFCURVE",
"303 72 OFFCURVE",
"268 72 CURVE SMOOTH"
);
},
{
closed = 1;
nodes = (
"347 -4 OFFCURVE",
"439 76 OFFCURVE",
"439 176 CURVE SMOOTH",
"439 265 OFFCURVE",
"379 316 OFFCURVE",
"300 316 CURVE SMOOTH",
"185 316 OFFCURVE",
"127 205 OFFCURVE",
"127 125 CURVE SMOOTH",
"127 45 OFFCURVE",
"173 -4 OFFCURVE",
"253 -4 CURVE SMOOTH"
);
},
{
closed = 1;
nodes = (
"475 72 OFFCURVE",
"460 128 OFFCURVE",
"460 165 CURVE SMOOTH",
"460 210 OFFCURVE",
"500 235 OFFCURVE",
"536 235 CURVE SMOOTH",
"577 235 OFFCURVE",
"593 180 OFFCURVE",
"593 143 CURVE SMOOTH",
"593 97 OFFCURVE",
"552 72 OFFCURVE",
"516 72 CURVE SMOOTH"
);
},
{
closed = 1;
nodes = (
"596 -4 OFFCURVE",
"688 76 OFFCURVE",
"688 176 CURVE SMOOTH",
"688 265 OFFCURVE",
"627 316 OFFCURVE",
"549 316 CURVE SMOOTH",
"434 316 OFFCURVE",
"376 205 OFFCURVE",
"376 125 CURVE SMOOTH",
"376 45 OFFCURVE",
"422 -4 OFFCURVE",
"502 -4 CURVE SMOOTH"
);
}
);
width = 970.83607;
}
);
unicode = 0B07;
},
{
glyphname = "ii-oriya";
lastChange = "2022-01-22 11:09:00 +0000";
layers = (
{
background = {
paths = (
{
closed = 1;
nodes = (
"178 316 OFFCURVE",
"120 205 OFFCURVE",
"120 125 CURVE SMOOTH",
"120 45 OFFCURVE",
"166 -4 OFFCURVE",
"246 -4 CURVE SMOOTH",
"340 -4 OFFCURVE",
"432 76 OFFCURVE",
"432 176 CURVE SMOOTH",
"432 265 OFFCURVE",
"372 316 OFFCURVE",
"293 316 CURVE SMOOTH"
);
},
{
closed = 1;
nodes = (
"322 235 OFFCURVE",
"338 180 OFFCURVE",
"338 143 CURVE SMOOTH",
"338 97 OFFCURVE",
"296 72 OFFCURVE",
"261 72 CURVE SMOOTH",
"219 72 OFFCURVE",
"204 128 OFFCURVE",
"204 165 CURVE SMOOTH",
"204 210 OFFCURVE",
"244 235 OFFCURVE",
"280 235 CURVE SMOOTH"
);
},
{
closed = 0;
nodes = (
"226 321 LINE"
);
},
{
closed = 1;
nodes = (
"669 526 OFFCURVE",
"799 391 OFFCURVE",
"800 276 CURVE SMOOTH",
"801 164 OFFCURVE",
"713 113 OFFCURVE",
"713 88 CURVE SMOOTH",
"713 66 OFFCURVE",
"776 -39 OFFCURVE",
"815 -39 CURVE SMOOTH",
"837 -39 OFFCURVE",
"892 7 OFFCURVE",
"892 37 CURVE SMOOTH",
"892 42 OFFCURVE",
"891 45 OFFCURVE",
"888 45 CURVE SMOOTH",
"884 45 OFFCURVE",
"874 35 OFFCURVE",
"869 35 CURVE SMOOTH",
"860 35 OFFCURVE",
"822 62 OFFCURVE",
"815 73 CURVE",
"822 85 OFFCURVE",
"919 180 OFFCURVE",
"919 283 CURVE SMOOTH",
"919 485 OFFCURVE",
"726 619 OFFCURVE",
"506 619 CURVE SMOOTH",
"391 619 OFFCURVE",
"252 588 OFFCURVE",
"229 485 CURVE",
"120 485 OFFCURVE",
"50 411 OFFCURVE",
"50 337 CURVE SMOOTH",
"50 249 OFFCURVE",
"136 192 OFFCURVE",
"180 192 CURVE",
"235 289 LINE",
"200 284 OFFCURVE",
"167 302 OFFCURVE",
"167 339 CURVE SMOOTH",
"167 381 OFFCURVE",
"208 400 OFFCURVE",
"229 402 CURVE SMOOTH",
"257 405 OFFCURVE",
"258 376 OFFCURVE",
"270 376 CURVE SMOOTH",
"287 376 OFFCURVE",
"340 416 OFFCURVE",
"340 430 CURVE SMOOTH",
"340 439 OFFCURVE",
"321 450 OFFCURVE",
"321 461 CURVE SMOOTH",
"321 494 OFFCURVE",
"397 526 OFFCURVE",
"495 526 CURVE SMOOTH"
);
},
{
closed = 1;
nodes = (
"429 316 OFFCURVE",
"371 205 OFFCURVE",
"371 125 CURVE SMOOTH",
"371 45 OFFCURVE",
"417 -4 OFFCURVE",
"497 -4 CURVE SMOOTH",
"591 -4 OFFCURVE",
"683 76 OFFCURVE",
"683 176 CURVE SMOOTH",
"683 265 OFFCURVE",
"622 316 OFFCURVE",
"544 316 CURVE SMOOTH"
);
},
{
closed = 1;
nodes = (
"572 235 OFFCURVE",
"588 180 OFFCURVE",
"588 143 CURVE SMOOTH",
"588 97 OFFCURVE",
"547 72 OFFCURVE",
"511 72 CURVE SMOOTH",
"470 72 OFFCURVE",
"455 128 OFFCURVE",
"455 165 CURVE SMOOTH",
"455 210 OFFCURVE",
"495 235 OFFCURVE",
"531 235 CURVE SMOOTH"
);
}
);
};
layerId = "555B79C6-6D98-46E7-9307-77C37975E414";
paths = (
{
closed = 1;
nodes = (
"856 -52 OFFCURVE",
"910 11 OFFCURVE",
"910 39 CURVE SMOOTH",
"910 47 OFFCURVE",
"908 55 OFFCURVE",
"903 55 CURVE SMOOTH",
"899 55 OFFCURVE",
"887 43 OFFCURVE",
"882 43 CURVE SMOOTH",
"873 43 OFFCURVE",
"839 62 OFFCURVE",
"832 73 CURVE",
"844 87 OFFCURVE",
"941 177 OFFCURVE",
"941 293 CURVE SMOOTH",
"941 485 OFFCURVE",
"755 622 OFFCURVE",
"502 622 CURVE SMOOTH",
"387 622 OFFCURVE",
"265 596 OFFCURVE",
"227 494 CURVE",
"124 494 OFFCURVE",
"40 420 OFFCURVE",
"40 328 CURVE SMOOTH",
"40 238 OFFCURVE",
"119 183 OFFCURVE",
"187 183 CURVE",
"231 302 LINE",
"209 300 OFFCURVE",
"191 316 OFFCURVE",
"191 339 CURVE SMOOTH",
"191 369 OFFCURVE",
"223 389 OFFCURVE",
"243 389 CURVE SMOOTH",
"260 389 OFFCURVE",
"264 362 OFFCURVE",
"276 362 CURVE SMOOTH",
"295 362 OFFCURVE",
"360 410 OFFCURVE",
"360 428 CURVE SMOOTH",
"360 437 OFFCURVE",
"343 444 OFFCURVE",
"343 455 CURVE SMOOTH",
"343 475 OFFCURVE",
"390 498 OFFCURVE",
"488 498 CURVE SMOOTH",
"653 498 OFFCURVE",
"786 381 OFFCURVE",
"787 276 CURVE SMOOTH",
"788 168 OFFCURVE",
"704 117 OFFCURVE",
"704 92 CURVE SMOOTH",
"704 56 OFFCURVE",
"779 -52 OFFCURVE",
"818 -52 CURVE SMOOTH"
);
},
{
closed = 1;
nodes = (
"239 92 OFFCURVE",
"228 134 OFFCURVE",
"228 162 CURVE SMOOTH",
"228 196 OFFCURVE",
"258 215 OFFCURVE",
"285 215 CURVE SMOOTH",
"316 215 OFFCURVE",
"328 173 OFFCURVE",
"328 146 CURVE SMOOTH",
"328 111 OFFCURVE",
"297 92 OFFCURVE",
"270 92 CURVE SMOOTH"
);
},
{
closed = 1;
nodes = (
"350 -11 OFFCURVE",
"446 72 OFFCURVE",
"446 177 CURVE SMOOTH",
"446 270 OFFCURVE",
"383 323 OFFCURVE",
"301 323 CURVE SMOOTH",
"180 323 OFFCURVE",
"120 207 OFFCURVE",
"120 124 CURVE SMOOTH",
"120 40 OFFCURVE",
"168 -11 OFFCURVE",
"252 -11 CURVE SMOOTH"
);
},
{
closed = 0;
nodes = (
"231 321 LINE"
);
},
{
closed = 1;
nodes = (
"488 92 OFFCURVE",
"477 134 OFFCURVE",
"477 162 CURVE SMOOTH",
"477 196 OFFCURVE",
"507 215 OFFCURVE",
"534 215 CURVE SMOOTH",
"565 215 OFFCURVE",
"577 173 OFFCURVE",
"577 146 CURVE SMOOTH",
"577 111 OFFCURVE",
"546 92 OFFCURVE",
"519 92 CURVE SMOOTH"
);
},
{
closed = 1;
nodes = (
"599 -11 OFFCURVE",
"695 72 OFFCURVE",
"695 177 CURVE SMOOTH",
"695 270 OFFCURVE",
"632 323 OFFCURVE",
"550 323 CURVE SMOOTH",
"429 323 OFFCURVE",
"369 207 OFFCURVE",
"369 124 CURVE SMOOTH",
"369 40 OFFCURVE",
"417 -11 OFFCURVE",
"501 -11 CURVE SMOOTH"
);
}
);
width = 961;
},
{
layerId = "08AC27E4-54F0-4C9D-B904-08FC42541096";
paths = (
{
closed = 1;
nodes = (
"842 -39 OFFCURVE",
"897 7 OFFCURVE",
"897 37 CURVE SMOOTH",
"897 42 OFFCURVE",
"896 45 OFFCURVE",
"893 45 CURVE SMOOTH",
"889 45 OFFCURVE",
"879 35 OFFCURVE",
"874 35 CURVE SMOOTH",
"865 35 OFFCURVE",
"827 62 OFFCURVE",
"820 73 CURVE",
"827 85 OFFCURVE",
"924 180 OFFCURVE",
"924 283 CURVE SMOOTH",
"924 485 OFFCURVE",
"731 619 OFFCURVE",
"511 619 CURVE SMOOTH",
"396 619 OFFCURVE",
"257 588 OFFCURVE",
"234 485 CURVE",
"125 485 OFFCURVE",
"55 411 OFFCURVE",
"55 337 CURVE SMOOTH",
"55 249 OFFCURVE",
"141 192 OFFCURVE",
"185 192 CURVE",
"240 289 LINE",
"205 284 OFFCURVE",
"172 302 OFFCURVE",
"172 339 CURVE SMOOTH",
"172 381 OFFCURVE",
"213 400 OFFCURVE",
"234 402 CURVE SMOOTH",
"262 405 OFFCURVE",
"263 376 OFFCURVE",
"275 376 CURVE SMOOTH",
"292 376 OFFCURVE",
"345 416 OFFCURVE",
"345 430 CURVE SMOOTH",
"345 439 OFFCURVE",
"326 450 OFFCURVE",
"326 461 CURVE SMOOTH",
"326 494 OFFCURVE",
"402 526 OFFCURVE",
"500 526 CURVE SMOOTH",
"674 526 OFFCURVE",
"804 391 OFFCURVE",
"805 276 CURVE SMOOTH",
"806 164 OFFCURVE",
"718 113 OFFCURVE",
"718 88 CURVE SMOOTH",
"718 66 OFFCURVE",
"781 -39 OFFCURVE",
"820 -39 CURVE SMOOTH"
);
},
{
closed = 1;
nodes = (
"224 72 OFFCURVE",
"209 128 OFFCURVE",
"209 165 CURVE SMOOTH",
"209 210 OFFCURVE",
"249 235 OFFCURVE",
"285 235 CURVE SMOOTH",
"327 235 OFFCURVE",
"343 180 OFFCURVE",
"343 143 CURVE SMOOTH",
"343 97 OFFCURVE",
"301 72 OFFCURVE",
"266 72 CURVE SMOOTH"
);
},
{
closed = 1;
nodes = (
"345 -4 OFFCURVE",
"437 76 OFFCURVE",
"437 176 CURVE SMOOTH",
"437 265 OFFCURVE",
"377 316 OFFCURVE",
"298 316 CURVE SMOOTH",
"183 316 OFFCURVE",
"125 205 OFFCURVE",
"125 125 CURVE SMOOTH",
"125 45 OFFCURVE",
"171 -4 OFFCURVE",
"251 -4 CURVE SMOOTH"
);
},
{
closed = 0;
nodes = (
"231 321 LINE"
);
},
{
closed = 1;
nodes = (
"475 72 OFFCURVE",
"460 128 OFFCURVE",
"460 165 CURVE SMOOTH",
"460 210 OFFCURVE",
"500 235 OFFCURVE",
"536 235 CURVE SMOOTH",
"577 235 OFFCURVE",
"593 180 OFFCURVE",
"593 143 CURVE SMOOTH",
"593 97 OFFCURVE",
"552 72 OFFCURVE",
"516 72 CURVE SMOOTH"
);
},
{
closed = 1;
nodes = (
"596 -4 OFFCURVE",
"688 76 OFFCURVE",
"688 176 CURVE SMOOTH",
"688 265 OFFCURVE",
"627 316 OFFCURVE",
"549 316 CURVE SMOOTH",
"434 316 OFFCURVE",
"376 205 OFFCURVE",
"376 125 CURVE SMOOTH",
"376 45 OFFCURVE",
"422 -4 OFFCURVE",
"502 -4 CURVE SMOOTH"
);
}
);
width = 970.83607;
}
);
unicode = 0B08;
},
{
glyphname = "u-oriya";
lastChange = "2022-01-22 11:09:13 +0000";
layers = (
{
background = {
paths = (
{
closed = 1;
nodes = (
"339 253 OFFCURVE",
"397 214 OFFCURVE",
"397 158 CURVE SMOOTH",
"397 108 OFFCURVE",
"344 84 OFFCURVE",
"262 84 CURVE SMOOTH",
"202 84 OFFCURVE",
"169 103 OFFCURVE",
"169 142 CURVE SMOOTH",
"169 203 OFFCURVE",
"275 244 OFFCURVE",
"275 260 CURVE SMOOTH",
"275 275 OFFCURVE",
"263 321 OFFCURVE",
"250 321 CURVE SMOOTH",
"232 321 OFFCURVE",
"49 254 OFFCURVE",
"50 135 CURVE SMOOTH",
"51 67 OFFCURVE",
"103 -8 OFFCURVE",
"253 -7 CURVE SMOOTH",
"400 -6 OFFCURVE",
"501 63 OFFCURVE",
"501 154 CURVE SMOOTH",
"501 222 OFFCURVE",
"437 273 OFFCURVE",
"433 275 CURVE",
"446 292 OFFCURVE",
"488 313 OFFCURVE",
"501 313 CURVE SMOOTH",
"512 313 OFFCURVE",
"518 299 OFFCURVE",
"525 299 CURVE SMOOTH",
"528 299 OFFCURVE",
"530 302 OFFCURVE",
"530 308 CURVE SMOOTH",
"530 346 OFFCURVE",
"499 403 OFFCURVE",
"473 403 CURVE SMOOTH",
"432 403 OFFCURVE",
"339 318 OFFCURVE",
"339 274 CURVE SMOOTH"
);
},
{
closed = 1;
nodes = (
"651 85 OFFCURVE",
"788 186 OFFCURVE",
"788 337 CURVE SMOOTH",
"788 513 OFFCURVE",
"611 617 OFFCURVE",
"432 617 CURVE SMOOTH",
"243 617 OFFCURVE",
"72 505 OFFCURVE",
"72 371 CURVE SMOOTH",
"72 288 OFFCURVE",
"152 231 OFFCURVE",
"188 231 CURVE",
"250 321 LINE",
"212 321 OFFCURVE",
"191 346 OFFCURVE",
"191 377 CURVE SMOOTH",
"191 449 OFFCURVE",
"290 526 OFFCURVE",
"421 526 CURVE SMOOTH",
"554 526 OFFCURVE",
"672 441 OFFCURVE",
"669 313 CURVE SMOOTH",
"666 188 OFFCURVE",
"542 113 OFFCURVE",
"542 88 CURVE SMOOTH",
"542 66 OFFCURVE",
"605 -39 OFFCURVE",
"644 -39 CURVE SMOOTH",
"666 -39 OFFCURVE",
"721 7 OFFCURVE",
"721 37 CURVE SMOOTH",
"721 42 OFFCURVE",
"720 45 OFFCURVE",
"717 45 CURVE SMOOTH",
"713 45 OFFCURVE",
"703 35 OFFCURVE",
"698 35 CURVE SMOOTH",
"689 35 OFFCURVE",
"651 62 OFFCURVE",
"644 73 CURVE"
);
}
);
};
layerId = "555B79C6-6D98-46E7-9307-77C37975E414";
paths = (
{
closed = 1;
nodes = (
"680 -52 OFFCURVE",
"735 10 OFFCURVE",
"735 39 CURVE SMOOTH",
"735 44 OFFCURVE",
"734 55 OFFCURVE",
"728 55 CURVE SMOOTH",
"724 55 OFFCURVE",
"712 43 OFFCURVE",
"707 43 CURVE SMOOTH",
"698 43 OFFCURVE",
"664 62 OFFCURVE",
"657 73 CURVE",
"664 85 OFFCURVE",
"798 186 OFFCURVE",
"798 337 CURVE SMOOTH",
"798 513 OFFCURVE",
"632 627 OFFCURVE",
"432 627 CURVE SMOOTH",
"220 627 OFFCURVE",
"53 505 OFFCURVE",
"53 371 CURVE SMOOTH",
"53 271 OFFCURVE",
"152 218 OFFCURVE",
"188 218 CURVE",
"250 331 LINE",
"220 331 OFFCURVE",
"206 356 OFFCURVE",
"206 377 CURVE SMOOTH",
"206 434 OFFCURVE",
"287 506 OFFCURVE",
"421 506 CURVE SMOOTH",
"558 506 OFFCURVE",
"655 424 OFFCURVE",
"654 313 CURVE SMOOTH",
"653 188 OFFCURVE",
"529 117 OFFCURVE",
"529 92 CURVE SMOOTH",
"529 56 OFFCURVE",
"604 -52 OFFCURVE",
"643 -52 CURVE SMOOTH"
);
},
{
closed = 1;
nodes = (
"410 -16 OFFCURVE",
"511 63 OFFCURVE",
"511 154 CURVE SMOOTH",
"511 222 OFFCURVE",
"447 273 OFFCURVE",
"443 275 CURVE",
"456 292 OFFCURVE",
"488 303 OFFCURVE",
"501 303 CURVE SMOOTH",
"512 303 OFFCURVE",
"518 289 OFFCURVE",
"525 289 CURVE SMOOTH",
"533 289 OFFCURVE",
"535 299 OFFCURVE",
"535 311 CURVE SMOOTH",
"535 347 OFFCURVE",
"502 413 OFFCURVE",
"473 413 CURVE SMOOTH",
"432 413 OFFCURVE",
"324 318 OFFCURVE",
"324 274 CURVE SMOOTH",
"324 249 OFFCURVE",
"382 214 OFFCURVE",
"382 158 CURVE SMOOTH",
"382 108 OFFCURVE",
"320 99 OFFCURVE",
"262 99 CURVE SMOOTH",
"207 99 OFFCURVE",
"185 115 OFFCURVE",
"185 142 CURVE SMOOTH",
"185 197 OFFCURVE",
"285 241 OFFCURVE",
"285 257 CURVE SMOOTH",
"285 272 OFFCURVE",
"271 331 OFFCURVE",
"250 331 CURVE SMOOTH",
"232 331 OFFCURVE",
"38 258 OFFCURVE",
"40 135 CURVE SMOOTH",
"41 61 OFFCURVE",
"103 -18 OFFCURVE",
"253 -17 CURVE SMOOTH"
);
}
);
width = 818;
},
{
layerId = "08AC27E4-54F0-4C9D-B904-08FC42541096";
paths = (
{
closed = 1;
nodes = (
"674 -39 OFFCURVE",
"729 7 OFFCURVE",
"729 37 CURVE SMOOTH",
"729 42 OFFCURVE",
"728 45 OFFCURVE",
"725 45 CURVE SMOOTH",
"721 45 OFFCURVE",
"711 35 OFFCURVE",
"706 35 CURVE SMOOTH",
"697 35 OFFCURVE",
"659 62 OFFCURVE",
"652 73 CURVE",
"659 85 OFFCURVE",
"796 186 OFFCURVE",
"796 337 CURVE SMOOTH",
"796 513 OFFCURVE",
"619 617 OFFCURVE",
"440 617 CURVE SMOOTH",
"250 617 OFFCURVE",
"80 505 OFFCURVE",
"80 371 CURVE SMOOTH",
"80 288 OFFCURVE",
"160 231 OFFCURVE",
"196 231 CURVE",
"258 321 LINE",
"220 321 OFFCURVE",
"199 346 OFFCURVE",
"199 377 CURVE SMOOTH",
"199 449 OFFCURVE",
"298 526 OFFCURVE",
"429 526 CURVE SMOOTH",
"562 526 OFFCURVE",
"680 441 OFFCURVE",
"677 313 CURVE SMOOTH",
"674 188 OFFCURVE",
"550 113 OFFCURVE",
"550 88 CURVE SMOOTH",
"550 66 OFFCURVE",
"613 -39 OFFCURVE",
"652 -39 CURVE SMOOTH"
);
},
{
closed = 1;
nodes = (
"408 -6 OFFCURVE",
"509 63 OFFCURVE",
"509 154 CURVE SMOOTH",
"509 222 OFFCURVE",
"445 273 OFFCURVE",
"441 275 CURVE",
"454 292 OFFCURVE",
"496 313 OFFCURVE",
"509 313 CURVE SMOOTH",
"520 313 OFFCURVE",
"526 299 OFFCURVE",
"533 299 CURVE SMOOTH",
"536 299 OFFCURVE",
"538 302 OFFCURVE",
"538 308 CURVE SMOOTH",
"538 346 OFFCURVE",
"507 403 OFFCURVE",
"481 403 CURVE SMOOTH",
"440 403 OFFCURVE",
"347 318 OFFCURVE",
"347 274 CURVE SMOOTH",
"347 253 OFFCURVE",
"405 214 OFFCURVE",
"405 158 CURVE SMOOTH",
"405 108 OFFCURVE",
"351 84 OFFCURVE",
"270 84 CURVE SMOOTH",
"210 84 OFFCURVE",
"177 103 OFFCURVE",
"177 142 CURVE SMOOTH",
"177 203 OFFCURVE",
"283 244 OFFCURVE",
"283 260 CURVE SMOOTH",
"283 275 OFFCURVE",
"271 321 OFFCURVE",
"258 321 CURVE SMOOTH",
"240 321 OFFCURVE",
"57 254 OFFCURVE",
"58 135 CURVE SMOOTH",
"59 67 OFFCURVE",
"111 -8 OFFCURVE",
"261 -7 CURVE SMOOTH"
);
}
);
width = 835.70492;
}
);
unicode = 0B09;
},
{
glyphname = "uu-oriya";
lastChange = "2022-01-22 11:09:18 +0000";
layers = (
{
background = {
paths = (
{
closed = 1;
nodes = (
"691 76 OFFCURVE",
"785 138 OFFCURVE",
"785 184 CURVE SMOOTH",
"785 205 OFFCURVE",
"774 237 OFFCURVE",
"738 257 CURVE",
"767 276 OFFCURVE",
"788 302 OFFCURVE",
"788 350 CURVE SMOOTH",
"788 513 OFFCURVE",
"611 617 OFFCURVE",
"432 617 CURVE SMOOTH",
"243 617 OFFCURVE",
"72 505 OFFCURVE",
"72 371 CURVE SMOOTH",
"72 288 OFFCURVE",
"152 234 OFFCURVE",
"188 234 CURVE",
"250 321 LINE",
"212 321 OFFCURVE",
"191 346 OFFCURVE",
"191 377 CURVE SMOOTH",
"191 450 OFFCURVE",
"290 526 OFFCURVE",
"421 526 CURVE SMOOTH",
"563 526 OFFCURVE",
"671 441 OFFCURVE",
"671 341 CURVE SMOOTH",
"671 283 OFFCURVE",
"588 267 OFFCURVE",
"588 239 CURVE SMOOTH",
"588 233 OFFCURVE",
"592 228 OFFCURVE",
"598 228 CURVE SMOOTH",
"606 228 OFFCURVE",
"624 236 OFFCURVE",
"638 236 CURVE SMOOTH",
"661 236 OFFCURVE",
"672 210 OFFCURVE",
"672 192 CURVE SMOOTH",
"672 159 OFFCURVE",
"585 103 OFFCURVE",
"585 86 CURVE SMOOTH",
"585 64 OFFCURVE",
"648 -41 OFFCURVE",
"687 -41 CURVE SMOOTH",
"719 -41 OFFCURVE",
"764 13 OFFCURVE",
"764 35 CURVE SMOOTH",
"764 40 OFFCURVE",
"763 43 OFFCURVE",
"760 43 CURVE SMOOTH",
"756 43 OFFCURVE",
"746 33 OFFCURVE",
"741 33 CURVE SMOOTH",
"732 33 OFFCURVE",
"694 60 OFFCURVE",
"687 71 CURVE"
);
},
{
closed = 1;
nodes = (
"339 253 OFFCURVE",
"397 214 OFFCURVE",
"397 158 CURVE SMOOTH",
"397 108 OFFCURVE",
"344 84 OFFCURVE",
"262 84 CURVE SMOOTH",
"202 84 OFFCURVE",
"169 103 OFFCURVE",
"169 142 CURVE SMOOTH",
"169 203 OFFCURVE",
"275 244 OFFCURVE",
"275 260 CURVE SMOOTH",
"275 275 OFFCURVE",
"263 321 OFFCURVE",
"250 321 CURVE SMOOTH",
"232 321 OFFCURVE",
"49 254 OFFCURVE",
"50 135 CURVE SMOOTH",
"51 67 OFFCURVE",
"103 -8 OFFCURVE",
"253 -7 CURVE SMOOTH",
"400 -6 OFFCURVE",
"501 63 OFFCURVE",
"501 154 CURVE SMOOTH",
"501 222 OFFCURVE",
"437 273 OFFCURVE",
"433 275 CURVE",
"446 292 OFFCURVE",
"488 313 OFFCURVE",
"501 313 CURVE SMOOTH",
"512 313 OFFCURVE",
"518 299 OFFCURVE",
"525 299 CURVE SMOOTH",
"528 299 OFFCURVE",
"530 302 OFFCURVE",
"530 308 CURVE SMOOTH",
"530 346 OFFCURVE",
"499 403 OFFCURVE",
"473 403 CURVE SMOOTH",
"432 403 OFFCURVE",
"339 318 OFFCURVE",
"339 274 CURVE SMOOTH"
);
}
);
};
layerId = "555B79C6-6D98-46E7-9307-77C37975E414";
paths = (
{
closed = 1;
nodes = (
"716 -52 OFFCURVE",
"771 10 OFFCURVE",
"771 39 CURVE SMOOTH",
"771 44 OFFCURVE",
"770 55 OFFCURVE",
"764 55 CURVE SMOOTH",
"760 55 OFFCURVE",
"748 43 OFFCURVE",
"743 43 CURVE SMOOTH",
"734 43 OFFCURVE",
"708 59 OFFCURVE",
"701 70 CURVE",
"705 75 OFFCURVE",
"795 126 OFFCURVE",
"795 184 CURVE SMOOTH",
"795 205 OFFCURVE",
"788 237 OFFCURVE",
"752 257 CURVE",
"774 269 OFFCURVE",
"802 304 OFFCURVE",
"802 349 CURVE SMOOTH",
"802 505 OFFCURVE",
"640 627 OFFCURVE",
"432 627 CURVE SMOOTH",
"220 627 OFFCURVE",
"53 505 OFFCURVE",
"53 371 CURVE SMOOTH",
"53 271 OFFCURVE",
"152 218 OFFCURVE",
"188 218 CURVE",
"250 331 LINE",
"220 331 OFFCURVE",
"206 356 OFFCURVE",
"206 377 CURVE SMOOTH",
"206 434 OFFCURVE",
"287 506 OFFCURVE",
"421 506 CURVE SMOOTH",
"563 506 OFFCURVE",
"651 420 OFFCURVE",
"651 341 CURVE SMOOTH",
"651 283 OFFCURVE",
"573 267 OFFCURVE",
"573 237 CURVE SMOOTH",
"573 229 OFFCURVE",
"579 222 OFFCURVE",
"588 222 CURVE SMOOTH",
"596 222 OFFCURVE",
"611 229 OFFCURVE",
"625 229 CURVE SMOOTH",
"648 229 OFFCURVE",
"659 210 OFFCURVE",
"659 195 CURVE SMOOTH",
"659 161 OFFCURVE",
"565 109 OFFCURVE",
"565 92 CURVE SMOOTH",
"565 56 OFFCURVE",
"640 -52 OFFCURVE",
"679 -52 CURVE SMOOTH"
);
},
{
closed = 1;
nodes = (
"410 -16 OFFCURVE",
"511 63 OFFCURVE",
"511 154 CURVE SMOOTH",
"511 222 OFFCURVE",
"447 273 OFFCURVE",
"443 275 CURVE",
"456 292 OFFCURVE",
"488 303 OFFCURVE",
"501 303 CURVE SMOOTH",
"512 303 OFFCURVE",
"518 289 OFFCURVE",
"525 289 CURVE SMOOTH",
"533 289 OFFCURVE",
"535 299 OFFCURVE",
"535 311 CURVE SMOOTH",
"535 347 OFFCURVE",
"502 413 OFFCURVE",
"473 413 CURVE SMOOTH",
"432 413 OFFCURVE",
"324 318 OFFCURVE",
"324 274 CURVE SMOOTH",
"324 249 OFFCURVE",
"382 214 OFFCURVE",
"382 158 CURVE SMOOTH",
"382 108 OFFCURVE",
"320 99 OFFCURVE",
"262 99 CURVE SMOOTH",
"207 99 OFFCURVE",
"185 115 OFFCURVE",
"185 142 CURVE SMOOTH",
"185 197 OFFCURVE",
"285 241 OFFCURVE",
"285 257 CURVE SMOOTH",
"285 272 OFFCURVE",
"271 331 OFFCURVE",
"250 331 CURVE SMOOTH",
"232 331 OFFCURVE",
"38 258 OFFCURVE",
"40 135 CURVE SMOOTH",
"41 61 OFFCURVE",
"103 -18 OFFCURVE",
"253 -17 CURVE SMOOTH"
);
}
);
width = 822;
},
{
layerId = "08AC27E4-54F0-4C9D-B904-08FC42541096";
paths = (
{
closed = 1;
nodes = (
"719 -41 OFFCURVE",
"764 13 OFFCURVE",
"764 35 CURVE SMOOTH",
"764 40 OFFCURVE",
"763 43 OFFCURVE",
"760 43 CURVE SMOOTH",
"756 43 OFFCURVE",
"746 33 OFFCURVE",
"741 33 CURVE SMOOTH",
"732 33 OFFCURVE",
"694 60 OFFCURVE",
"687 71 CURVE",
"691 76 OFFCURVE",
"785 138 OFFCURVE",
"785 184 CURVE SMOOTH",
"785 205 OFFCURVE",
"774 237 OFFCURVE",
"738 257 CURVE",
"767 276 OFFCURVE",
"788 302 OFFCURVE",
"788 350 CURVE SMOOTH",
"788 513 OFFCURVE",
"611 617 OFFCURVE",
"432 617 CURVE SMOOTH",
"243 617 OFFCURVE",
"72 505 OFFCURVE",
"72 371 CURVE SMOOTH",
"72 288 OFFCURVE",
"152 234 OFFCURVE",
"188 234 CURVE",
"250 321 LINE",
"212 321 OFFCURVE",
"191 346 OFFCURVE",
"191 377 CURVE SMOOTH",
"191 450 OFFCURVE",
"290 526 OFFCURVE",
"421 526 CURVE SMOOTH",
"563 526 OFFCURVE",
"671 441 OFFCURVE",
"671 341 CURVE SMOOTH",
"671 283 OFFCURVE",
"588 267 OFFCURVE",
"588 239 CURVE SMOOTH",
"588 233 OFFCURVE",
"592 228 OFFCURVE",
"598 228 CURVE SMOOTH",
"606 228 OFFCURVE",
"624 236 OFFCURVE",
"638 236 CURVE SMOOTH",
"661 236 OFFCURVE",
"672 210 OFFCURVE",
"672 192 CURVE SMOOTH",
"672 159 OFFCURVE",
"585 103 OFFCURVE",
"585 86 CURVE SMOOTH",
"585 64 OFFCURVE",
"648 -41 OFFCURVE",
"687 -41 CURVE SMOOTH"
);
},
{
closed = 1;
nodes = (
"400 -6 OFFCURVE",
"501 63 OFFCURVE",
"501 154 CURVE SMOOTH",
"501 222 OFFCURVE",
"437 273 OFFCURVE",
"433 275 CURVE",
"446 292 OFFCURVE",
"488 313 OFFCURVE",
"501 313 CURVE SMOOTH",
"512 313 OFFCURVE",
"518 299 OFFCURVE",
"525 299 CURVE SMOOTH",
"528 299 OFFCURVE",
"530 302 OFFCURVE",
"530 308 CURVE SMOOTH",
"530 346 OFFCURVE",
"499 403 OFFCURVE",
"473 403 CURVE SMOOTH",
"432 403 OFFCURVE",
"339 318 OFFCURVE",
"339 274 CURVE SMOOTH",
"339 253 OFFCURVE",
"397 214 OFFCURVE",
"397 158 CURVE SMOOTH",
"397 108 OFFCURVE",
"344 84 OFFCURVE",
"262 84 CURVE SMOOTH",
"202 84 OFFCURVE",
"169 103 OFFCURVE",
"169 142 CURVE SMOOTH",
"169 203 OFFCURVE",
"275 244 OFFCURVE",
"275 260 CURVE SMOOTH",
"275 275 OFFCURVE",
"263 321 OFFCURVE",
"250 321 CURVE SMOOTH",
"232 321 OFFCURVE",
"49 254 OFFCURVE",
"50 135 CURVE SMOOTH",
"51 67 OFFCURVE",
"103 -8 OFFCURVE",
"253 -7 CURVE SMOOTH"
);
}
);
width = 827.90164;
}
);
unicode = 0B0A;
},
{
glyphname = "rVocalic-oriya";
lastChange = "2022-01-22 11:09:23 +0000";
layers = (
{
background = {
paths = (
{
closed = 1;
nodes = (
"194 356 OFFCURVE",
"129 231 OFFCURVE",
"129 140 CURVE SMOOTH",
"129 51 OFFCURVE",
"181 -4 OFFCURVE",
"270 -4 CURVE SMOOTH",
"376 -4 OFFCURVE",
"479 85 OFFCURVE",
"479 198 CURVE SMOOTH",
"479 296 OFFCURVE",
"412 356 OFFCURVE",
"323 356 CURVE SMOOTH"
);
},
{
closed = 1;
nodes = (
"354 264 OFFCURVE",
"373 203 OFFCURVE",
"373 161 CURVE SMOOTH",
"373 109 OFFCURVE",
"327 81 OFFCURVE",
"287 81 CURVE SMOOTH",
"240 81 OFFCURVE",
"224 145 OFFCURVE",
"224 185 CURVE SMOOTH",
"224 236 OFFCURVE",
"268 264 OFFCURVE",
"309 264 CURVE SMOOTH"
);
},
{
closed = 1;
nodes = (
"646 76 OFFCURVE",
"740 138 OFFCURVE",
"740 184 CURVE SMOOTH",
"740 205 OFFCURVE",
"729 237 OFFCURVE",
"693 257 CURVE",
"722 276 OFFCURVE",
"753 312 OFFCURVE",
"753 363 CURVE SMOOTH",
"753 515 OFFCURVE",
"596 617 OFFCURVE",
"417 617 CURVE SMOOTH",
"228 617 OFFCURVE",
"57 505 OFFCURVE",
"57 371 CURVE SMOOTH",
"57 288 OFFCURVE",
"138 234 OFFCURVE",
"173 234 CURVE",
"235 321 LINE",
"197 321 OFFCURVE",
"176 346 OFFCURVE",
"176 377 CURVE SMOOTH",
"176 450 OFFCURVE",
"275 526 OFFCURVE",
"406 526 CURVE SMOOTH",
"537 526 OFFCURVE",
"638 446 OFFCURVE",
"638 348 CURVE SMOOTH",
"638 285 OFFCURVE",
"543 267 OFFCURVE",
"543 239 CURVE SMOOTH",
"543 233 OFFCURVE",
"547 228 OFFCURVE",
"553 228 CURVE SMOOTH",
"561 228 OFFCURVE",
"579 236 OFFCURVE",
"593 236 CURVE SMOOTH",
"616 236 OFFCURVE",
"627 210 OFFCURVE",
"627 192 CURVE SMOOTH",
"627 159 OFFCURVE",
"540 103 OFFCURVE",
"540 86 CURVE SMOOTH",
"540 64 OFFCURVE",
"603 -41 OFFCURVE",
"642 -41 CURVE SMOOTH",
"674 -41 OFFCURVE",
"719 13 OFFCURVE",
"719 35 CURVE SMOOTH",
"719 40 OFFCURVE",
"718 43 OFFCURVE",
"715 43 CURVE SMOOTH",
"711 43 OFFCURVE",
"701 33 OFFCURVE",
"696 33 CURVE SMOOTH",
"687 33 OFFCURVE",
"649 60 OFFCURVE",
"642 71 CURVE"
);
}
);
};
layerId = "555B79C6-6D98-46E7-9307-77C37975E414";
paths = (
{
closed = 1;
nodes = (
"681 -50 OFFCURVE",
"733 13 OFFCURVE",
"733 42 CURVE SMOOTH",
"733 47 OFFCURVE",
"732 58 OFFCURVE",
"726 58 CURVE SMOOTH",
"722 58 OFFCURVE",
"710 46 OFFCURVE",
"705 46 CURVE SMOOTH",
"696 46 OFFCURVE",
"670 60 OFFCURVE",
"663 71 CURVE",
"667 76 OFFCURVE",
"759 128 OFFCURVE",
"759 184 CURVE SMOOTH",
"759 207 OFFCURVE",
"745 239 OFFCURVE",
"716 259 CURVE",
"738 271 OFFCURVE",
"768 318 OFFCURVE",
"768 363 CURVE SMOOTH",
"768 519 OFFCURVE",
"624 627 OFFCURVE",
"416 627 CURVE SMOOTH",
"204 627 OFFCURVE",
"40 505 OFFCURVE",
"40 371 CURVE SMOOTH",
"40 271 OFFCURVE",
"139 218 OFFCURVE",
"175 218 CURVE",
"237 331 LINE",
"207 331 OFFCURVE",
"193 356 OFFCURVE",
"193 377 CURVE SMOOTH",
"193 434 OFFCURVE",
"271 506 OFFCURVE",
"405 506 CURVE SMOOTH",
"547 506 OFFCURVE",
"615 414 OFFCURVE",
"615 348 CURVE SMOOTH",
"615 290 OFFCURVE",
"537 269 OFFCURVE",
"537 239 CURVE SMOOTH",
"537 230 OFFCURVE",
"543 223 OFFCURVE",
"553 223 CURVE SMOOTH",
"562 223 OFFCURVE",
"578 230 OFFCURVE",
"593 230 CURVE SMOOTH",
"610 230 OFFCURVE",
"620 207 OFFCURVE",
"620 192 CURVE SMOOTH",
"620 164 OFFCURVE",
"529 109 OFFCURVE",
"529 86 CURVE SMOOTH",
"529 56 OFFCURVE",
"600 -50 OFFCURVE",
"642 -50 CURVE SMOOTH"
);
},
{
closed = 1;
nodes = (
"248 94 OFFCURVE",
"234 149 OFFCURVE",
"234 183 CURVE SMOOTH",
"234 227 OFFCURVE",
"272 251 OFFCURVE",
"308 251 CURVE SMOOTH",
"346 251 OFFCURVE",
"363 199 OFFCURVE",
"363 163 CURVE SMOOTH",
"363 118 OFFCURVE",
"323 94 OFFCURVE",
"289 94 CURVE SMOOTH"
);
},
{
closed = 1;
nodes = (
"382 -18 OFFCURVE",
"493 78 OFFCURVE",
"493 200 CURVE SMOOTH",
"493 305 OFFCURVE",
"421 370 OFFCURVE",
"324 370 CURVE SMOOTH",
"185 370 OFFCURVE",
"115 235 OFFCURVE",
"115 137 CURVE SMOOTH",
"115 41 OFFCURVE",
"171 -18 OFFCURVE",
"267 -18 CURVE SMOOTH"
);
}
);
width = 788;
},
{
layerId = "08AC27E4-54F0-4C9D-B904-08FC42541096";
paths = (
{
closed = 1;
nodes = (
"667 -41 OFFCURVE",
"712 13 OFFCURVE",
"712 35 CURVE SMOOTH",
"712 40 OFFCURVE",
"711 43 OFFCURVE",
"708 43 CURVE SMOOTH",
"704 43 OFFCURVE",
"694 33 OFFCURVE",
"689 33 CURVE SMOOTH",
"680 33 OFFCURVE",
"642 60 OFFCURVE",
"635 71 CURVE",
"639 76 OFFCURVE",
"733 138 OFFCURVE",
"733 184 CURVE SMOOTH",
"733 205 OFFCURVE",
"722 237 OFFCURVE",
"686 257 CURVE",
"715 276 OFFCURVE",
"746 312 OFFCURVE",
"746 363 CURVE SMOOTH",
"746 515 OFFCURVE",
"590 617 OFFCURVE",
"410 617 CURVE SMOOTH",
"221 617 OFFCURVE",
"50 505 OFFCURVE",
"50 371 CURVE SMOOTH",
"50 288 OFFCURVE",
"131 234 OFFCURVE",
"166 234 CURVE",
"228 321 LINE",
"190 321 OFFCURVE",
"169 346 OFFCURVE",
"169 377 CURVE SMOOTH",
"169 450 OFFCURVE",
"268 526 OFFCURVE",
"399 526 CURVE SMOOTH",
"530 526 OFFCURVE",
"631 445 OFFCURVE",
"631 348 CURVE SMOOTH",
"631 285 OFFCURVE",
"536 267 OFFCURVE",
"536 239 CURVE SMOOTH",
"536 233 OFFCURVE",
"540 228 OFFCURVE",
"546 228 CURVE SMOOTH",
"554 228 OFFCURVE",
"572 236 OFFCURVE",
"586 236 CURVE SMOOTH",
"609 236 OFFCURVE",
"620 210 OFFCURVE",
"620 192 CURVE SMOOTH",
"620 159 OFFCURVE",
"533 103 OFFCURVE",
"533 86 CURVE SMOOTH",
"533 64 OFFCURVE",
"596 -41 OFFCURVE",
"635 -41 CURVE SMOOTH"
);
},
{
closed = 1;
nodes = (
"233 81 OFFCURVE",
"217 145 OFFCURVE",
"217 185 CURVE SMOOTH",
"217 236 OFFCURVE",
"261 264 OFFCURVE",
"302 264 CURVE SMOOTH",
"347 264 OFFCURVE",
"366 203 OFFCURVE",
"366 161 CURVE SMOOTH",
"366 109 OFFCURVE",
"320 81 OFFCURVE",
"280 81 CURVE SMOOTH"
);
},
{
closed = 1;
nodes = (
"369 -4 OFFCURVE",
"472 85 OFFCURVE",
"472 198 CURVE SMOOTH",
"472 296 OFFCURVE",
"405 356 OFFCURVE",
"316 356 CURVE SMOOTH",
"187 356 OFFCURVE",
"122 231 OFFCURVE",
"122 140 CURVE SMOOTH",
"122 51 OFFCURVE",
"174 -4 OFFCURVE",
"263 -4 CURVE SMOOTH"
);
}
);
width = 786.03279;
}
);
unicode = 0B0B;
},
{
glyphname = "rrVocalic-oriya";
lastChange = "2022-01-22 11:09:28 +0000";
layers = (
{
background = {
paths = (
{
closed = 1;
nodes = (
"201 617 OFFCURVE",
"40 505 OFFCURVE",
"40 368 CURVE SMOOTH",
"40 295 OFFCURVE",
"121 234 OFFCURVE",
"156 234 CURVE",
"218 321 LINE",
"180 321 OFFCURVE",
"159 346 OFFCURVE",
"159 377 CURVE SMOOTH",
"159 450 OFFCURVE",
"258 526 OFFCURVE",
"389 526 CURVE SMOOTH",
"512 526 OFFCURVE",
"620 442 OFFCURVE",
"620 352 CURVE SMOOTH",
"620 296 OFFCURVE",
"554 280 OFFCURVE",
"554 252 CURVE SMOOTH",
"554 247 OFFCURVE",
"556 245 OFFCURVE",
"560 245 CURVE SMOOTH",
"566 245 OFFCURVE",
"577 252 OFFCURVE",
"593 252 CURVE SMOOTH",
"605 252 OFFCURVE",
"620 230 OFFCURVE",
"620 219 CURVE SMOOTH",
"620 207 OFFCURVE",
"543 192 OFFCURVE",
"543 158 CURVE SMOOTH",
"543 153 OFFCURVE",
"545 151 OFFCURVE",
"548 151 CURVE SMOOTH",
"554 151 OFFCURVE",
"570 159 OFFCURVE",
"579 159 CURVE SMOOTH",
"593 159 OFFCURVE",
"603 142 OFFCURVE",
"603 135 CURVE SMOOTH",
"603 125 OFFCURVE",
"543 98 OFFCURVE",
"543 86 CURVE SMOOTH",
"543 64 OFFCURVE",
"606 -41 OFFCURVE",
"645 -41 CURVE SMOOTH",
"667 -41 OFFCURVE",
"722 5 OFFCURVE",
"722 35 CURVE SMOOTH",
"722 40 OFFCURVE",
"721 43 OFFCURVE",
"718 43 CURVE SMOOTH",
"714 43 OFFCURVE",
"704 33 OFFCURVE",
"699 33 CURVE SMOOTH",
"690 33 OFFCURVE",
"652 60 OFFCURVE",
"645 71 CURVE",
"650 75 OFFCURVE",
"709 102 OFFCURVE",
"709 131 CURVE SMOOTH",
"709 147 OFFCURVE",
"690 163 OFFCURVE",
"677 167 CURVE",
"701 174 OFFCURVE",
"728 196 OFFCURVE",
"728 225 CURVE SMOOTH",
"728 238 OFFCURVE",
"718 259 OFFCURVE",
"690 274 CURVE",
"698 280 OFFCURVE",
"736 317 OFFCURVE",
"736 361 CURVE SMOOTH",
"736 513 OFFCURVE",
"559 617 OFFCURVE",
"390 617 CURVE SMOOTH"
);
},
{
closed = 1;
nodes = (
"177 356 OFFCURVE",
"112 231 OFFCURVE",
"112 140 CURVE SMOOTH",
"112 51 OFFCURVE",
"164 -4 OFFCURVE",
"253 -4 CURVE SMOOTH",
"359 -4 OFFCURVE",
"462 85 OFFCURVE",
"462 198 CURVE SMOOTH",
"462 297 OFFCURVE",
"395 356 OFFCURVE",
"306 356 CURVE SMOOTH"
);
},
{
closed = 1;
nodes = (
"338 264 OFFCURVE",
"356 203 OFFCURVE",
"356 161 CURVE SMOOTH",
"356 109 OFFCURVE",
"310 81 OFFCURVE",
"270 81 CURVE SMOOTH",
"223 81 OFFCURVE",
"207 145 OFFCURVE",
"207 185 CURVE SMOOTH",
"207 236 OFFCURVE",
"251 264 OFFCURVE",
"292 264 CURVE SMOOTH"
);
}
);
};
layerId = "555B79C6-6D98-46E7-9307-77C37975E414";
paths = (
{
closed = 1;
nodes = (
"681 -50 OFFCURVE",
"735 12 OFFCURVE",
"735 42 CURVE SMOOTH",
"735 47 OFFCURVE",
"734 58 OFFCURVE",
"728 58 CURVE SMOOTH",
"724 58 OFFCURVE",
"709 44 OFFCURVE",
"704 44 CURVE SMOOTH",
"695 44 OFFCURVE",
"667 60 OFFCURVE",
"660 71 CURVE",
"671 76 OFFCURVE",
"724 100 OFFCURVE",
"724 131 CURVE SMOOTH",
"724 149 OFFCURVE",
"705 163 OFFCURVE",
"692 167 CURVE",
"716 174 OFFCURVE",
"743 196 OFFCURVE",
"743 225 CURVE SMOOTH",
"743 238 OFFCURVE",
"733 259 OFFCURVE",
"705 274 CURVE",
"713 280 OFFCURVE",
"751 317 OFFCURVE",
"751 361 CURVE SMOOTH",
"751 513 OFFCURVE",
"573 627 OFFCURVE",
"390 627 CURVE SMOOTH",
"191 627 OFFCURVE",
"40 506 OFFCURVE",
"40 368 CURVE SMOOTH",
"40 271 OFFCURVE",
"140 218 OFFCURVE",
"175 218 CURVE",
"237 331 LINE",
"207 331 OFFCURVE",
"193 356 OFFCURVE",
"193 377 CURVE SMOOTH",
"193 434 OFFCURVE",
"255 506 OFFCURVE",
"389 506 CURVE SMOOTH",
"510 506 OFFCURVE",
"607 438 OFFCURVE",
"607 352 CURVE SMOOTH",
"607 298 OFFCURVE",
"541 283 OFFCURVE",
"541 250 CURVE SMOOTH",
"541 242 OFFCURVE",
"546 239 OFFCURVE",
"551 239 CURVE SMOOTH",
"559 239 OFFCURVE",
"568 246 OFFCURVE",
"581 246 CURVE SMOOTH",
"593 246 OFFCURVE",
"607 230 OFFCURVE",
"607 219 CURVE SMOOTH",
"607 207 OFFCURVE",
"532 192 OFFCURVE",
"532 158 CURVE SMOOTH",
"532 150 OFFCURVE",
"536 146 OFFCURVE",
"541 146 CURVE SMOOTH",
"547 146 OFFCURVE",
"563 154 OFFCURVE",
"572 154 CURVE SMOOTH",
"582 154 OFFCURVE",
"592 142 OFFCURVE",
"592 135 CURVE SMOOTH",
"592 125 OFFCURVE",
"533 99 OFFCURVE",
"533 87 CURVE SMOOTH",
"533 57 OFFCURVE",
"600 -50 OFFCURVE",
"642 -50 CURVE SMOOTH"
);
},
{
closed = 1;
nodes = (
"231 94 OFFCURVE",
"217 149 OFFCURVE",
"217 183 CURVE SMOOTH",
"217 227 OFFCURVE",
"255 251 OFFCURVE",
"291 251 CURVE SMOOTH",
"329 251 OFFCURVE",
"346 199 OFFCURVE",
"346 163 CURVE SMOOTH",
"346 118 OFFCURVE",
"306 94 OFFCURVE",
"272 94 CURVE SMOOTH"
);
},
{
closed = 1;
nodes = (
"365 -18 OFFCURVE",
"476 78 OFFCURVE",
"476 200 CURVE SMOOTH",
"476 305 OFFCURVE",
"404 370 OFFCURVE",
"307 370 CURVE SMOOTH",
"168 370 OFFCURVE",
"98 235 OFFCURVE",
"98 137 CURVE SMOOTH",
"98 41 OFFCURVE",
"154 -18 OFFCURVE",
"250 -18 CURVE SMOOTH"
);
}
);
width = 771;
},
{
layerId = "08AC27E4-54F0-4C9D-B904-08FC42541096";
paths = (
{
closed = 1;
nodes = (
"677 -41 OFFCURVE",
"732 5 OFFCURVE",
"732 35 CURVE SMOOTH",
"732 40 OFFCURVE",
"731 43 OFFCURVE",
"728 43 CURVE SMOOTH",
"724 43 OFFCURVE",
"714 33 OFFCURVE",
"709 33 CURVE SMOOTH",
"700 33 OFFCURVE",
"662 60 OFFCURVE",
"655 71 CURVE",
"660 75 OFFCURVE",
"719 102 OFFCURVE",
"719 131 CURVE SMOOTH",
"719 147 OFFCURVE",
"700 163 OFFCURVE",
"687 167 CURVE",
"711 174 OFFCURVE",
"738 196 OFFCURVE",
"738 225 CURVE SMOOTH",
"738 238 OFFCURVE",
"728 259 OFFCURVE",
"700 274 CURVE",
"708 280 OFFCURVE",
"746 317 OFFCURVE",
"746 361 CURVE SMOOTH",
"746 513 OFFCURVE",
"569 617 OFFCURVE",
"400 617 CURVE SMOOTH",
"211 617 OFFCURVE",
"50 505 OFFCURVE",
"50 368 CURVE SMOOTH",
"50 295 OFFCURVE",
"131 234 OFFCURVE",
"166 234 CURVE",
"228 321 LINE",
"190 321 OFFCURVE",
"169 346 OFFCURVE",
"169 377 CURVE SMOOTH",
"169 450 OFFCURVE",
"268 526 OFFCURVE",
"399 526 CURVE SMOOTH",
"522 526 OFFCURVE",
"630 442 OFFCURVE",
"630 352 CURVE SMOOTH",
"630 296 OFFCURVE",
"564 280 OFFCURVE",
"564 252 CURVE SMOOTH",
"564 247 OFFCURVE",
"566 245 OFFCURVE",
"570 245 CURVE SMOOTH",
"576 245 OFFCURVE",
"587 252 OFFCURVE",
"603 252 CURVE SMOOTH",
"615 252 OFFCURVE",
"630 230 OFFCURVE",
"630 219 CURVE SMOOTH",
"630 207 OFFCURVE",
"553 192 OFFCURVE",
"553 158 CURVE SMOOTH",
"553 153 OFFCURVE",
"555 151 OFFCURVE",
"558 151 CURVE SMOOTH",
"564 151 OFFCURVE",
"580 159 OFFCURVE",
"589 159 CURVE SMOOTH",
"603 159 OFFCURVE",
"613 142 OFFCURVE",
"613 135 CURVE SMOOTH",
"613 125 OFFCURVE",
"553 98 OFFCURVE",
"553 86 CURVE SMOOTH",
"553 64 OFFCURVE",
"616 -41 OFFCURVE",
"655 -41 CURVE SMOOTH"
);
},
{
closed = 1;
nodes = (
"233 81 OFFCURVE",
"217 145 OFFCURVE",
"217 185 CURVE SMOOTH",
"217 236 OFFCURVE",
"261 264 OFFCURVE",
"302 264 CURVE SMOOTH",
"348 264 OFFCURVE",
"366 203 OFFCURVE",
"366 161 CURVE SMOOTH",
"366 109 OFFCURVE",
"320 81 OFFCURVE",
"280 81 CURVE SMOOTH"
);
},
{
closed = 1;
nodes = (
"369 -4 OFFCURVE",
"472 85 OFFCURVE",
"472 198 CURVE SMOOTH",
"472 297 OFFCURVE",
"405 356 OFFCURVE",
"316 356 CURVE SMOOTH",
"187 356 OFFCURVE",
"122 231 OFFCURVE",
"122 140 CURVE SMOOTH",
"122 51 OFFCURVE",
"174 -4 OFFCURVE",
"263 -4 CURVE SMOOTH"
);
}
);
width = 785.7541;
}
);
unicode = 0B60;
},
{
glyphname = "lVocalic-oriya";
lastChange = "2022-01-22 11:09:33 +0000";
layers = (
{
background = {
paths = (
{
closed = 1;
nodes = (
"399 112 OFFCURVE",
"350 140 OFFCURVE",
"350 198 CURVE SMOOTH",
"350 254 OFFCURVE",
"398 292 OFFCURVE",
"467 292 CURVE SMOOTH",
"551 292 OFFCURVE",
"606 246 OFFCURVE",
"606 179 CURVE SMOOTH",
"606 61 OFFCURVE",
"457 -11 OFFCURVE",
"287 -11 CURVE SMOOTH",
"111 -11 OFFCURVE",
"55 56 OFFCURVE",
"55 135 CURVE SMOOTH",
"55 301 OFFCURVE",
"428 382 OFFCURVE",
"428 470 CURVE SMOOTH",
"428 512 OFFCURVE",
"395 528 OFFCURVE",
"333 528 CURVE SMOOTH",
"286 528 OFFCURVE",
"267 514 OFFCURVE",
"267 491 CURVE SMOOTH",
"267 470 OFFCURVE",
"289 459 OFFCURVE",
"304 459 CURVE SMOOTH",
"311 459 OFFCURVE",
"322 474 OFFCURVE",
"328 474 CURVE SMOOTH",
"331 474 OFFCURVE",
"333 472 OFFCURVE",
"333 467 CURVE SMOOTH",
"333 431 OFFCURVE",
"297 372 OFFCURVE",
"267 372 CURVE SMOOTH",
"235 372 OFFCURVE",
"163 420 OFFCURVE",
"163 487 CURVE SMOOTH",
"163 563 OFFCURVE",
"247 619 OFFCURVE",
"341 619 CURVE SMOOTH",
"466 619 OFFCURVE",
"529 555 OFFCURVE",
"529 475 CURVE SMOOTH",
"529 301 OFFCURVE",
"174 240 OFFCURVE",
"174 141 CURVE SMOOTH",
"174 101 OFFCURVE",
"223 80 OFFCURVE",
"294 80 CURVE SMOOTH",
"389 80 OFFCURVE",
"502 109 OFFCURVE",
"502 174 CURVE SMOOTH",
"502 204 OFFCURVE",
"486 219 OFFCURVE",
"462 219 CURVE SMOOTH",
"439 219 OFFCURVE",
"435 200 OFFCURVE",
"435 169 CURVE SMOOTH",
"435 137 OFFCURVE",
"439 112 OFFCURVE",
"417 112 CURVE SMOOTH"
);
}
);
};
layerId = "555B79C6-6D98-46E7-9307-77C37975E414";
paths = (
{
closed = 1;
nodes = (
"472 -21 OFFCURVE",
"616 61 OFFCURVE",
"616 179 CURVE SMOOTH",
"616 246 OFFCURVE",
"563 302 OFFCURVE",
"467 302 CURVE SMOOTH",
"388 302 OFFCURVE",
"335 254 OFFCURVE",
"335 198 CURVE SMOOTH",
"335 140 OFFCURVE",
"393 112 OFFCURVE",
"417 112 CURVE SMOOTH",
"442 112 OFFCURVE",
"445 137 OFFCURVE",
"445 169 CURVE SMOOTH",
"445 195 OFFCURVE",
"447 209 OFFCURVE",
"464 209 CURVE SMOOTH",
"476 209 OFFCURVE",
"492 198 OFFCURVE",
"492 174 CURVE SMOOTH",
"492 113 OFFCURVE",
"389 90 OFFCURVE",
"294 90 CURVE SMOOTH",
"223 90 OFFCURVE",
"184 110 OFFCURVE",
"184 141 CURVE SMOOTH",
"184 240 OFFCURVE",
"539 301 OFFCURVE",
"539 475 CURVE SMOOTH",
"539 555 OFFCURVE",
"476 629 OFFCURVE",
"341 629 CURVE SMOOTH",
"247 629 OFFCURVE",
"153 573 OFFCURVE",
"153 487 CURVE SMOOTH",
"153 410 OFFCURVE",
"230 367 OFFCURVE",
"267 367 CURVE SMOOTH",
"305 367 OFFCURVE",
"338 430 OFFCURVE",
"338 464 CURVE SMOOTH",
"338 474 OFFCURVE",
"335 484 OFFCURVE",
"329 484 CURVE SMOOTH",
"324 484 OFFCURVE",
"311 469 OFFCURVE",
"304 469 CURVE SMOOTH",
"294 469 OFFCURVE",
"280 480 OFFCURVE",
"280 491 CURVE SMOOTH",
"280 505 OFFCURVE",
"295 515 OFFCURVE",
"333 515 CURVE SMOOTH",
"388 515 OFFCURVE",
"413 504 OFFCURVE",
"413 470 CURVE SMOOTH",
"413 382 OFFCURVE",
"40 306 OFFCURVE",
"40 135 CURVE SMOOTH",
"40 56 OFFCURVE",
"106 -21 OFFCURVE",
"287 -21 CURVE SMOOTH"
);
}
);
width = 636;
},
{
layerId = "08AC27E4-54F0-4C9D-B904-08FC42541096";
paths = (
{
closed = 1;
nodes = (
"452 -11 OFFCURVE",
"601 61 OFFCURVE",
"601 179 CURVE SMOOTH",
"601 246 OFFCURVE",
"546 292 OFFCURVE",
"462 292 CURVE SMOOTH",
"393 292 OFFCURVE",
"345 254 OFFCURVE",
"345 198 CURVE SMOOTH",
"345 140 OFFCURVE",
"394 112 OFFCURVE",
"412 112 CURVE SMOOTH",
"434 112 OFFCURVE",
"430 137 OFFCURVE",
"430 169 CURVE SMOOTH",
"430 200 OFFCURVE",
"434 219 OFFCURVE",
"457 219 CURVE SMOOTH",
"481 219 OFFCURVE",
"497 204 OFFCURVE",
"497 174 CURVE SMOOTH",
"497 109 OFFCURVE",
"384 80 OFFCURVE",
"289 80 CURVE SMOOTH",
"218 80 OFFCURVE",
"169 101 OFFCURVE",
"169 141 CURVE SMOOTH",
"169 240 OFFCURVE",
"524 301 OFFCURVE",
"524 475 CURVE SMOOTH",
"524 555 OFFCURVE",
"461 619 OFFCURVE",
"336 619 CURVE SMOOTH",
"242 619 OFFCURVE",
"158 563 OFFCURVE",
"158 487 CURVE SMOOTH",
"158 420 OFFCURVE",
"230 372 OFFCURVE",
"262 372 CURVE SMOOTH",
"292 372 OFFCURVE",
"328 431 OFFCURVE",
"328 467 CURVE SMOOTH",
"328 472 OFFCURVE",
"326 474 OFFCURVE",
"323 474 CURVE SMOOTH",
"317 474 OFFCURVE",
"306 459 OFFCURVE",
"299 459 CURVE SMOOTH",
"284 459 OFFCURVE",
"262 470 OFFCURVE",
"262 491 CURVE SMOOTH",
"262 514 OFFCURVE",
"281 528 OFFCURVE",
"328 528 CURVE SMOOTH",
"390 528 OFFCURVE",
"423 512 OFFCURVE",
"423 470 CURVE SMOOTH",
"423 382 OFFCURVE",
"50 301 OFFCURVE",
"50 135 CURVE SMOOTH",
"50 56 OFFCURVE",
"106 -11 OFFCURVE",
"282 -11 CURVE SMOOTH"
);
}
);
width = 640.91803;
}
);
unicode = 0B0C;
},
{
glyphname = "llVocalic-oriya";
lastChange = "2022-01-22 11:09:41 +0000";
layers = (
{
background = {
paths = (
{
closed = 1;
nodes = (
"340 67 OFFCURVE",
"453 -64 OFFCURVE",
"500 -64 CURVE SMOOTH",
"532 -64 OFFCURVE",
"577 -10 OFFCURVE",
"577 12 CURVE SMOOTH",
"577 17 OFFCURVE",
"576 20 OFFCURVE",
"573 20 CURVE SMOOTH",
"569 20 OFFCURVE",
"559 10 OFFCURVE",
"554 10 CURVE SMOOTH",
"532 10 OFFCURVE",
"430 66 OFFCURVE",
"430 170 CURVE SMOOTH",
"430 190 OFFCURVE",
"432 219 OFFCURVE",
"459 219 CURVE SMOOTH",
"482 219 OFFCURVE",
"497 204 OFFCURVE",
"497 174 CURVE SMOOTH",
"497 109 OFFCURVE",
"384 80 OFFCURVE",
"289 80 CURVE SMOOTH",
"218 80 OFFCURVE",
"169 101 OFFCURVE",
"169 141 CURVE SMOOTH",
"169 240 OFFCURVE",
"524 301 OFFCURVE",
"524 475 CURVE SMOOTH",
"524 555 OFFCURVE",
"461 619 OFFCURVE",
"336 619 CURVE SMOOTH",
"242 619 OFFCURVE",
"158 563 OFFCURVE",
"158 487 CURVE SMOOTH",
"158 420 OFFCURVE",
"230 372 OFFCURVE",
"262 372 CURVE SMOOTH",
"292 372 OFFCURVE",
"327 431 OFFCURVE",
"327 468 CURVE SMOOTH",
"327 471 OFFCURVE",
"326 474 OFFCURVE",
"323 474 CURVE SMOOTH",
"317 474 OFFCURVE",
"309 459 OFFCURVE",
"299 459 CURVE SMOOTH",
"284 459 OFFCURVE",
"262 470 OFFCURVE",
"262 491 CURVE SMOOTH",
"262 514 OFFCURVE",
"281 528 OFFCURVE",
"328 528 CURVE SMOOTH",
"390 528 OFFCURVE",
"423 512 OFFCURVE",
"423 470 CURVE SMOOTH",
"423 382 OFFCURVE",
"50 301 OFFCURVE",
"50 135 CURVE SMOOTH",
"50 56 OFFCURVE",
"106 -11 OFFCURVE",
"282 -11 CURVE SMOOTH",
"452 -11 OFFCURVE",
"591 70 OFFCURVE",
"591 179 CURVE SMOOTH",
"591 246 OFFCURVE",
"536 292 OFFCURVE",
"462 292 CURVE SMOOTH",
"393 292 OFFCURVE",
"340 255 OFFCURVE",
"340 175 CURVE SMOOTH"
);
},
{
closed = 1;
nodes = (
"393 112 OFFCURVE",
"335 140 OFFCURVE",
"335 198 CURVE SMOOTH",
"335 254 OFFCURVE",
"388 302 OFFCURVE",
"467 302 CURVE SMOOTH",
"563 302 OFFCURVE",
"616 246 OFFCURVE",
"616 179 CURVE SMOOTH",
"616 61 OFFCURVE",
"472 -21 OFFCURVE",
"287 -21 CURVE SMOOTH",
"106 -21 OFFCURVE",
"40 56 OFFCURVE",
"40 135 CURVE SMOOTH",
"40 306 OFFCURVE",
"413 382 OFFCURVE",
"413 470 CURVE SMOOTH",
"413 504 OFFCURVE",
"388 515 OFFCURVE",
"333 515 CURVE SMOOTH",
"295 515 OFFCURVE",
"280 505 OFFCURVE",
"280 491 CURVE SMOOTH",
"280 480 OFFCURVE",
"294 469 OFFCURVE",
"304 469 CURVE SMOOTH",
"311 469 OFFCURVE",
"324 484 OFFCURVE",
"329 484 CURVE SMOOTH",
"335 484 OFFCURVE",
"338 474 OFFCURVE",
"338 464 CURVE SMOOTH",
"338 430 OFFCURVE",
"305 367 OFFCURVE",
"267 367 CURVE SMOOTH",
"230 367 OFFCURVE",
"153 410 OFFCURVE",
"153 487 CURVE SMOOTH",
"153 573 OFFCURVE",
"247 629 OFFCURVE",
"341 629 CURVE SMOOTH",
"476 629 OFFCURVE",
"539 555 OFFCURVE",
"539 475 CURVE SMOOTH",
"539 301 OFFCURVE",
"184 240 OFFCURVE",
"184 141 CURVE SMOOTH",
"184 110 OFFCURVE",
"223 90 OFFCURVE",
"294 90 CURVE SMOOTH",
"389 90 OFFCURVE",
"492 113 OFFCURVE",
"492 174 CURVE SMOOTH",
"492 198 OFFCURVE",
"476 209 OFFCURVE",
"464 209 CURVE SMOOTH",
"447 209 OFFCURVE",
"445 195 OFFCURVE",
"445 169 CURVE SMOOTH",
"445 137 OFFCURVE",
"442 112 OFFCURVE",
"417 112 CURVE SMOOTH"
);
}
);
};
layerId = "555B79C6-6D98-46E7-9307-77C37975E414";
paths = (
{
closed = 1;
nodes = (
"532 -79 OFFCURVE",
"584 -15 OFFCURVE",
"584 12 CURVE SMOOTH",
"584 21 OFFCURVE",
"582 30 OFFCURVE",
"575 30 CURVE SMOOTH",
"569 30 OFFCURVE",
"559 20 OFFCURVE",
"554 20 CURVE SMOOTH",
"532 20 OFFCURVE",
"445 65 OFFCURVE",
"445 169 CURVE SMOOTH",
"445 195 OFFCURVE",
"447 209 OFFCURVE",
"464 209 CURVE SMOOTH",
"476 209 OFFCURVE",
"492 198 OFFCURVE",
"492 174 CURVE SMOOTH",
"492 113 OFFCURVE",
"389 90 OFFCURVE",
"294 90 CURVE SMOOTH",
"223 90 OFFCURVE",
"184 110 OFFCURVE",
"184 141 CURVE SMOOTH",
"184 240 OFFCURVE",
"539 301 OFFCURVE",
"539 475 CURVE SMOOTH",
"539 555 OFFCURVE",
"476 629 OFFCURVE",
"341 629 CURVE SMOOTH",
"247 629 OFFCURVE",
"153 573 OFFCURVE",
"153 487 CURVE SMOOTH",
"153 410 OFFCURVE",
"226 367 OFFCURVE",
"263 367 CURVE SMOOTH",
"301 367 OFFCURVE",
"334 430 OFFCURVE",
"334 464 CURVE SMOOTH",
"334 474 OFFCURVE",
"331 484 OFFCURVE",
"325 484 CURVE SMOOTH",
"320 484 OFFCURVE",
"307 469 OFFCURVE",
"300 469 CURVE SMOOTH",
"290 469 OFFCURVE",
"280 480 OFFCURVE",
"280 491 CURVE SMOOTH",
"280 505 OFFCURVE",
"295 515 OFFCURVE",
"333 515 CURVE SMOOTH",
"388 515 OFFCURVE",
"413 504 OFFCURVE",
"413 470 CURVE SMOOTH",
"413 382 OFFCURVE",
"40 306 OFFCURVE",
"40 135 CURVE SMOOTH",
"40 56 OFFCURVE",
"111 -21 OFFCURVE",
"287 -21 CURVE SMOOTH",
"472 -21 OFFCURVE",
"616 61 OFFCURVE",
"616 179 CURVE SMOOTH",
"616 246 OFFCURVE",
"563 302 OFFCURVE",
"467 302 CURVE SMOOTH",
"388 302 OFFCURVE",
"335 255 OFFCURVE",
"335 175 CURVE SMOOTH",
"335 67 OFFCURVE",
"443 -79 OFFCURVE",
"500 -79 CURVE SMOOTH"
);
}
);
width = 636;
},
{
layerId = "08AC27E4-54F0-4C9D-B904-08FC42541096";
paths = (
{
closed = 1;
nodes = (
"532 -64 OFFCURVE",
"577 -10 OFFCURVE",
"577 12 CURVE SMOOTH",
"577 17 OFFCURVE",
"576 20 OFFCURVE",
"573 20 CURVE SMOOTH",
"569 20 OFFCURVE",
"559 10 OFFCURVE",
"554 10 CURVE SMOOTH",
"532 10 OFFCURVE",
"430 66 OFFCURVE",
"430 170 CURVE SMOOTH",
"430 190 OFFCURVE",
"432 219 OFFCURVE",
"459 219 CURVE SMOOTH",
"482 219 OFFCURVE",
"497 204 OFFCURVE",
"497 174 CURVE SMOOTH",
"497 109 OFFCURVE",
"384 80 OFFCURVE",
"289 80 CURVE SMOOTH",
"218 80 OFFCURVE",
"169 101 OFFCURVE",
"169 141 CURVE SMOOTH",
"169 240 OFFCURVE",
"524 301 OFFCURVE",
"524 475 CURVE SMOOTH",
"524 555 OFFCURVE",
"461 619 OFFCURVE",
"336 619 CURVE SMOOTH",
"242 619 OFFCURVE",
"158 563 OFFCURVE",
"158 487 CURVE SMOOTH",
"158 420 OFFCURVE",
"230 372 OFFCURVE",
"262 372 CURVE SMOOTH",
"292 372 OFFCURVE",
"327 431 OFFCURVE",
"327 468 CURVE SMOOTH",
"327 471 OFFCURVE",
"326 474 OFFCURVE",
"323 474 CURVE SMOOTH",
"317 474 OFFCURVE",
"309 459 OFFCURVE",
"299 459 CURVE SMOOTH",
"284 459 OFFCURVE",
"262 470 OFFCURVE",
"262 491 CURVE SMOOTH",
"262 514 OFFCURVE",
"281 528 OFFCURVE",
"328 528 CURVE SMOOTH",
"390 528 OFFCURVE",
"423 512 OFFCURVE",
"423 470 CURVE SMOOTH",
"423 382 OFFCURVE",
"50 301 OFFCURVE",
"50 135 CURVE SMOOTH",
"50 56 OFFCURVE",
"106 -11 OFFCURVE",
"282 -11 CURVE SMOOTH",
"452 -11 OFFCURVE",
"591 70 OFFCURVE",
"591 179 CURVE SMOOTH",
"591 246 OFFCURVE",
"536 292 OFFCURVE",
"462 292 CURVE SMOOTH",
"393 292 OFFCURVE",
"340 255 OFFCURVE",
"340 175 CURVE SMOOTH",
"340 67 OFFCURVE",
"453 -64 OFFCURVE",
"500 -64 CURVE SMOOTH"
);
}
);
width = 631.08197;
}
);
unicode = 0B61;
},
{
glyphname = "e-oriya";
lastChange = "2022-01-22 11:09:49 +0000";
layers = (
{
background = {
paths = (
{
closed = 1;
nodes = (
"511 22 OFFCURVE",
"522 0 OFFCURVE",
"538 0 CURVE SMOOTH",
"555 0 OFFCURVE",
"615 64 OFFCURVE",
"615 84 CURVE SMOOTH",
"615 102 OFFCURVE",
"591 109 OFFCURVE",
"591 132 CURVE SMOOTH",
"591 188 OFFCURVE",
"637 434 OFFCURVE",
"637 533 CURVE SMOOTH",
"637 594 OFFCURVE",
"615 611 OFFCURVE",
"558 611 CURVE SMOOTH",
"399 611 OFFCURVE",
"254 507 OFFCURVE",
"254 434 CURVE SMOOTH",
"254 372 OFFCURVE",
"312 299 OFFCURVE",
"354 299 CURVE SMOOTH",
"386 299 OFFCURVE",
"428 357 OFFCURVE",
"428 394 CURVE SMOOTH",
"428 401 OFFCURVE",
"426 403 OFFCURVE",
"423 403 CURVE SMOOTH",
"416 403 OFFCURVE",
"406 388 OFFCURVE",
"399 388 CURVE SMOOTH",
"375 388 OFFCURVE",
"351 417 OFFCURVE",
"351 431 CURVE SMOOTH",
"351 459 OFFCURVE",
"449 509 OFFCURVE",
"511 509 CURVE SMOOTH",
"530 509 OFFCURVE",
"535 503 OFFCURVE",
"535 480 CURVE SMOOTH",
"535 419 OFFCURVE",
"490 199 OFFCURVE",
"489 113 CURVE",
"305 113 OFFCURVE",
"176 237 OFFCURVE",
"176 353 CURVE SMOOTH",
"176 455 OFFCURVE",
"224 567 OFFCURVE",
"224 589 CURVE SMOOTH",
"224 602 OFFCURVE",
"218 606 OFFCURVE",
"211 606 CURVE SMOOTH",
"175 606 OFFCURVE",
"58 488 OFFCURVE",
"58 334 CURVE SMOOTH",
"58 177 OFFCURVE",
"183 22 OFFCURVE",
"484 22 CURVE SMOOTH"
);
}
);
};
layerId = "555B79C6-6D98-46E7-9307-77C37975E414";
paths = (
{
closed = 1;
nodes = (
"560 -13 OFFCURVE",
"627 54 OFFCURVE",
"627 84 CURVE SMOOTH",
"627 102 OFFCURVE",
"603 109 OFFCURVE",
"603 132 CURVE SMOOTH",
"603 188 OFFCURVE",
"646 434 OFFCURVE",
"649 533 CURVE SMOOTH",
"651 596 OFFCURVE",
"627 621 OFFCURVE",
"558 621 CURVE SMOOTH",
"399 621 OFFCURVE",
"239 517 OFFCURVE",
"239 434 CURVE SMOOTH",
"239 359 OFFCURVE",
"312 281 OFFCURVE",
"354 281 CURVE SMOOTH",
"393 281 OFFCURVE",
"436 357 OFFCURVE",
"436 388 CURVE SMOOTH",
"436 401 OFFCURVE",
"434 413 OFFCURVE",
"425 413 CURVE SMOOTH",
"418 413 OFFCURVE",
"406 398 OFFCURVE",
"399 398 CURVE SMOOTH",
"388 398 OFFCURVE",
"366 417 OFFCURVE",
"366 431 CURVE SMOOTH",
"366 453 OFFCURVE",
"449 494 OFFCURVE",
"507 494 CURVE SMOOTH",
"518 494 OFFCURVE",
"520 489 OFFCURVE",
"520 478 CURVE SMOOTH",
"520 419 OFFCURVE",
"475 214 OFFCURVE",
"474 128 CURVE",
"337 128 OFFCURVE",
"191 237 OFFCURVE",
"191 353 CURVE SMOOTH",
"191 455 OFFCURVE",
"234 551 OFFCURVE",
"234 589 CURVE SMOOTH",
"234 606 OFFCURVE",
"227 619 OFFCURVE",
"211 619 CURVE SMOOTH",
"173 619 OFFCURVE",
"40 503 OFFCURVE",
"40 334 CURVE SMOOTH",
"40 161 OFFCURVE",
"183 9 OFFCURVE",
"484 9 CURVE SMOOTH",
"511 9 OFFCURVE",
"522 -13 OFFCURVE",
"538 -13 CURVE SMOOTH"
);
}
);
width = 669;
},
{
layerId = "08AC27E4-54F0-4C9D-B904-08FC42541096";
paths = (
{
closed = 1;
nodes = (
"547 0 OFFCURVE",
"605 64 OFFCURVE",
"607 84 CURVE SMOOTH",
"609 102 OFFCURVE",
"583 109 OFFCURVE",
"583 132 CURVE SMOOTH",
"583 188 OFFCURVE",
"629 434 OFFCURVE",
"629 533 CURVE SMOOTH",
"629 594 OFFCURVE",
"607 611 OFFCURVE",
"550 611 CURVE SMOOTH",
"391 611 OFFCURVE",
"246 507 OFFCURVE",
"246 434 CURVE SMOOTH",
"246 372 OFFCURVE",
"304 299 OFFCURVE",
"346 299 CURVE SMOOTH",
"378 299 OFFCURVE",
"420 357 OFFCURVE",
"420 394 CURVE SMOOTH",
"420 401 OFFCURVE",
"418 403 OFFCURVE",
"415 403 CURVE SMOOTH",
"408 403 OFFCURVE",
"398 388 OFFCURVE",
"391 388 CURVE SMOOTH",
"367 388 OFFCURVE",
"343 417 OFFCURVE",
"343 431 CURVE SMOOTH",
"343 459 OFFCURVE",
"441 509 OFFCURVE",
"503 509 CURVE SMOOTH",
"522 509 OFFCURVE",
"527 503 OFFCURVE",
"527 480 CURVE SMOOTH",
"527 419 OFFCURVE",
"482 199 OFFCURVE",
"481 113 CURVE",
"298 113 OFFCURVE",
"168 237 OFFCURVE",
"168 353 CURVE SMOOTH",
"168 455 OFFCURVE",
"216 567 OFFCURVE",
"216 589 CURVE SMOOTH",
"216 602 OFFCURVE",
"210 606 OFFCURVE",
"203 606 CURVE SMOOTH",
"167 606 OFFCURVE",
"50 488 OFFCURVE",
"50 334 CURVE SMOOTH",
"50 177 OFFCURVE",
"175 22 OFFCURVE",
"476 22 CURVE SMOOTH",
"503 22 OFFCURVE",
"514 0 OFFCURVE",
"530 0 CURVE SMOOTH"
);
}
);
width = 669;
}
);
unicode = 0B0F;
},
{
glyphname = "aiVowel-oriya";
lastChange = "2022-01-22 11:09:53 +0000";
layers = (
{
background = {
paths = (
{
closed = 1;
nodes = (
"596 301 LINE",
"639 257 OFFCURVE",
"691 244 OFFCURVE",
"713 263 CURVE",
"722 377 LINE",
"717 323 OFFCURVE",
"626 349 OFFCURVE",
"596 373 CURVE"
);
},
{
closed = 1;
nodes = (
"503 22 OFFCURVE",
"514 0 OFFCURVE",
"530 0 CURVE SMOOTH",
"547 0 OFFCURVE",
"605 64 OFFCURVE",
"607 84 CURVE SMOOTH",
"609 102 OFFCURVE",
"583 109 OFFCURVE",
"583 132 CURVE SMOOTH",
"583 188 OFFCURVE",
"629 434 OFFCURVE",
"629 533 CURVE SMOOTH",
"629 594 OFFCURVE",
"607 611 OFFCURVE",
"550 611 CURVE SMOOTH",
"391 611 OFFCURVE",
"246 507 OFFCURVE",
"246 434 CURVE SMOOTH",
"246 372 OFFCURVE",
"304 299 OFFCURVE",
"346 299 CURVE SMOOTH",
"378 299 OFFCURVE",
"420 357 OFFCURVE",
"420 394 CURVE SMOOTH",
"420 401 OFFCURVE",
"418 403 OFFCURVE",
"415 403 CURVE SMOOTH",
"408 403 OFFCURVE",
"398 388 OFFCURVE",
"391 388 CURVE SMOOTH",
"367 388 OFFCURVE",
"343 417 OFFCURVE",
"343 431 CURVE SMOOTH",
"343 459 OFFCURVE",
"441 509 OFFCURVE",
"503 509 CURVE SMOOTH",
"522 509 OFFCURVE",
"527 503 OFFCURVE",
"527 480 CURVE SMOOTH",
"527 419 OFFCURVE",
"482 199 OFFCURVE",
"481 113 CURVE",
"297 113 OFFCURVE",
"168 237 OFFCURVE",
"168 353 CURVE SMOOTH",
"168 455 OFFCURVE",
"216 567 OFFCURVE",
"216 589 CURVE SMOOTH",
"216 602 OFFCURVE",
"210 606 OFFCURVE",
"203 606 CURVE SMOOTH",
"167 606 OFFCURVE",
"50 488 OFFCURVE",
"50 334 CURVE SMOOTH",
"50 177 OFFCURVE",
"175 22 OFFCURVE",
"476 22 CURVE SMOOTH"
);
},
{
closed = 1;
nodes = (
"313 712 OFFCURVE",
"380 666 OFFCURVE",
"449 666 CURVE SMOOTH",
"526 666 OFFCURVE",
"724 718 OFFCURVE",
"764 718 CURVE SMOOTH",
"792 718 OFFCURVE",
"802 692 OFFCURVE",
"802 681 CURVE SMOOTH",
"802 658 OFFCURVE",
"778 630 OFFCURVE",
"753 609 CURVE SMOOTH",
"747 604 OFFCURVE",
"745 599 OFFCURVE",
"744 589 CURVE SMOOTH",
"733 483 OFFCURVE",
"694 108 OFFCURVE",
"690 80 CURVE SMOOTH",
"685 43 OFFCURVE",
"677 0 OFFCURVE",
"704 0 CURVE SMOOTH",
"748 0 OFFCURVE",
"807 112 OFFCURVE",
"815 191 CURVE SMOOTH",
"828 326 OFFCURVE",
"843 514 OFFCURVE",
"850 589 CURVE",
"865 603 OFFCURVE",
"911 652 OFFCURVE",
"911 712 CURVE SMOOTH",
"911 762 OFFCURVE",
"869 823 OFFCURVE",
"795 823 CURVE SMOOTH",
"716 823 OFFCURVE",
"507 761 OFFCURVE",
"450 761 CURVE SMOOTH",
"424 761 OFFCURVE",
"404 786 OFFCURVE",
"404 804 CURVE SMOOTH",
"404 821 OFFCURVE",
"434 836 OFFCURVE",
"434 846 CURVE SMOOTH",
"434 852 OFFCURVE",
"421 854 OFFCURVE",
"411 854 CURVE SMOOTH",
"363 854 OFFCURVE",
"313 808 OFFCURVE",
"313 769 CURVE SMOOTH"
);
}
);
};
layerId = "555B79C6-6D98-46E7-9307-77C37975E414";
paths = (
{
closed = 1;
nodes = (
"751 -2 OFFCURVE",
"831 73 OFFCURVE",
"841 189 CURVE SMOOTH",
"854 340 OFFCURVE",
"870 544 OFFCURVE",
"876 588 CURVE",
"891 602 OFFCURVE",
"927 655 OFFCURVE",
"927 712 CURVE SMOOTH",
"927 770 OFFCURVE",
"871 833 OFFCURVE",
"795 833 CURVE SMOOTH",
"713 833 OFFCURVE",
"507 771 OFFCURVE",
"450 771 CURVE SMOOTH",
"433 771 OFFCURVE",
"414 789 OFFCURVE",
"414 804 CURVE SMOOTH",
"414 818 OFFCURVE",
"444 834 OFFCURVE",
"444 846 CURVE SMOOTH",
"444 853 OFFCURVE",
"434 863 OFFCURVE",
"411 863 CURVE SMOOTH",
"358 863 OFFCURVE",
"298 815 OFFCURVE",
"298 769 CURVE SMOOTH",
"298 702 OFFCURVE",
"370 651 OFFCURVE",
"449 651 CURVE SMOOTH",
"536 651 OFFCURVE",
"724 708 OFFCURVE",
"764 708 CURVE SMOOTH",
"782 708 OFFCURVE",
"792 692 OFFCURVE",
"792 681 CURVE SMOOTH",
"792 658 OFFCURVE",
"772 633 OFFCURVE",
"751 612 CURVE SMOOTH",
"745 606 OFFCURVE",
"742 601 OFFCURVE",
"741 590 CURVE SMOOTH",
"731 484 OFFCURVE",
"702 172 OFFCURVE",
"689 78 CURVE SMOOTH",
"684 41 OFFCURVE",
"680 -2 OFFCURVE",
"707 -2 CURVE SMOOTH"
);
},
{
closed = 1;
nodes = (
"560 -13 OFFCURVE",
"627 54 OFFCURVE",
"627 84 CURVE SMOOTH",
"627 102 OFFCURVE",
"603 109 OFFCURVE",
"603 132 CURVE SMOOTH",
"603 188 OFFCURVE",
"646 434 OFFCURVE",
"649 533 CURVE SMOOTH",
"651 596 OFFCURVE",
"627 621 OFFCURVE",
"558 621 CURVE SMOOTH",
"399 621 OFFCURVE",
"239 517 OFFCURVE",
"239 434 CURVE SMOOTH",
"239 359 OFFCURVE",
"312 281 OFFCURVE",
"354 281 CURVE SMOOTH",
"393 281 OFFCURVE",
"436 357 OFFCURVE",
"436 388 CURVE SMOOTH",
"436 401 OFFCURVE",
"434 413 OFFCURVE",
"425 413 CURVE SMOOTH",
"418 413 OFFCURVE",
"406 398 OFFCURVE",
"399 398 CURVE SMOOTH",
"388 398 OFFCURVE",
"366 417 OFFCURVE",
"366 431 CURVE SMOOTH",
"366 453 OFFCURVE",
"449 494 OFFCURVE",
"507 494 CURVE SMOOTH",
"518 494 OFFCURVE",
"520 489 OFFCURVE",
"520 478 CURVE SMOOTH",
"520 419 OFFCURVE",
"475 214 OFFCURVE",
"474 128 CURVE",
"349 128 OFFCURVE",
"191 225 OFFCURVE",
"191 359 CURVE SMOOTH",
"191 455 OFFCURVE",
"234 551 OFFCURVE",
"234 589 CURVE SMOOTH",
"234 606 OFFCURVE",
"227 619 OFFCURVE",
"211 619 CURVE SMOOTH",
"173 619 OFFCURVE",
"40 503 OFFCURVE",
"40 334 CURVE SMOOTH",
"40 161 OFFCURVE",
"183 9 OFFCURVE",
"484 9 CURVE SMOOTH",
"511 9 OFFCURVE",
"522 -13 OFFCURVE",
"538 -13 CURVE SMOOTH"
);
},
{
closed = 1;
nodes = (
"722 392 LINE",
"717 338 OFFCURVE",
"626 364 OFFCURVE",
"596 388 CURVE",
"596 291 LINE",
"639 247 OFFCURVE",
"691 234 OFFCURVE",
"713 253 CURVE"
);
}
);
width = 947;
},
{
layerId = "08AC27E4-54F0-4C9D-B904-08FC42541096";
paths = (
{
closed = 1;
nodes = (
"748 0 OFFCURVE",
"807 111 OFFCURVE",
"815 191 CURVE SMOOTH",
"828 326 OFFCURVE",
"843 514 OFFCURVE",
"850 589 CURVE",
"865 603 OFFCURVE",
"911 652 OFFCURVE",
"911 712 CURVE SMOOTH",
"911 762 OFFCURVE",
"869 823 OFFCURVE",
"795 823 CURVE SMOOTH",
"716 823 OFFCURVE",
"507 761 OFFCURVE",
"450 761 CURVE SMOOTH",
"424 761 OFFCURVE",
"404 786 OFFCURVE",
"404 804 CURVE SMOOTH",
"404 821 OFFCURVE",
"434 836 OFFCURVE",
"434 846 CURVE SMOOTH",
"434 852 OFFCURVE",
"421 854 OFFCURVE",
"411 854 CURVE SMOOTH",
"363 854 OFFCURVE",
"313 808 OFFCURVE",
"313 769 CURVE SMOOTH",
"313 712 OFFCURVE",
"380 666 OFFCURVE",
"449 666 CURVE SMOOTH",
"526 666 OFFCURVE",
"724 718 OFFCURVE",
"764 718 CURVE SMOOTH",
"792 718 OFFCURVE",
"802 692 OFFCURVE",
"802 681 CURVE SMOOTH",
"802 658 OFFCURVE",
"778 630 OFFCURVE",
"753 609 CURVE SMOOTH",
"747 604 OFFCURVE",
"745 599 OFFCURVE",
"744 589 CURVE SMOOTH",
"733 483 OFFCURVE",
"694 109 OFFCURVE",
"690 80 CURVE SMOOTH",
"685 43 OFFCURVE",
"677 0 OFFCURVE",
"704 0 CURVE SMOOTH"
);
},
{
closed = 1;
nodes = (
"547 0 OFFCURVE",
"605 64 OFFCURVE",
"607 84 CURVE SMOOTH",
"609 102 OFFCURVE",
"583 109 OFFCURVE",
"583 132 CURVE SMOOTH",
"583 188 OFFCURVE",
"629 434 OFFCURVE",
"629 533 CURVE SMOOTH",
"629 594 OFFCURVE",
"607 611 OFFCURVE",
"550 611 CURVE SMOOTH",
"391 611 OFFCURVE",
"246 507 OFFCURVE",
"246 434 CURVE SMOOTH",
"246 372 OFFCURVE",
"304 299 OFFCURVE",
"346 299 CURVE SMOOTH",
"378 299 OFFCURVE",
"420 357 OFFCURVE",
"420 394 CURVE SMOOTH",
"420 401 OFFCURVE",
"418 403 OFFCURVE",
"415 403 CURVE SMOOTH",
"408 403 OFFCURVE",
"398 388 OFFCURVE",
"391 388 CURVE SMOOTH",
"367 388 OFFCURVE",
"343 417 OFFCURVE",
"343 431 CURVE SMOOTH",
"343 459 OFFCURVE",
"441 509 OFFCURVE",
"503 509 CURVE SMOOTH",
"522 509 OFFCURVE",
"527 503 OFFCURVE",
"527 480 CURVE SMOOTH",
"527 419 OFFCURVE",
"482 199 OFFCURVE",
"481 113 CURVE",
"298 113 OFFCURVE",
"168 237 OFFCURVE",
"168 353 CURVE SMOOTH",
"168 455 OFFCURVE",
"216 567 OFFCURVE",
"216 589 CURVE SMOOTH",
"216 602 OFFCURVE",
"210 606 OFFCURVE",
"203 606 CURVE SMOOTH",
"167 606 OFFCURVE",
"50 488 OFFCURVE",
"50 334 CURVE SMOOTH",
"50 177 OFFCURVE",
"175 22 OFFCURVE",
"476 22 CURVE SMOOTH",
"503 22 OFFCURVE",
"514 0 OFFCURVE",
"530 0 CURVE SMOOTH"
);
},
{
closed = 1;
nodes = (
"722 377 LINE",
"717 323 OFFCURVE",
"626 349 OFFCURVE",
"596 373 CURVE",
"596 301 LINE",
"639 257 OFFCURVE",
"691 244 OFFCURVE",
"713 263 CURVE"
);
}
);
width = 897.81967;
}
);
unicode = 0B10;
},
{
glyphname = "oVowel-oriya";
lastChange = "2022-01-22 11:09:57 +0000";
layers = (
{
background = {
paths = (
{
closed = 1;
nodes = (
"482 -5 OFFCURVE",
"597 76 OFFCURVE",
"597 194 CURVE SMOOTH",
"597 261 OFFCURVE",
"555 310 OFFCURVE",
"508 326 CURVE",
"537 340 OFFCURVE",
"594 386 OFFCURVE",
"594 452 CURVE SMOOTH",
"594 543 OFFCURVE",
"514 614 OFFCURVE",
"430 614 CURVE SMOOTH",
"349 614 OFFCURVE",
"279 530 OFFCURVE",
"279 498 CURVE SMOOTH",
"279 465 OFFCURVE",
"327 430 OFFCURVE",
"364 430 CURVE SMOOTH",
"371 430 OFFCURVE",
"376 432 OFFCURVE",
"376 437 CURVE SMOOTH",
"376 443 OFFCURVE",
"363 455 OFFCURVE",
"363 467 CURVE SMOOTH",
"363 489 OFFCURVE",
"395 529 OFFCURVE",
"427 529 CURVE SMOOTH",
"459 529 OFFCURVE",
"506 498 OFFCURVE",
"506 452 CURVE SMOOTH",
"506 395 OFFCURVE",
"434 371 OFFCURVE",
"380 371 CURVE SMOOTH",
"371 371 OFFCURVE",
"368 368 OFFCURVE",
"365 359 CURVE SMOOTH",
"361 345 OFFCURVE",
"357 320 OFFCURVE",
"357 297 CURVE SMOOTH",
"357 288 OFFCURVE",
"360 283 OFFCURVE",
"375 283 CURVE SMOOTH",
"412 283 OFFCURVE",
"485 261 OFFCURVE",
"485 199 CURVE SMOOTH",
"485 130 OFFCURVE",
"409 94 OFFCURVE",
"355 94 CURVE SMOOTH",
"232 94 OFFCURVE",
"169 230 OFFCURVE",
"169 340 CURVE SMOOTH",
"169 439 OFFCURVE",
"219 552 OFFCURVE",
"219 579 CURVE SMOOTH",
"219 588 OFFCURVE",
"214 594 OFFCURVE",
"205 594 CURVE SMOOTH",
"169 594 OFFCURVE",
"55 449 OFFCURVE",
"55 298 CURVE SMOOTH",
"55 175 OFFCURVE",
"119 -5 OFFCURVE",
"347 -5 CURVE SMOOTH"
);
}
);
};
layerId = "555B79C6-6D98-46E7-9307-77C37975E414";
paths = (
{
closed = 1;
nodes = (
"498 -20 OFFCURVE",
"610 71 OFFCURVE",
"610 194 CURVE SMOOTH",
"610 261 OFFCURVE",
"568 310 OFFCURVE",
"521 326 CURVE",
"550 340 OFFCURVE",
"607 380 OFFCURVE",
"607 452 CURVE SMOOTH",
"607 543 OFFCURVE",
"524 624 OFFCURVE",
"430 624 CURVE SMOOTH",
"345 624 OFFCURVE",
"268 543 OFFCURVE",
"268 498 CURVE SMOOTH",
"268 465 OFFCURVE",
"323 420 OFFCURVE",
"365 420 CURVE SMOOTH",
"379 420 OFFCURVE",
"386 426 OFFCURVE",
"386 432 CURVE SMOOTH",
"386 440 OFFCURVE",
"373 453 OFFCURVE",
"373 465 CURVE SMOOTH",
"373 484 OFFCURVE",
"402 514 OFFCURVE",
"427 514 CURVE SMOOTH",
"459 514 OFFCURVE",
"491 485 OFFCURVE",
"491 452 CURVE SMOOTH",
"491 408 OFFCURVE",
"434 385 OFFCURVE",
"380 385 CURVE SMOOTH",
"361 385 OFFCURVE",
"355 376 OFFCURVE",
"351 361 CURVE SMOOTH",
"347 347 OFFCURVE",
"342 320 OFFCURVE",
"342 297 CURVE SMOOTH",
"342 278 OFFCURVE",
"348 268 OFFCURVE",
"368 268 CURVE SMOOTH",
"409 268 OFFCURVE",
"470 248 OFFCURVE",
"470 199 CURVE SMOOTH",
"470 141 OFFCURVE",
"409 109 OFFCURVE",
"356 109 CURVE SMOOTH",
"252 109 OFFCURVE",
"184 230 OFFCURVE",
"184 340 CURVE SMOOTH",
"184 439 OFFCURVE",
"231 547 OFFCURVE",
"231 582 CURVE SMOOTH",
"231 595 OFFCURVE",
"224 606 OFFCURVE",
"210 606 CURVE SMOOTH",
"170 606 OFFCURVE",
"40 458 OFFCURVE",
"40 298 CURVE SMOOTH",
"40 165 OFFCURVE",
"114 -20 OFFCURVE",
"347 -20 CURVE SMOOTH"
);
}
);
width = 630;
},
{
layerId = "08AC27E4-54F0-4C9D-B904-08FC42541096";
paths = (
{
closed = 1;
nodes = (
"477 -5 OFFCURVE",
"592 76 OFFCURVE",
"592 194 CURVE SMOOTH",
"592 261 OFFCURVE",
"550 310 OFFCURVE",
"503 326 CURVE",
"532 340 OFFCURVE",
"589 386 OFFCURVE",
"589 452 CURVE SMOOTH",
"589 543 OFFCURVE",
"509 614 OFFCURVE",
"425 614 CURVE SMOOTH",
"344 614 OFFCURVE",
"274 530 OFFCURVE",
"274 498 CURVE SMOOTH",
"274 465 OFFCURVE",
"322 430 OFFCURVE",
"359 430 CURVE SMOOTH",
"366 430 OFFCURVE",
"371 432 OFFCURVE",
"371 437 CURVE SMOOTH",
"371 443 OFFCURVE",
"358 455 OFFCURVE",
"358 467 CURVE SMOOTH",
"358 489 OFFCURVE",
"390 529 OFFCURVE",
"422 529 CURVE SMOOTH",
"454 529 OFFCURVE",
"501 498 OFFCURVE",
"501 452 CURVE SMOOTH",
"501 395 OFFCURVE",
"429 371 OFFCURVE",
"375 371 CURVE SMOOTH",
"366 371 OFFCURVE",
"363 368 OFFCURVE",
"360 359 CURVE SMOOTH",
"356 345 OFFCURVE",
"352 320 OFFCURVE",
"352 297 CURVE SMOOTH",
"352 288 OFFCURVE",
"355 283 OFFCURVE",
"370 283 CURVE SMOOTH",
"407 283 OFFCURVE",
"480 261 OFFCURVE",
"480 199 CURVE SMOOTH",
"480 130 OFFCURVE",
"404 94 OFFCURVE",
"350 94 CURVE SMOOTH",
"227 94 OFFCURVE",
"164 230 OFFCURVE",
"164 340 CURVE SMOOTH",
"164 439 OFFCURVE",
"214 552 OFFCURVE",
"214 579 CURVE SMOOTH",
"214 588 OFFCURVE",
"209 594 OFFCURVE",
"200 594 CURVE SMOOTH",
"164 594 OFFCURVE",
"50 449 OFFCURVE",
"50 298 CURVE SMOOTH",
"50 175 OFFCURVE",
"114 -5 OFFCURVE",
"342 -5 CURVE SMOOTH"
);
}
);
width = 631.96721;
}
);
unicode = 0B13;
},
{
glyphname = "auVowel-oriya";
lastChange = "2022-01-18 17:15:45 +0000";
layers = (
{
background = {
paths = (
{
closed = 1;
nodes = (
"505 308 LINE",
"548 264 OFFCURVE",
"646 241 OFFCURVE",
"676 260 CURVE",
"676 377 LINE",
"671 323 OFFCURVE",
"535 356 OFFCURVE",
"505 380 CURVE"
);
},
{
closed = 1;
nodes = (
"481 -5 OFFCURVE",
"596 76 OFFCURVE",
"596 194 CURVE SMOOTH",
"596 261 OFFCURVE",
"554 310 OFFCURVE",
"507 326 CURVE",
"536 340 OFFCURVE",
"593 386 OFFCURVE",
"593 452 CURVE SMOOTH",
"593 543 OFFCURVE",
"513 614 OFFCURVE",
"429 614 CURVE SMOOTH",
"348 614 OFFCURVE",
"278 530 OFFCURVE",
"278 498 CURVE SMOOTH",
"278 465 OFFCURVE",
"326 430 OFFCURVE",
"363 430 CURVE SMOOTH",
"370 430 OFFCURVE",
"375 432 OFFCURVE",
"375 437 CURVE SMOOTH",
"375 443 OFFCURVE",
"362 455 OFFCURVE",
"362 467 CURVE SMOOTH",
"362 489 OFFCURVE",
"394 529 OFFCURVE",
"426 529 CURVE SMOOTH",
"458 529 OFFCURVE",
"505 498 OFFCURVE",
"505 452 CURVE SMOOTH",
"505 395 OFFCURVE",
"433 371 OFFCURVE",
"379 371 CURVE SMOOTH",
"370 371 OFFCURVE",
"367 368 OFFCURVE",
"364 359 CURVE SMOOTH",
"360 345 OFFCURVE",
"356 320 OFFCURVE",
"356 297 CURVE SMOOTH",
"356 288 OFFCURVE",
"359 283 OFFCURVE",
"374 283 CURVE SMOOTH",
"411 283 OFFCURVE",
"484 261 OFFCURVE",
"484 199 CURVE SMOOTH",
"484 130 OFFCURVE",
"408 94 OFFCURVE",
"354 94 CURVE SMOOTH",
"231 94 OFFCURVE",
"168 230 OFFCURVE",
"168 340 CURVE SMOOTH",
"168 439 OFFCURVE",
"218 552 OFFCURVE",
"218 579 CURVE SMOOTH",
"218 588 OFFCURVE",
"213 594 OFFCURVE",
"204 594 CURVE SMOOTH",
"168 594 OFFCURVE",
"54 449 OFFCURVE",
"54 298 CURVE SMOOTH",
"54 175 OFFCURVE",
"118 -5 OFFCURVE",
"346 -5 CURVE SMOOTH"
);
},
{
closed = 1;
nodes = (
"267 712 OFFCURVE",
"334 666 OFFCURVE",
"403 666 CURVE SMOOTH",
"480 666 OFFCURVE",
"678 718 OFFCURVE",
"718 718 CURVE SMOOTH",
"746 718 OFFCURVE",
"756 692 OFFCURVE",
"756 681 CURVE SMOOTH",
"756 658 OFFCURVE",
"732 630 OFFCURVE",
"707 609 CURVE SMOOTH",
"701 604 OFFCURVE",
"699 599 OFFCURVE",
"698 589 CURVE SMOOTH",
"687 483 OFFCURVE",
"648 108 OFFCURVE",
"644 80 CURVE SMOOTH",
"639 43 OFFCURVE",
"631 0 OFFCURVE",
"658 0 CURVE SMOOTH",
"702 0 OFFCURVE",
"761 112 OFFCURVE",
"769 191 CURVE SMOOTH",
"782 326 OFFCURVE",
"797 514 OFFCURVE",
"804 589 CURVE",
"819 603 OFFCURVE",
"865 652 OFFCURVE",
"865 712 CURVE SMOOTH",
"865 762 OFFCURVE",
"823 823 OFFCURVE",
"749 823 CURVE SMOOTH",
"670 823 OFFCURVE",
"461 761 OFFCURVE",
"404 761 CURVE SMOOTH",
"378 761 OFFCURVE",
"358 786 OFFCURVE",
"358 804 CURVE SMOOTH",
"358 821 OFFCURVE",
"388 836 OFFCURVE",
"388 846 CURVE SMOOTH",
"388 852 OFFCURVE",
"375 854 OFFCURVE",
"365 854 CURVE SMOOTH",
"317 854 OFFCURVE",
"267 808 OFFCURVE",
"267 769 CURVE SMOOTH"
);
}
);
};
layerId = "555B79C6-6D98-46E7-9307-77C37975E414";
paths = (
{
closed = 1;
nodes = (
"705 -2 OFFCURVE",
"785 73 OFFCURVE",
"795 189 CURVE SMOOTH",
"808 340 OFFCURVE",
"824 544 OFFCURVE",
"830 588 CURVE",
"845 602 OFFCURVE",
"881 655 OFFCURVE",
"881 712 CURVE SMOOTH",
"881 770 OFFCURVE",
"825 833 OFFCURVE",
"749 833 CURVE SMOOTH",
"667 833 OFFCURVE",
"461 771 OFFCURVE",
"404 771 CURVE SMOOTH",
"387 771 OFFCURVE",
"368 789 OFFCURVE",
"368 804 CURVE SMOOTH",
"368 818 OFFCURVE",
"398 834 OFFCURVE",
"398 846 CURVE SMOOTH",
"398 853 OFFCURVE",
"388 863 OFFCURVE",
"365 863 CURVE SMOOTH",
"312 863 OFFCURVE",
"252 815 OFFCURVE",
"252 769 CURVE SMOOTH",
"252 702 OFFCURVE",
"324 651 OFFCURVE",
"403 651 CURVE SMOOTH",
"490 651 OFFCURVE",
"678 708 OFFCURVE",
"718 708 CURVE SMOOTH",
"736 708 OFFCURVE",
"746 692 OFFCURVE",
"746 681 CURVE SMOOTH",
"746 658 OFFCURVE",
"726 633 OFFCURVE",
"705 612 CURVE SMOOTH",
"699 606 OFFCURVE",
"696 601 OFFCURVE",
"695 590 CURVE SMOOTH",
"685 484 OFFCURVE",
"656 172 OFFCURVE",
"643 78 CURVE SMOOTH",
"638 41 OFFCURVE",
"634 -2 OFFCURVE",
"661 -2 CURVE SMOOTH"
);
},
{
closed = 1;
nodes = (
"498 -20 OFFCURVE",
"610 71 OFFCURVE",
"610 194 CURVE SMOOTH",
"610 261 OFFCURVE",
"568 310 OFFCURVE",
"521 326 CURVE",
"550 340 OFFCURVE",
"607 380 OFFCURVE",
"607 452 CURVE SMOOTH",
"607 543 OFFCURVE",
"524 624 OFFCURVE",
"430 624 CURVE SMOOTH",
"345 624 OFFCURVE",
"268 543 OFFCURVE",
"268 498 CURVE SMOOTH",
"268 465 OFFCURVE",
"323 420 OFFCURVE",
"365 420 CURVE SMOOTH",
"379 420 OFFCURVE",
"386 426 OFFCURVE",
"386 432 CURVE SMOOTH",
"386 440 OFFCURVE",
"373 453 OFFCURVE",
"373 465 CURVE SMOOTH",
"373 484 OFFCURVE",
"402 514 OFFCURVE",
"427 514 CURVE SMOOTH",
"459 514 OFFCURVE",
"491 485 OFFCURVE",
"491 452 CURVE SMOOTH",
"491 408 OFFCURVE",
"434 385 OFFCURVE",
"380 385 CURVE SMOOTH",
"361 385 OFFCURVE",
"355 376 OFFCURVE",
"351 361 CURVE SMOOTH",
"347 347 OFFCURVE",
"342 320 OFFCURVE",
"342 297 CURVE SMOOTH",
"342 278 OFFCURVE",
"348 268 OFFCURVE",
"368 268 CURVE SMOOTH",
"409 268 OFFCURVE",
"470 248 OFFCURVE",
"470 199 CURVE SMOOTH",
"470 141 OFFCURVE",
"409 109 OFFCURVE",
"356 109 CURVE SMOOTH",
"252 109 OFFCURVE",
"184 230 OFFCURVE",
"184 340 CURVE SMOOTH",
"184 439 OFFCURVE",
"231 547 OFFCURVE",
"231 582 CURVE SMOOTH",
"231 595 OFFCURVE",
"224 606 OFFCURVE",
"210 606 CURVE SMOOTH",
"170 606 OFFCURVE",
"40 458 OFFCURVE",
"40 298 CURVE SMOOTH",
"40 165 OFFCURVE",
"114 -20 OFFCURVE",
"347 -20 CURVE SMOOTH"
);
},
{
closed = 1;
nodes = (
"676 389 LINE",
"671 335 OFFCURVE",
"535 368 OFFCURVE",
"505 392 CURVE",
"505 293 LINE",
"548 249 OFFCURVE",
"646 226 OFFCURVE",
"676 245 CURVE"
);
}
);
width = 901;
},
{
layerId = "08AC27E4-54F0-4C9D-B904-08FC42541096";
paths = (
{
closed = 1;
nodes = (
"698 0 OFFCURVE",
"757 111 OFFCURVE",
"765 191 CURVE SMOOTH",
"778 326 OFFCURVE",
"794 514 OFFCURVE",
"800 589 CURVE",
"815 603 OFFCURVE",
"861 652 OFFCURVE",
"861 712 CURVE SMOOTH",
"861 762 OFFCURVE",
"819 823 OFFCURVE",
"745 823 CURVE SMOOTH",
"666 823 OFFCURVE",
"457 761 OFFCURVE",
"400 761 CURVE SMOOTH",
"374 761 OFFCURVE",
"354 786 OFFCURVE",
"354 804 CURVE SMOOTH",
"354 821 OFFCURVE",
"384 836 OFFCURVE",
"384 846 CURVE SMOOTH",
"384 852 OFFCURVE",
"371 854 OFFCURVE",
"361 854 CURVE SMOOTH",
"313 854 OFFCURVE",
"263 808 OFFCURVE",
"263 769 CURVE SMOOTH",
"263 712 OFFCURVE",
"330 666 OFFCURVE",
"399 666 CURVE SMOOTH",
"476 666 OFFCURVE",
"674 718 OFFCURVE",
"714 718 CURVE SMOOTH",
"742 718 OFFCURVE",
"752 692 OFFCURVE",
"752 681 CURVE SMOOTH",
"752 658 OFFCURVE",
"728 630 OFFCURVE",
"703 609 CURVE SMOOTH",
"697 604 OFFCURVE",
"695 599 OFFCURVE",
"694 589 CURVE SMOOTH",
"683 483 OFFCURVE",
"644 109 OFFCURVE",
"640 80 CURVE SMOOTH",
"635 43 OFFCURVE",
"627 0 OFFCURVE",
"654 0 CURVE SMOOTH"
);
},
{
closed = 1;
nodes = (
"477 -5 OFFCURVE",
"592 76 OFFCURVE",
"592 194 CURVE SMOOTH",
"592 261 OFFCURVE",
"550 310 OFFCURVE",
"503 326 CURVE",
"532 340 OFFCURVE",
"589 386 OFFCURVE",
"589 452 CURVE SMOOTH",
"589 543 OFFCURVE",
"509 614 OFFCURVE",
"425 614 CURVE SMOOTH",
"344 614 OFFCURVE",
"274 530 OFFCURVE",
"274 498 CURVE SMOOTH",
"274 465 OFFCURVE",
"322 430 OFFCURVE",
"359 430 CURVE SMOOTH",
"366 430 OFFCURVE",
"371 432 OFFCURVE",
"371 437 CURVE SMOOTH",
"371 443 OFFCURVE",
"358 455 OFFCURVE",
"358 467 CURVE SMOOTH",
"358 489 OFFCURVE",
"390 529 OFFCURVE",
"422 529 CURVE SMOOTH",
"454 529 OFFCURVE",
"501 498 OFFCURVE",
"501 452 CURVE SMOOTH",
"501 395 OFFCURVE",
"429 371 OFFCURVE",
"375 371 CURVE SMOOTH",
"366 371 OFFCURVE",
"363 368 OFFCURVE",
"360 359 CURVE SMOOTH",
"356 345 OFFCURVE",
"352 320 OFFCURVE",
"352 297 CURVE SMOOTH",
"352 288 OFFCURVE",
"355 283 OFFCURVE",
"370 283 CURVE SMOOTH",
"407 283 OFFCURVE",
"480 261 OFFCURVE",
"480 199 CURVE SMOOTH",
"480 130 OFFCURVE",
"404 94 OFFCURVE",
"350 94 CURVE SMOOTH",
"227 94 OFFCURVE",
"164 230 OFFCURVE",
"164 340 CURVE SMOOTH",
"164 439 OFFCURVE",
"214 552 OFFCURVE",
"214 579 CURVE SMOOTH",
"214 588 OFFCURVE",
"209 594 OFFCURVE",
"200 594 CURVE SMOOTH",
"164 594 OFFCURVE",
"50 449 OFFCURVE",
"50 298 CURVE SMOOTH",
"50 175 OFFCURVE",
"114 -5 OFFCURVE",
"342 -5 CURVE SMOOTH"
);
},
{
closed = 1;
nodes = (
"672 377 LINE",
"667 323 OFFCURVE",
"531 356 OFFCURVE",
"501 380 CURVE",
"501 308 LINE",
"544 264 OFFCURVE",
"642 241 OFFCURVE",
"672 260 CURVE"
);
}
);
width = 847.88525;
}
);
unicode = 0B14;
},
{
glyphname = "ka-oriya";
lastChange = "2022-01-27 11:51:04 +0000";
layers = (
{
anchors = (
{
name = bottom;
position = "{538, -11}";
},
{
name = top;
position = "{696, 721}";
}
);
background = {
paths = (
{
closed = 1;
nodes = (
"200 342 OFFCURVE",
"144 236 OFFCURVE",
"144 159 CURVE SMOOTH",
"144 82 OFFCURVE",
"188 35 OFFCURVE",
"265 35 CURVE SMOOTH",
"355 35 OFFCURVE",
"443 111 OFFCURVE",
"443 207 CURVE SMOOTH",
"443 293 OFFCURVE",
"385 342 OFFCURVE",
"309 342 CURVE SMOOTH"
);
},
{
closed = 1;
nodes = (
"338 265 OFFCURVE",
"352 212 OFFCURVE",
"352 177 CURVE SMOOTH",
"352 132 OFFCURVE",
"312 108 OFFCURVE",
"279 108 CURVE SMOOTH",
"238 108 OFFCURVE",
"224 162 OFFCURVE",
"224 196 CURVE SMOOTH",
"224 240 OFFCURVE",
"263 265 OFFCURVE",
"297 265 CURVE SMOOTH"
);
},
{
closed = 1;
nodes = (
"465 179 OFFCURVE",
"469 259 OFFCURVE",
"511 258 CURVE SMOOTH",
"570 256 OFFCURVE",
"546 145 OFFCURVE",
"528 30 CURVE SMOOTH",
"525 13 OFFCURVE",
"527 -1 OFFCURVE",
"542 -1 CURVE SMOOTH",
"574 -1 OFFCURVE",
"628 60 OFFCURVE",
"635 121 CURVE SMOOTH",
"644 196 OFFCURVE",
"664 342 OFFCURVE",
"518 342 CURVE SMOOTH",
"381 342 OFFCURVE",
"363 176 OFFCURVE",
"355 30 CURVE SMOOTH",
"354 13 OFFCURVE",
"355 -1 OFFCURVE",
"368 -1 CURVE SMOOTH",
"396 -1 OFFCURVE",
"451 64 OFFCURVE",
"458 121 CURVE SMOOTH"
);
},
{
closed = 1;
nodes = (
"854 506 OFFCURVE",
"671 621 OFFCURVE",
"458 621 CURVE SMOOTH",
"240 621 OFFCURVE",
"50 512 OFFCURVE",
"50 360 CURVE SMOOTH",
"50 275 OFFCURVE",
"136 210 OFFCURVE",
"177 210 CURVE",
"244 315 LINE",
"208 305 OFFCURVE",
"169 329 OFFCURVE",
"169 367 CURVE SMOOTH",
"169 447 OFFCURVE",
"296 526 OFFCURVE",
"440 526 CURVE SMOOTH",
"607 526 OFFCURVE",
"735 431 OFFCURVE",
"735 328 CURVE SMOOTH",
"735 218 OFFCURVE",
"665 166 OFFCURVE",
"665 141 CURVE SMOOTH",
"665 133 OFFCURVE",
"672 130 OFFCURVE",
"679 130 CURVE SMOOTH",
"715 130 OFFCURVE",
"854 206 OFFCURVE",
"854 356 CURVE SMOOTH"
);
}
);
};
layerId = "555B79C6-6D98-46E7-9307-77C37975E414";
paths = (
{
closed = 1;
nodes = (
"731 124 OFFCURVE",
"868 206 OFFCURVE",
"868 356 CURVE SMOOTH",
"868 516 OFFCURVE",
"691 631 OFFCURVE",
"458 631 CURVE SMOOTH",
"230 631 OFFCURVE",
"40 515 OFFCURVE",
"40 360 CURVE SMOOTH",
"40 265 OFFCURVE",
"136 200 OFFCURVE",
"177 200 CURVE",
"244 325 LINE",
"211 319 OFFCURVE",
"189 337 OFFCURVE",
"189 367 CURVE SMOOTH",
"189 432 OFFCURVE",
"293 506 OFFCURVE",
"440 506 CURVE SMOOTH",
"608 506 OFFCURVE",
"719 416 OFFCURVE",
"719 320 CURVE SMOOTH",
"719 223 OFFCURVE",
"663 166 OFFCURVE",
"663 141 CURVE SMOOTH",
"663 129 OFFCURVE",
"673 124 OFFCURVE",
"684 124 CURVE SMOOTH"
);
},
{
closed = 1;
nodes = (
"249 125 OFFCURVE",
"238 167 OFFCURVE",
"238 195 CURVE SMOOTH",
"238 229 OFFCURVE",
"268 248 OFFCURVE",
"295 248 CURVE SMOOTH",
"326 248 OFFCURVE",
"338 206 OFFCURVE",
"338 179 CURVE SMOOTH",
"338 144 OFFCURVE",
"307 125 OFFCURVE",
"280 125 CURVE SMOOTH"
);
},
{
closed = 1;
nodes = (
"360 22 OFFCURVE",
"456 105 OFFCURVE",
"456 210 CURVE SMOOTH",
"456 303 OFFCURVE",
"393 356 OFFCURVE",
"311 356 CURVE SMOOTH",
"190 356 OFFCURVE",
"130 240 OFFCURVE",
"130 157 CURVE SMOOTH",
"130 73 OFFCURVE",
"178 22 OFFCURVE",
"262 22 CURVE SMOOTH"
);
},
{
closed = 1;
nodes = (
"405 -11 OFFCURVE",
"464 54 OFFCURVE",
"472 121 CURVE SMOOTH",
"479 179 OFFCURVE",
"484 243 OFFCURVE",
"511 243 CURVE SMOOTH",
"546 243 OFFCURVE",
"530 144 OFFCURVE",
"513 30 CURVE SMOOTH",
"509 3 OFFCURVE",
"518 -11 OFFCURVE",
"538 -11 CURVE SMOOTH",
"577 -11 OFFCURVE",
"638 54 OFFCURVE",
"646 116 CURVE SMOOTH",
"663 250 OFFCURVE",
"646 356 OFFCURVE",
"521 356 CURVE SMOOTH",
"381 356 OFFCURVE",
"357 196 OFFCURVE",
"340 30 CURVE SMOOTH",
"338 9 OFFCURVE",
"346 -11 OFFCURVE",
"364 -11 CURVE SMOOTH"
);
}
);
width = 888;
},
{
anchors = (
{
name = bottom;
position = "{542, -1}";
},
{
name = top;
position = "{696, 691}";
}
);
layerId = "08AC27E4-54F0-4C9D-B904-08FC42541096";
paths = (
{
closed = 1;
nodes = (
"715 130 OFFCURVE",
"854 206 OFFCURVE",
"854 356 CURVE SMOOTH",
"854 506 OFFCURVE",
"671 621 OFFCURVE",
"458 621 CURVE SMOOTH",
"240 621 OFFCURVE",
"50 512 OFFCURVE",
"50 360 CURVE SMOOTH",
"50 275 OFFCURVE",
"136 210 OFFCURVE",
"177 210 CURVE",
"244 315 LINE",
"208 305 OFFCURVE",
"169 329 OFFCURVE",
"169 367 CURVE SMOOTH",
"169 447 OFFCURVE",
"296 526 OFFCURVE",
"440 526 CURVE SMOOTH",
"607 526 OFFCURVE",
"735 431 OFFCURVE",
"735 328 CURVE SMOOTH",
"735 218 OFFCURVE",
"665 166 OFFCURVE",
"665 141 CURVE SMOOTH",
"665 133 OFFCURVE",
"672 130 OFFCURVE",
"679 130 CURVE SMOOTH"
);
},
{
closed = 1;
nodes = (
"238 108 OFFCURVE",
"224 162 OFFCURVE",
"224 196 CURVE SMOOTH",
"224 240 OFFCURVE",
"263 265 OFFCURVE",
"297 265 CURVE SMOOTH",
"338 265 OFFCURVE",
"352 212 OFFCURVE",
"352 177 CURVE SMOOTH",
"352 132 OFFCURVE",
"312 108 OFFCURVE",
"279 108 CURVE SMOOTH"
);
},
{
closed = 1;
nodes = (
"355 35 OFFCURVE",
"443 111 OFFCURVE",
"443 207 CURVE SMOOTH",
"443 293 OFFCURVE",
"385 342 OFFCURVE",
"309 342 CURVE SMOOTH",
"200 342 OFFCURVE",
"144 236 OFFCURVE",
"144 159 CURVE SMOOTH",
"144 82 OFFCURVE",
"188 35 OFFCURVE",
"265 35 CURVE SMOOTH"
);
},
{
closed = 1;
nodes = (
"396 -1 OFFCURVE",
"451 64 OFFCURVE",
"458 121 CURVE SMOOTH",
"465 179 OFFCURVE",
"469 259 OFFCURVE",
"511 258 CURVE SMOOTH",
"570 256 OFFCURVE",
"546 145 OFFCURVE",
"528 30 CURVE SMOOTH",
"525 13 OFFCURVE",
"527 -1 OFFCURVE",
"542 -1 CURVE SMOOTH",
"574 -1 OFFCURVE",
"628 60 OFFCURVE",
"635 121 CURVE SMOOTH",
"644 197 OFFCURVE",
"664 342 OFFCURVE",
"518 342 CURVE SMOOTH",
"381 342 OFFCURVE",
"363 176 OFFCURVE",
"355 30 CURVE SMOOTH",
"354 13 OFFCURVE",
"355 -1 OFFCURVE",
"368 -1 CURVE SMOOTH"
);
}
);
width = 893.90164;
}
);
unicode = 0B15;
},
{
glyphname = "kha-oriya";
lastChange = "2022-01-27 13:03:39 +0000";
layers = (
{
anchors = (
{
name = bottom;
position = "{622, -2}";
},
{
name = top;
position = "{726, 721}";
}
);
background = {
paths = (
{
closed = 1;
nodes = (
"183 330 OFFCURVE",
"122 214 OFFCURVE",
"122 130 CURVE SMOOTH",
"122 47 OFFCURVE",
"170 -4 OFFCURVE",
"253 -4 CURVE SMOOTH",
"352 -4 OFFCURVE",
"448 79 OFFCURVE",
"448 183 CURVE SMOOTH",
"448 276 OFFCURVE",
"385 330 OFFCURVE",
"303 330 CURVE SMOOTH"
);
},
{
closed = 1;
nodes = (
"333 245 OFFCURVE",
"349 188 OFFCURVE",
"349 150 CURVE SMOOTH",
"349 101 OFFCURVE",
"306 75 OFFCURVE",
"269 75 CURVE SMOOTH",
"225 75 OFFCURVE",
"210 134 OFFCURVE",
"210 172 CURVE SMOOTH",
"210 219 OFFCURVE",
"251 245 OFFCURVE",
"289 245 CURVE SMOOTH"
);
},
{
closed = 1;
nodes = (
"178 630 OFFCURVE",
"50 477 OFFCURVE",
"50 360 CURVE SMOOTH",
"50 274 OFFCURVE",
"132 219 OFFCURVE",
"168 219 CURVE",
"231 311 LINE",
"204 311 OFFCURVE",
"169 330 OFFCURVE",
"169 368 CURVE SMOOTH",
"169 438 OFFCURVE",
"277 526 OFFCURVE",
"401 526 CURVE",
"321 430 OFFCURVE",
"393 326 OFFCURVE",
"496 326 CURVE SMOOTH",
"549 326 OFFCURVE",
"599 341 OFFCURVE",
"637 378 CURVE",
"621 222 OFFCURVE",
"608 108 OFFCURVE",
"604 80 CURVE SMOOTH",
"599 43 OFFCURVE",
"591 0 OFFCURVE",
"618 0 CURVE SMOOTH",
"663 0 OFFCURVE",
"721 112 OFFCURVE",
"729 191 CURVE SMOOTH",
"746 364 OFFCURVE",
"761 569 OFFCURVE",
"766 614 CURVE SMOOTH",
"767 623 OFFCURVE",
"767 633 OFFCURVE",
"754 633 CURVE SMOOTH",
"676 633 LINE SMOOTH",
"663 633 OFFCURVE",
"659 627 OFFCURVE",
"658 616 CURVE SMOOTH",
"655 579 LINE SMOOTH",
"645 452 OFFCURVE",
"550 418 OFFCURVE",
"513 418 CURVE SMOOTH",
"484 418 OFFCURVE",
"463 438 OFFCURVE",
"462 466 CURVE SMOOTH",
"459 527 OFFCURVE",
"532 556 OFFCURVE",
"532 569 CURVE SMOOTH",
"532 585 OFFCURVE",
"520 630 OFFCURVE",
"492 630 CURVE SMOOTH"
);
},
{
closed = 1;
nodes = (
"792 596 OFFCURVE",
"792 607 OFFCURVE",
"779 607 CURVE SMOOTH",
"765 607 OFFCURVE",
"750 607 OFFCURVE",
"674 607 CURVE SMOOTH",
"661 607 OFFCURVE",
"657 601 OFFCURVE",
"656 590 CURVE SMOOTH",
"639 403 OFFCURVE",
"617 172 OFFCURVE",
"604 78 CURVE SMOOTH",
"599 41 OFFCURVE",
"595 -2 OFFCURVE",
"622 -2 CURVE SMOOTH",
"666 -2 OFFCURVE",
"746 73 OFFCURVE",
"756 189 CURVE SMOOTH",
"769 340 OFFCURVE",
"785 543 OFFCURVE",
"791 588 CURVE SMOOTH"
);
}
);
};
layerId = "555B79C6-6D98-46E7-9307-77C37975E414";
paths = (
{
closed = 1;
nodes = (
"677 -2 OFFCURVE",
"746 88 OFFCURVE",
"756 191 CURVE SMOOTH",
"772 364 OFFCURVE",
"787 569 OFFCURVE",
"792 614 CURVE SMOOTH",
"793 623 OFFCURVE",
"793 633 OFFCURVE",
"780 633 CURVE SMOOTH",
"676 633 LINE SMOOTH",
"663 633 OFFCURVE",
"659 627 OFFCURVE",
"658 616 CURVE SMOOTH",
"655 579 LINE SMOOTH",
"646 472 OFFCURVE",
"553 433 OFFCURVE",
"513 433 CURVE SMOOTH",
"490 433 OFFCURVE",
"477 445 OFFCURVE",
"477 466 CURVE SMOOTH",
"477 524 OFFCURVE",
"552 553 OFFCURVE",
"552 569 CURVE SMOOTH",
"552 585 OFFCURVE",
"540 630 OFFCURVE",
"512 630 CURVE SMOOTH",
"198 630 OFFCURVE",
"40 501 OFFCURVE",
"40 360 CURVE SMOOTH",
"40 263 OFFCURVE",
"127 209 OFFCURVE",
"168 209 CURVE",
"239 317 LINE",
"214 317 OFFCURVE",
"184 334 OFFCURVE",
"184 368 CURVE SMOOTH",
"184 440 OFFCURVE",
"313 514 OFFCURVE",
"386 514 CURVE",
"311 413 OFFCURVE",
"389 316 OFFCURVE",
"497 316 CURVE SMOOTH",
"551 316 OFFCURVE",
"604 337 OFFCURVE",
"636 368 CURVE",
"620 212 OFFCURVE",
"608 108 OFFCURVE",
"604 80 CURVE SMOOTH",
"599 43 OFFCURVE",
"595 -2 OFFCURVE",
"622 -2 CURVE SMOOTH"
);
},
{
closed = 1;
nodes = (
"232 86 OFFCURVE",
"219 137 OFFCURVE",
"219 170 CURVE SMOOTH",
"219 212 OFFCURVE",
"255 234 OFFCURVE",
"288 234 CURVE SMOOTH",
"326 234 OFFCURVE",
"340 184 OFFCURVE",
"340 151 CURVE SMOOTH",
"340 108 OFFCURVE",
"303 86 OFFCURVE",
"270 86 CURVE SMOOTH"
);
},
{
closed = 1;
nodes = (
"356 -14 OFFCURVE",
"457 74 OFFCURVE",
"457 184 CURVE SMOOTH",
"457 283 OFFCURVE",
"391 340 OFFCURVE",
"304 340 CURVE SMOOTH",
"177 340 OFFCURVE",
"113 217 OFFCURVE",
"113 128 CURVE SMOOTH",
"113 40 OFFCURVE",
"163 -14 OFFCURVE",
"251 -14 CURVE SMOOTH"
);
}
);
width = 812;
},
{
anchors = (
{
name = bottom;
position = "{618, 0}";
},
{
name = top;
position = "{759, 696}";
}
);
layerId = "08AC27E4-54F0-4C9D-B904-08FC42541096";
paths = (
{
closed = 1;
nodes = (
"663 0 OFFCURVE",
"721 112 OFFCURVE",
"729 191 CURVE SMOOTH",
"746 364 OFFCURVE",
"761 569 OFFCURVE",
"766 614 CURVE SMOOTH",
"767 623 OFFCURVE",
"767 633 OFFCURVE",
"754 633 CURVE SMOOTH",
"676 633 LINE SMOOTH",
"663 633 OFFCURVE",
"659 627 OFFCURVE",
"658 616 CURVE SMOOTH",
"655 579 LINE SMOOTH",
"645 452 OFFCURVE",
"550 418 OFFCURVE",
"513 418 CURVE SMOOTH",
"484 418 OFFCURVE",
"463 438 OFFCURVE",
"462 466 CURVE SMOOTH",
"459 527 OFFCURVE",
"532 556 OFFCURVE",
"532 569 CURVE SMOOTH",
"532 585 OFFCURVE",
"520 630 OFFCURVE",
"492 630 CURVE SMOOTH",
"178 630 OFFCURVE",
"50 477 OFFCURVE",
"50 360 CURVE SMOOTH",
"50 274 OFFCURVE",
"132 219 OFFCURVE",
"168 219 CURVE",
"231 311 LINE",
"204 311 OFFCURVE",
"169 330 OFFCURVE",
"169 368 CURVE SMOOTH",
"169 438 OFFCURVE",
"278 526 OFFCURVE",
"401 526 CURVE",
"321 430 OFFCURVE",
"393 326 OFFCURVE",
"496 326 CURVE SMOOTH",
"549 326 OFFCURVE",
"599 341 OFFCURVE",
"637 378 CURVE",
"621 222 OFFCURVE",
"608 108 OFFCURVE",
"604 80 CURVE SMOOTH",
"599 43 OFFCURVE",
"591 0 OFFCURVE",
"618 0 CURVE SMOOTH"
);
},
{
closed = 1;
nodes = (
"225 75 OFFCURVE",
"210 134 OFFCURVE",
"210 172 CURVE SMOOTH",
"210 219 OFFCURVE",
"251 245 OFFCURVE",
"289 245 CURVE SMOOTH",
"333 245 OFFCURVE",
"349 188 OFFCURVE",
"349 150 CURVE SMOOTH",
"349 101 OFFCURVE",
"306 75 OFFCURVE",
"269 75 CURVE SMOOTH"
);
},
{
closed = 1;
nodes = (
"352 -4 OFFCURVE",
"448 79 OFFCURVE",
"448 183 CURVE SMOOTH",
"448 276 OFFCURVE",
"385 330 OFFCURVE",
"303 330 CURVE SMOOTH",
"183 330 OFFCURVE",
"122 214 OFFCURVE",
"122 130 CURVE SMOOTH",
"122 47 OFFCURVE",
"170 -4 OFFCURVE",
"253 -4 CURVE SMOOTH"
);
}
);
width = 806.09836;
}
);
unicode = 0B16;
},
{
glyphname = "ga-oriya";
lastChange = "2022-01-27 13:03:47 +0000";
layers = (
{
anchors = (
{
name = bottom;
position = "{597, -2}";
},
{
name = top;
position = "{696, 721}";
}
);
background = {
paths = (
{
closed = 1;
nodes = (
"185 342 OFFCURVE",
"122 222 OFFCURVE",
"122 135 CURVE SMOOTH",
"122 49 OFFCURVE",
"172 -4 OFFCURVE",
"258 -4 CURVE SMOOTH",
"360 -4 OFFCURVE",
"459 82 OFFCURVE",
"459 190 CURVE SMOOTH",
"459 287 OFFCURVE",
"394 342 OFFCURVE",
"309 342 CURVE SMOOTH"
);
},
{
closed = 1;
nodes = (
"340 254 OFFCURVE",
"357 196 OFFCURVE",
"357 155 CURVE SMOOTH",
"357 105 OFFCURVE",
"312 78 OFFCURVE",
"274 78 CURVE SMOOTH",
"229 78 OFFCURVE",
"213 139 OFFCURVE",
"213 178 CURVE SMOOTH",
"213 227 OFFCURVE",
"256 254 OFFCURVE",
"295 254 CURVE SMOOTH"
);
},
{
closed = 1;
nodes = (
"50 283 OFFCURVE",
"122 228 OFFCURVE",
"168 228 CURVE",
"228 321 LINE",
"196 321 OFFCURVE",
"169 340 OFFCURVE",
"169 378 CURVE SMOOTH",
"169 448 OFFCURVE",
"268 523 OFFCURVE",
"399 523 CURVE SMOOTH",
"504 523 OFFCURVE",
"617 457 OFFCURVE",
"609 365 CURVE SMOOTH",
"598 244 OFFCURVE",
"583 108 OFFCURVE",
"579 80 CURVE SMOOTH",
"574 43 OFFCURVE",
"566 0 OFFCURVE",
"593 0 CURVE SMOOTH",
"637 0 OFFCURVE",
"696 112 OFFCURVE",
"704 191 CURVE SMOOTH",
"719 342 OFFCURVE",
"735 569 OFFCURVE",
"741 614 CURVE SMOOTH",
"742 622 OFFCURVE",
"742 633 OFFCURVE",
"729 633 CURVE SMOOTH",
"651 633 LINE SMOOTH",
"638 633 OFFCURVE",
"634 627 OFFCURVE",
"633 616 CURVE SMOOTH",
"627 550 LINE",
"561 593 OFFCURVE",
"496 617 OFFCURVE",
"410 617 CURVE SMOOTH",
"221 617 OFFCURVE",
"50 503 OFFCURVE",
"50 363 CURVE SMOOTH"
);
}
);
};
layerId = "555B79C6-6D98-46E7-9307-77C37975E414";
paths = (
{
closed = 1;
nodes = (
"659 -2 OFFCURVE",
"722 99 OFFCURVE",
"731 191 CURVE SMOOTH",
"746 342 OFFCURVE",
"762 569 OFFCURVE",
"768 614 CURVE SMOOTH",
"769 622 OFFCURVE",
"769 633 OFFCURVE",
"756 633 CURVE SMOOTH",
"651 633 LINE SMOOTH",
"638 633 OFFCURVE",
"634 627 OFFCURVE",
"633 616 CURVE SMOOTH",
"627 554 LINE",
"566 595 OFFCURVE",
"490 617 OFFCURVE",
"410 617 CURVE SMOOTH",
"221 617 OFFCURVE",
"40 514 OFFCURVE",
"40 363 CURVE SMOOTH",
"40 279 OFFCURVE",
"120 224 OFFCURVE",
"166 224 CURVE",
"239 328 LINE",
"219 328 OFFCURVE",
"184 342 OFFCURVE",
"184 378 CURVE SMOOTH",
"184 427 OFFCURVE",
"268 503 OFFCURVE",
"396 503 CURVE SMOOTH",
"504 503 OFFCURVE",
"615 427 OFFCURVE",
"606 332 CURVE SMOOTH",
"596 229 OFFCURVE",
"583 108 OFFCURVE",
"579 80 CURVE SMOOTH",
"574 43 OFFCURVE",
"570 -2 OFFCURVE",
"597 -2 CURVE SMOOTH"
);
},
{
closed = 1;
nodes = (
"238 92 OFFCURVE",
"225 143 OFFCURVE",
"225 176 CURVE SMOOTH",
"225 218 OFFCURVE",
"261 240 OFFCURVE",
"294 240 CURVE SMOOTH",
"332 240 OFFCURVE",
"346 190 OFFCURVE",
"346 157 CURVE SMOOTH",
"346 114 OFFCURVE",
"309 92 OFFCURVE",
"276 92 CURVE SMOOTH"
);
},
{
closed = 1;
nodes = (
"364 -12 OFFCURVE",
"467 78 OFFCURVE",
"467 190 CURVE SMOOTH",
"467 292 OFFCURVE",
"399 350 OFFCURVE",
"310 350 CURVE SMOOTH",
"181 350 OFFCURVE",
"115 224 OFFCURVE",
"115 133 CURVE SMOOTH",
"115 43 OFFCURVE",
"166 -12 OFFCURVE",
"256 -12 CURVE SMOOTH"
);
}
);
width = 788;
},
{
anchors = (
{
name = bottom;
position = "{593, 0}";
},
{
name = top;
position = "{739, 696}";
}
);
layerId = "08AC27E4-54F0-4C9D-B904-08FC42541096";
paths = (
{
closed = 1;
nodes = (
"637 0 OFFCURVE",
"696 112 OFFCURVE",
"704 191 CURVE SMOOTH",
"719 342 OFFCURVE",
"735 569 OFFCURVE",
"741 614 CURVE SMOOTH",
"742 622 OFFCURVE",
"742 633 OFFCURVE",
"729 633 CURVE SMOOTH",
"651 633 LINE SMOOTH",
"638 633 OFFCURVE",
"634 627 OFFCURVE",
"633 616 CURVE SMOOTH",
"627 550 LINE",
"561 593 OFFCURVE",
"496 617 OFFCURVE",
"410 617 CURVE SMOOTH",
"221 617 OFFCURVE",
"50 503 OFFCURVE",
"50 363 CURVE SMOOTH",
"50 283 OFFCURVE",
"122 228 OFFCURVE",
"168 228 CURVE",
"228 321 LINE",
"196 321 OFFCURVE",
"169 340 OFFCURVE",
"169 378 CURVE SMOOTH",
"169 448 OFFCURVE",
"268 523 OFFCURVE",
"399 523 CURVE SMOOTH",
"504 523 OFFCURVE",
"617 457 OFFCURVE",
"609 364 CURVE SMOOTH",
"598 244 OFFCURVE",
"583 108 OFFCURVE",
"579 80 CURVE SMOOTH",
"574 43 OFFCURVE",
"566 0 OFFCURVE",
"593 0 CURVE SMOOTH"
);
},
{
closed = 1;
nodes = (
"229 78 OFFCURVE",
"213 139 OFFCURVE",
"213 178 CURVE SMOOTH",
"213 227 OFFCURVE",
"256 254 OFFCURVE",
"295 254 CURVE SMOOTH",
"340 254 OFFCURVE",
"357 196 OFFCURVE",
"357 155 CURVE SMOOTH",
"357 105 OFFCURVE",
"312 78 OFFCURVE",
"274 78 CURVE SMOOTH"
);
},
{
closed = 1;
nodes = (
"360 -4 OFFCURVE",
"459 82 OFFCURVE",
"459 190 CURVE SMOOTH",
"459 287 OFFCURVE",
"394 342 OFFCURVE",
"309 342 CURVE SMOOTH",
"185 342 OFFCURVE",
"122 222 OFFCURVE",
"122 135 CURVE SMOOTH",
"122 49 OFFCURVE",
"172 -4 OFFCURVE",
"258 -4 CURVE SMOOTH"
);
}
);
width = 781.11475;
}
);
unicode = 0B17;
},
{
glyphname = "gha-oriya";
lastChange = "2022-01-27 13:03:53 +0000";
layers = (
{
anchors = (
{
name = bottom;
position = "{566, -2}";
},
{
name = top;
position = "{696, 721}";
}
);
background = {
paths = (
{
closed = 1;
nodes = (
"50 305 OFFCURVE",
"124 260 OFFCURVE",
"170 260 CURVE",
"231 352 LINE",
"196 348 OFFCURVE",
"169 360 OFFCURVE",
"169 387 CURVE SMOOTH",
"169 460 OFFCURVE",
"279 526 OFFCURVE",
"380 526 CURVE SMOOTH",
"499 526 OFFCURVE",
"587 441 OFFCURVE",
"579 362 CURVE SMOOTH",
"567 251 OFFCURVE",
"553 117 OFFCURVE",
"549 80 CURVE SMOOTH",
"545 43 OFFCURVE",
"536 0 OFFCURVE",
"563 0 CURVE SMOOTH",
"607 0 OFFCURVE",
"666 112 OFFCURVE",
"674 191 CURVE SMOOTH",
"689 342 OFFCURVE",
"705 569 OFFCURVE",
"711 614 CURVE SMOOTH",
"712 622 OFFCURVE",
"712 633 OFFCURVE",
"699 633 CURVE SMOOTH",
"621 633 LINE SMOOTH",
"608 633 OFFCURVE",
"604 627 OFFCURVE",
"603 616 CURVE SMOOTH",
"597 550 LINE",
"557 585 OFFCURVE",
"481 617 OFFCURVE",
"386 617 CURVE SMOOTH",
"207 617 OFFCURVE",
"50 515 OFFCURVE",
"50 386 CURVE SMOOTH"
);
},
{
closed = 1;
nodes = (
"561 192 OFFCURVE",
"522 150 OFFCURVE",
"475 150 CURVE SMOOTH",
"441 150 OFFCURVE",
"411 166 OFFCURVE",
"395 212 CURVE SMOOTH",
"390 226 OFFCURVE",
"389 232 OFFCURVE",
"381 232 CURVE SMOOTH",
"371 232 OFFCURVE",
"344 232 OFFCURVE",
"332 232 CURVE SMOOTH",
"324 232 OFFCURVE",
"323 224 OFFCURVE",
"318 211 CURVE SMOOTH",
"302 170 OFFCURVE",
"266 147 OFFCURVE",
"234 147 CURVE SMOOTH",
"189 147 OFFCURVE",
"160 178 OFFCURVE",
"160 211 CURVE SMOOTH",
"160 270 OFFCURVE",
"254 280 OFFCURVE",
"254 296 CURVE SMOOTH",
"254 311 OFFCURVE",
"244 352 OFFCURVE",
"231 352 CURVE SMOOTH",
"204 352 OFFCURVE",
"51 314 OFFCURVE",
"51 196 CURVE SMOOTH",
"51 124 OFFCURVE",
"113 54 OFFCURVE",
"210 54 CURVE SMOOTH",
"279 54 OFFCURVE",
"327 88 OFFCURVE",
"351 121 CURVE",
"372 88 OFFCURVE",
"414 54 OFFCURVE",
"471 54 CURVE SMOOTH",
"526 54 OFFCURVE",
"574 83 OFFCURVE",
"592 142 CURVE",
"569 268 LINE"
);
}
);
};
layerId = "555B79C6-6D98-46E7-9307-77C37975E414";
paths = (
{
closed = 1;
nodes = (
"628 -2 OFFCURVE",
"691 99 OFFCURVE",
"700 191 CURVE SMOOTH",
"715 342 OFFCURVE",
"731 569 OFFCURVE",
"737 614 CURVE SMOOTH",
"738 622 OFFCURVE",
"738 633 OFFCURVE",
"725 633 CURVE SMOOTH",
"620 633 LINE SMOOTH",
"607 633 OFFCURVE",
"603 627 OFFCURVE",
"602 616 CURVE SMOOTH",
"596 557 LINE",
"535 596 OFFCURVE",
"487 617 OFFCURVE",
"386 617 CURVE SMOOTH",
"203 617 OFFCURVE",
"42 524 OFFCURVE",
"42 386 CURVE SMOOTH",
"42 293 OFFCURVE",
"116 249 OFFCURVE",
"162 249 CURVE",
"236 361 LINE",
"215 360 OFFCURVE",
"189 363 OFFCURVE",
"189 387 CURVE SMOOTH",
"189 441 OFFCURVE",
"279 503 OFFCURVE",
"380 503 CURVE SMOOTH",
"507 503 OFFCURVE",
"585 427 OFFCURVE",
"575 332 CURVE SMOOTH",
"564 229 OFFCURVE",
"552 108 OFFCURVE",
"548 80 CURVE SMOOTH",
"543 43 OFFCURVE",
"539 -2 OFFCURVE",
"566 -2 CURVE SMOOTH"
);
},
{
closed = 1;
nodes = (
"284 42 OFFCURVE",
"326 76 OFFCURVE",
"350 109 CURVE",
"371 76 OFFCURVE",
"409 42 OFFCURVE",
"471 42 CURVE SMOOTH",
"533 42 OFFCURVE",
"584 84 OFFCURVE",
"601 144 CURVE",
"570 284 LINE",
"562 208 OFFCURVE",
"518 160 OFFCURVE",
"475 160 CURVE SMOOTH",
"446 160 OFFCURVE",
"418 177 OFFCURVE",
"404 212 CURVE SMOOTH",
"399 225 OFFCURVE",
"398 237 OFFCURVE",
"388 237 CURVE SMOOTH",
"380 237 OFFCURVE",
"333 237 OFFCURVE",
"323 237 CURVE SMOOTH",
"313 237 OFFCURVE",
"311 222 OFFCURVE",
"306 209 CURVE SMOOTH",
"290 168 OFFCURVE",
"259 157 OFFCURVE",
"234 157 CURVE SMOOTH",
"199 157 OFFCURVE",
"169 182 OFFCURVE",
"169 211 CURVE SMOOTH",
"169 262 OFFCURVE",
"264 273 OFFCURVE",
"264 294 CURVE SMOOTH",
"264 309 OFFCURVE",
"252 361 OFFCURVE",
"236 361 CURVE SMOOTH",
"204 361 OFFCURVE",
"40 327 OFFCURVE",
"40 196 CURVE SMOOTH",
"40 112 OFFCURVE",
"107 42 OFFCURVE",
"210 42 CURVE SMOOTH"
);
}
);
width = 757;
},
{
anchors = (
{
name = bottom;
position = "{563, 0}";
},
{
name = top;
position = "{679, 696}";
}
);
layerId = "08AC27E4-54F0-4C9D-B904-08FC42541096";
paths = (
{
closed = 1;
nodes = (
"607 0 OFFCURVE",
"666 112 OFFCURVE",
"674 191 CURVE SMOOTH",
"689 342 OFFCURVE",
"705 569 OFFCURVE",
"711 614 CURVE SMOOTH",
"712 622 OFFCURVE",
"712 633 OFFCURVE",
"699 633 CURVE SMOOTH",
"621 633 LINE SMOOTH",
"608 633 OFFCURVE",
"604 627 OFFCURVE",
"603 616 CURVE SMOOTH",
"597 550 LINE",
"557 585 OFFCURVE",
"481 617 OFFCURVE",
"386 617 CURVE SMOOTH",
"207 617 OFFCURVE",
"50 515 OFFCURVE",
"50 386 CURVE SMOOTH",
"50 305 OFFCURVE",
"124 260 OFFCURVE",
"170 260 CURVE",
"231 352 LINE",
"196 348 OFFCURVE",
"169 360 OFFCURVE",
"169 387 CURVE SMOOTH",
"169 460 OFFCURVE",
"279 526 OFFCURVE",
"380 526 CURVE SMOOTH",
"499 526 OFFCURVE",
"587 441 OFFCURVE",
"579 362 CURVE SMOOTH",
"567 251 OFFCURVE",
"553 117 OFFCURVE",
"549 80 CURVE SMOOTH",
"545 43 OFFCURVE",
"536 0 OFFCURVE",
"563 0 CURVE SMOOTH"
);
},
{
closed = 1;
nodes = (
"279 54 OFFCURVE",
"327 88 OFFCURVE",
"351 121 CURVE",
"372 88 OFFCURVE",
"414 54 OFFCURVE",
"471 54 CURVE SMOOTH",
"526 54 OFFCURVE",
"574 83 OFFCURVE",
"592 142 CURVE",
"569 268 LINE",
"561 192 OFFCURVE",
"522 150 OFFCURVE",
"475 150 CURVE SMOOTH",
"441 150 OFFCURVE",
"411 166 OFFCURVE",
"395 212 CURVE SMOOTH",
"390 226 OFFCURVE",
"389 232 OFFCURVE",
"381 232 CURVE SMOOTH",
"371 232 OFFCURVE",
"344 232 OFFCURVE",
"332 232 CURVE SMOOTH",
"324 232 OFFCURVE",
"323 224 OFFCURVE",
"318 211 CURVE SMOOTH",
"302 170 OFFCURVE",
"266 147 OFFCURVE",
"234 147 CURVE SMOOTH",
"189 147 OFFCURVE",
"160 178 OFFCURVE",
"160 211 CURVE SMOOTH",
"160 270 OFFCURVE",
"254 280 OFFCURVE",
"254 296 CURVE SMOOTH",
"254 311 OFFCURVE",
"244 352 OFFCURVE",
"231 352 CURVE SMOOTH",
"204 352 OFFCURVE",
"51 314 OFFCURVE",
"51 196 CURVE SMOOTH",
"51 124 OFFCURVE",
"113 54 OFFCURVE",
"210 54 CURVE SMOOTH"
);
}
);
width = 751.09836;
}
);
unicode = 0B18;
},
{
glyphname = "nga-oriya";
lastChange = "2022-01-27 13:04:00 +0000";
layers = (
{
anchors = (
{
name = bottom;
position = "{253, -17}";
},
{
name = top;
position = "{696, 721}";
}
);
background = {
paths = (
{
closed = 1;
nodes = (
"347 255 OFFCURVE",
"405 216 OFFCURVE",
"405 160 CURVE SMOOTH",
"405 110 OFFCURVE",
"344 84 OFFCURVE",
"256 84 CURVE SMOOTH",
"198 84 OFFCURVE",
"169 103 OFFCURVE",
"169 136 CURVE SMOOTH",
"169 207 OFFCURVE",
"273 249 OFFCURVE",
"273 265 CURVE SMOOTH",
"273 280 OFFCURVE",
"263 321 OFFCURVE",
"250 321 CURVE SMOOTH",
"232 321 OFFCURVE",
"49 254 OFFCURVE",
"50 135 CURVE SMOOTH",
"51 67 OFFCURVE",
"103 -8 OFFCURVE",
"253 -7 CURVE SMOOTH",
"400 -6 OFFCURVE",
"509 65 OFFCURVE",
"509 156 CURVE SMOOTH",
"509 223 OFFCURVE",
"445 274 OFFCURVE",
"441 277 CURVE",
"454 294 OFFCURVE",
"496 315 OFFCURVE",
"509 315 CURVE SMOOTH",
"520 315 OFFCURVE",
"526 301 OFFCURVE",
"533 301 CURVE SMOOTH",
"536 301 OFFCURVE",
"538 304 OFFCURVE",
"538 310 CURVE SMOOTH",
"538 348 OFFCURVE",
"507 405 OFFCURVE",
"481 405 CURVE SMOOTH",
"440 405 OFFCURVE",
"347 320 OFFCURVE",
"347 276 CURVE SMOOTH"
);
},
{
closed = 1;
nodes = (
"664 617 OFFCURVE",
"593 497 OFFCURVE",
"593 410 CURVE SMOOTH",
"593 324 OFFCURVE",
"643 271 OFFCURVE",
"729 271 CURVE SMOOTH",
"831 271 OFFCURVE",
"930 357 OFFCURVE",
"930 465 CURVE SMOOTH",
"930 562 OFFCURVE",
"866 617 OFFCURVE",
"780 617 CURVE SMOOTH"
);
},
{
closed = 1;
nodes = (
"809 532 OFFCURVE",
"828 473 OFFCURVE",
"828 433 CURVE SMOOTH",
"828 383 OFFCURVE",
"783 356 OFFCURVE",
"745 356 CURVE SMOOTH",
"700 356 OFFCURVE",
"684 417 OFFCURVE",
"684 456 CURVE SMOOTH",
"684 505 OFFCURVE",
"727 532 OFFCURVE",
"766 532 CURVE SMOOTH"
);
},
{
closed = 1;
nodes = (
"625 419 OFFCURVE",
"652 436 OFFCURVE",
"684 458 CURVE",
"684 494 OFFCURVE",
"628 617 OFFCURVE",
"432 617 CURVE SMOOTH",
"243 617 OFFCURVE",
"72 505 OFFCURVE",
"72 365 CURVE SMOOTH",
"72 288 OFFCURVE",
"138 228 OFFCURVE",
"190 228 CURVE",
"250 321 LINE",
"216 321 OFFCURVE",
"191 342 OFFCURVE",
"191 377 CURVE SMOOTH",
"191 450 OFFCURVE",
"290 522 OFFCURVE",
"414 522 CURVE SMOOTH",
"547 522 OFFCURVE",
"593 463 OFFCURVE",
"593 410 CURVE"
);
}
);
};
layerId = "555B79C6-6D98-46E7-9307-77C37975E414";
paths = (
{
closed = 1;
nodes = (
"250 331 LINE",
"220 331 OFFCURVE",
"206 356 OFFCURVE",
"206 377 CURVE SMOOTH",
"206 434 OFFCURVE",
"287 506 OFFCURVE",
"421 506 CURVE SMOOTH",
"522 506 OFFCURVE",
"583 461 OFFCURVE",
"583 408 CURVE",
"615 417 OFFCURVE",
"660 433 OFFCURVE",
"692 455 CURVE",
"692 504 OFFCURVE",
"632 627 OFFCURVE",
"432 627 CURVE SMOOTH",
"220 627 OFFCURVE",
"53 511 OFFCURVE",
"53 371 CURVE SMOOTH",
"53 271 OFFCURVE",
"152 218 OFFCURVE",
"188 218 CURVE"
);
},
{
closed = 1;
nodes = (
"410 -16 OFFCURVE",
"511 63 OFFCURVE",
"511 154 CURVE SMOOTH",
"511 222 OFFCURVE",
"447 273 OFFCURVE",
"443 275 CURVE",
"456 292 OFFCURVE",
"488 303 OFFCURVE",
"501 303 CURVE SMOOTH",
"512 303 OFFCURVE",
"518 289 OFFCURVE",
"525 289 CURVE SMOOTH",
"533 289 OFFCURVE",
"535 299 OFFCURVE",
"535 311 CURVE SMOOTH",
"535 347 OFFCURVE",
"502 413 OFFCURVE",
"473 413 CURVE SMOOTH",
"432 413 OFFCURVE",
"324 318 OFFCURVE",
"324 274 CURVE SMOOTH",
"324 249 OFFCURVE",
"382 214 OFFCURVE",
"382 158 CURVE SMOOTH",
"382 108 OFFCURVE",
"320 99 OFFCURVE",
"262 99 CURVE SMOOTH",
"207 99 OFFCURVE",
"185 115 OFFCURVE",
"185 142 CURVE SMOOTH",
"185 197 OFFCURVE",
"285 241 OFFCURVE",
"285 257 CURVE SMOOTH",
"285 272 OFFCURVE",
"271 331 OFFCURVE",
"250 331 CURVE SMOOTH",
"232 331 OFFCURVE",
"38 258 OFFCURVE",
"40 135 CURVE SMOOTH",
"41 61 OFFCURVE",
"103 -18 OFFCURVE",
"253 -17 CURVE SMOOTH"
);
},
{
closed = 1;
nodes = (
"706 366 OFFCURVE",
"692 420 OFFCURVE",
"692 455 CURVE SMOOTH",
"692 498 OFFCURVE",
"730 522 OFFCURVE",
"765 522 CURVE SMOOTH",
"803 522 OFFCURVE",
"820 470 OFFCURVE",
"820 434 CURVE SMOOTH",
"820 390 OFFCURVE",
"780 366 OFFCURVE",
"746 366 CURVE SMOOTH"
);
},
{
closed = 1;
nodes = (
"840 261 OFFCURVE",
"940 352 OFFCURVE",
"940 466 CURVE SMOOTH",
"940 569 OFFCURVE",
"872 627 OFFCURVE",
"781 627 CURVE SMOOTH",
"658 627 OFFCURVE",
"583 500 OFFCURVE",
"583 408 CURVE SMOOTH",
"583 317 OFFCURVE",
"636 261 OFFCURVE",
"727 261 CURVE SMOOTH"
);
}
);
width = 960;
},
{
anchors = (
{
name = bottom;
position = "{253, -7}";
},
{
name = top;
position = "{759, 696}";
}
);
layerId = "08AC27E4-54F0-4C9D-B904-08FC42541096";
paths = (
{
closed = 1;
nodes = (
"250 321 LINE",
"216 321 OFFCURVE",
"191 342 OFFCURVE",
"191 377 CURVE SMOOTH",
"191 450 OFFCURVE",
"290 522 OFFCURVE",
"414 522 CURVE SMOOTH",
"547 522 OFFCURVE",
"593 463 OFFCURVE",
"593 410 CURVE",
"625 419 OFFCURVE",
"652 436 OFFCURVE",
"684 458 CURVE",
"684 494 OFFCURVE",
"628 617 OFFCURVE",
"432 617 CURVE SMOOTH",
"243 617 OFFCURVE",
"72 505 OFFCURVE",
"72 365 CURVE SMOOTH",
"72 288 OFFCURVE",
"138 228 OFFCURVE",
"190 228 CURVE"
);
},
{
closed = 1;
nodes = (
"400 -6 OFFCURVE",
"509 65 OFFCURVE",
"509 156 CURVE SMOOTH",
"509 223 OFFCURVE",
"445 274 OFFCURVE",
"441 277 CURVE",
"454 294 OFFCURVE",
"496 315 OFFCURVE",
"509 315 CURVE SMOOTH",
"520 315 OFFCURVE",
"526 301 OFFCURVE",
"533 301 CURVE SMOOTH",
"536 301 OFFCURVE",
"538 304 OFFCURVE",
"538 310 CURVE SMOOTH",
"538 348 OFFCURVE",
"507 405 OFFCURVE",
"481 405 CURVE SMOOTH",
"440 405 OFFCURVE",
"347 320 OFFCURVE",
"347 276 CURVE SMOOTH",
"347 255 OFFCURVE",
"405 216 OFFCURVE",
"405 160 CURVE SMOOTH",
"405 110 OFFCURVE",
"344 84 OFFCURVE",
"256 84 CURVE SMOOTH",
"198 84 OFFCURVE",
"169 103 OFFCURVE",
"169 136 CURVE SMOOTH",
"169 207 OFFCURVE",
"273 249 OFFCURVE",
"273 265 CURVE SMOOTH",
"273 280 OFFCURVE",
"263 321 OFFCURVE",
"250 321 CURVE SMOOTH",
"232 321 OFFCURVE",
"49 254 OFFCURVE",
"50 135 CURVE SMOOTH",
"51 67 OFFCURVE",
"103 -8 OFFCURVE",
"253 -7 CURVE SMOOTH"
);
},
{
closed = 1;
nodes = (
"700 356 OFFCURVE",
"684 417 OFFCURVE",
"684 456 CURVE SMOOTH",
"684 505 OFFCURVE",
"727 532 OFFCURVE",
"766 532 CURVE SMOOTH",
"809 532 OFFCURVE",
"828 473 OFFCURVE",
"828 433 CURVE SMOOTH",
"828 383 OFFCURVE",
"783 356 OFFCURVE",
"745 356 CURVE SMOOTH"
);
},
{
closed = 1;
nodes = (
"831 271 OFFCURVE",
"930 357 OFFCURVE",
"930 465 CURVE SMOOTH",
"930 562 OFFCURVE",
"866 617 OFFCURVE",
"780 617 CURVE SMOOTH",
"664 617 OFFCURVE",
"593 497 OFFCURVE",
"593 410 CURVE SMOOTH",
"593 324 OFFCURVE",
"643 271 OFFCURVE",
"729 271 CURVE SMOOTH"
);
}
);
width = 969.83607;
}
);
unicode = 0B19;
},
{
glyphname = "ca-oriya";
lastChange = "2022-01-27 13:04:07 +0000";
layers = (
{
anchors = (
{
name = bottom;
position = "{256, -12}";
},
{
name = top;
position = "{696, 721}";
}
);
background = {
paths = (
{
closed = 1;
nodes = (
"185 342 OFFCURVE",
"122 222 OFFCURVE",
"122 135 CURVE SMOOTH",
"122 49 OFFCURVE",
"172 -4 OFFCURVE",
"258 -4 CURVE SMOOTH",
"360 -4 OFFCURVE",
"459 82 OFFCURVE",
"459 190 CURVE SMOOTH",
"459 286 OFFCURVE",
"394 342 OFFCURVE",
"309 342 CURVE SMOOTH"
);
},
{
closed = 1;
nodes = (
"340 254 OFFCURVE",
"357 195 OFFCURVE",
"357 155 CURVE SMOOTH",
"357 105 OFFCURVE",
"312 78 OFFCURVE",
"274 78 CURVE SMOOTH",
"229 78 OFFCURVE",
"213 139 OFFCURVE",
"213 178 CURVE SMOOTH",
"213 227 OFFCURVE",
"256 254 OFFCURVE",
"295 254 CURVE SMOOTH"
);
},
{
closed = 1;
nodes = (
"569 73 OFFCURVE",
"739 175 OFFCURVE",
"739 340 CURVE SMOOTH",
"739 506 OFFCURVE",
"596 617 OFFCURVE",
"410 617 CURVE SMOOTH",
"221 617 OFFCURVE",
"50 505 OFFCURVE",
"50 364 CURVE SMOOTH",
"50 283 OFFCURVE",
"123 228 OFFCURVE",
"168 228 CURVE",
"228 321 LINE",
"194 321 OFFCURVE",
"169 342 OFFCURVE",
"169 377 CURVE SMOOTH",
"169 450 OFFCURVE",
"268 523 OFFCURVE",
"399 523 CURVE SMOOTH",
"528 523 OFFCURVE",
"620 428 OFFCURVE",
"620 320 CURVE SMOOTH",
"620 210 OFFCURVE",
"509 109 OFFCURVE",
"509 84 CURVE SMOOTH",
"509 76 OFFCURVE",
"516 73 OFFCURVE",
"523 73 CURVE SMOOTH"
);
},
{
closed = 1;
nodes = (
"181 350 OFFCURVE",
"115 224 OFFCURVE",
"115 133 CURVE SMOOTH",
"115 43 OFFCURVE",
"166 -12 OFFCURVE",
"256 -12 CURVE SMOOTH",
"364 -12 OFFCURVE",
"467 78 OFFCURVE",
"467 190 CURVE SMOOTH",
"467 292 OFFCURVE",
"399 350 OFFCURVE",
"310 350 CURVE SMOOTH"
);
},
{
closed = 1;
nodes = (
"332 240 OFFCURVE",
"346 190 OFFCURVE",
"346 157 CURVE SMOOTH",
"346 114 OFFCURVE",
"309 92 OFFCURVE",
"276 92 CURVE SMOOTH",
"238 92 OFFCURVE",
"225 143 OFFCURVE",
"225 176 CURVE SMOOTH",
"225 218 OFFCURVE",
"261 240 OFFCURVE",
"294 240 CURVE SMOOTH"
);
}
);
};
layerId = "555B79C6-6D98-46E7-9307-77C37975E414";
paths = (
{
closed = 1;
nodes = (
"582 68 OFFCURVE",
"749 175 OFFCURVE",
"749 340 CURVE SMOOTH",
"749 506 OFFCURVE",
"604 617 OFFCURVE",
"410 617 CURVE SMOOTH",
"221 617 OFFCURVE",
"40 514 OFFCURVE",
"40 363 CURVE SMOOTH",
"40 279 OFFCURVE",
"120 224 OFFCURVE",
"166 224 CURVE",
"239 328 LINE",
"219 328 OFFCURVE",
"184 343 OFFCURVE",
"184 378 CURVE SMOOTH",
"184 427 OFFCURVE",
"268 503 OFFCURVE",
"396 503 CURVE SMOOTH",
"525 503 OFFCURVE",
"600 410 OFFCURVE",
"600 320 CURVE SMOOTH",
"600 210 OFFCURVE",
"504 114 OFFCURVE",
"504 84 CURVE SMOOTH",
"504 74 OFFCURVE",
"512 68 OFFCURVE",
"523 68 CURVE SMOOTH"
);
},
{
closed = 1;
nodes = (
"238 92 OFFCURVE",
"225 143 OFFCURVE",
"225 176 CURVE SMOOTH",
"225 218 OFFCURVE",
"261 240 OFFCURVE",
"294 240 CURVE SMOOTH",
"332 240 OFFCURVE",
"346 190 OFFCURVE",
"346 157 CURVE SMOOTH",
"346 114 OFFCURVE",
"309 92 OFFCURVE",
"276 92 CURVE SMOOTH"
);
},
{
closed = 1;
nodes = (
"364 -12 OFFCURVE",
"467 78 OFFCURVE",
"467 190 CURVE SMOOTH",
"467 292 OFFCURVE",
"399 350 OFFCURVE",
"310 350 CURVE SMOOTH",
"181 350 OFFCURVE",
"115 224 OFFCURVE",
"115 133 CURVE SMOOTH",
"115 43 OFFCURVE",
"166 -12 OFFCURVE",
"256 -12 CURVE SMOOTH"
);
}
);
width = 769;
},
{
anchors = (
{
name = bottom;
position = "{258, -4}";
},
{
name = top;
position = "{649, 696}";
}
);
layerId = "08AC27E4-54F0-4C9D-B904-08FC42541096";
paths = (
{
closed = 1;
nodes = (
"569 73 OFFCURVE",
"739 175 OFFCURVE",
"739 340 CURVE SMOOTH",
"739 506 OFFCURVE",
"596 617 OFFCURVE",
"410 617 CURVE SMOOTH",
"221 617 OFFCURVE",
"50 505 OFFCURVE",
"50 364 CURVE SMOOTH",
"50 283 OFFCURVE",
"123 228 OFFCURVE",
"168 228 CURVE",
"228 321 LINE",
"194 321 OFFCURVE",
"169 342 OFFCURVE",
"169 377 CURVE SMOOTH",
"169 450 OFFCURVE",
"268 523 OFFCURVE",
"399 523 CURVE SMOOTH",
"528 523 OFFCURVE",
"620 428 OFFCURVE",
"620 320 CURVE SMOOTH",
"620 210 OFFCURVE",
"509 109 OFFCURVE",
"509 84 CURVE SMOOTH",
"509 76 OFFCURVE",
"516 73 OFFCURVE",
"523 73 CURVE SMOOTH"
);
},
{
closed = 1;
nodes = (
"229 78 OFFCURVE",
"213 139 OFFCURVE",
"213 178 CURVE SMOOTH",
"213 227 OFFCURVE",
"256 254 OFFCURVE",
"295 254 CURVE SMOOTH",
"340 254 OFFCURVE",
"357 195 OFFCURVE",
"357 155 CURVE SMOOTH",
"357 105 OFFCURVE",
"312 78 OFFCURVE",
"274 78 CURVE SMOOTH"
);
},
{
closed = 1;
nodes = (
"360 -4 OFFCURVE",
"459 82 OFFCURVE",
"459 190 CURVE SMOOTH",
"459 286 OFFCURVE",
"394 342 OFFCURVE",
"309 342 CURVE SMOOTH",
"185 342 OFFCURVE",
"122 222 OFFCURVE",
"122 135 CURVE SMOOTH",
"122 49 OFFCURVE",
"172 -4 OFFCURVE",
"258 -4 CURVE SMOOTH"
);
}
);
width = 778.83607;
}
);
unicode = 0B1A;
},
{
glyphname = "cha-oriya";
lastChange = "2022-01-27 13:05:19 +0000";
layers = (
{
anchors = (
{
name = bottom;
position = "{494, -19}";
},
{
name = top;
position = "{776, 721}";
}
);
background = {
paths = (
{
closed = 1;
nodes = (
"239 158 OFFCURVE",
"200 171 OFFCURVE",
"183 171 CURVE SMOOTH",
"155 171 OFFCURVE",
"137 150 OFFCURVE",
"137 125 CURVE SMOOTH",
"137 95 OFFCURVE",
"168 70 OFFCURVE",
"195 70 CURVE SMOOTH",
"220 70 OFFCURVE",
"258 95 OFFCURVE",
"275 116 CURVE"
);
},
{
closed = 1;
nodes = (
"339 353 OFFCURVE",
"305 332 OFFCURVE",
"305 294 CURVE SMOOTH",
"305 262 OFFCURVE",
"318 214 OFFCURVE",
"353 214 CURVE SMOOTH",
"384 214 OFFCURVE",
"420 236 OFFCURVE",
"420 274 CURVE SMOOTH",
"420 307 OFFCURVE",
"405 353 OFFCURVE",
"371 353 CURVE SMOOTH"
);
},
{
closed = 1;
nodes = (
"422 97 OFFCURVE",
"459 72 OFFCURVE",
"484 72 CURVE SMOOTH",
"510 72 OFFCURVE",
"541 97 OFFCURVE",
"541 126 CURVE SMOOTH",
"541 150 OFFCURVE",
"523 171 OFFCURVE",
"496 171 CURVE SMOOTH",
"478 171 OFFCURVE",
"440 158 OFFCURVE",
"405 117 CURVE"
);
},
{
closed = 1;
nodes = (
"55 195 OFFCURVE",
"126 245 OFFCURVE",
"182 245 CURVE SMOOTH",
"200 245 OFFCURVE",
"220 239 OFFCURVE",
"227 236 CURVE",
"225 242 OFFCURVE",
"222 257 OFFCURVE",
"222 271 CURVE SMOOTH",
"222 342 OFFCURVE",
"278 435 OFFCURVE",
"378 435 CURVE SMOOTH",
"453 435 OFFCURVE",
"509 385 OFFCURVE",
"509 310 CURVE SMOOTH",
"509 284 OFFCURVE",
"496 253 OFFCURVE",
"486 241 CURVE",
"564 249 OFFCURVE",
"625 185 OFFCURVE",
"625 115 CURVE SMOOTH",
"625 44 OFFCURVE",
"564 -9 OFFCURVE",
"489 -9 CURVE SMOOTH",
"431 -9 OFFCURVE",
"374 33 OFFCURVE",
"336 74 CURVE",
"302 33 OFFCURVE",
"249 -9 OFFCURVE",
"191 -9 CURVE SMOOTH",
"116 -9 OFFCURVE",
"55 44 OFFCURVE",
"55 115 CURVE SMOOTH"
);
},
{
closed = 1;
nodes = (
"814 289 OFFCURVE",
"692 221 OFFCURVE",
"656 221 CURVE SMOOTH",
"649 221 OFFCURVE",
"642 224 OFFCURVE",
"642 232 CURVE SMOOTH",
"642 257 OFFCURVE",
"702 304 OFFCURVE",
"702 377 CURVE SMOOTH",
"702 471 OFFCURVE",
"605 546 OFFCURVE",
"479 546 CURVE SMOOTH",
"323 546 OFFCURVE",
"255 467 OFFCURVE",
"255 436 CURVE SMOOTH",
"255 407 OFFCURVE",
"285 406 OFFCURVE",
"311 419 CURVE",
"269 311 LINE",
"228 311 OFFCURVE",
"141 351 OFFCURVE",
"141 426 CURVE SMOOTH",
"141 523 OFFCURVE",
"258 641 OFFCURVE",
"496 641 CURVE SMOOTH",
"674 641 OFFCURVE",
"814 546 OFFCURVE",
"814 414 CURVE SMOOTH"
);
},
{
closed = 1;
nodes = (
"190 197 LINE",
"156 233 OFFCURVE",
"119 260 OFFCURVE",
"109 260 CURVE SMOOTH",
"102 260 OFFCURVE",
"97 253 OFFCURVE",
"91 253 CURVE SMOOTH",
"88 253 OFFCURVE",
"86 255 OFFCURVE",
"86 260 CURVE SMOOTH",
"86 287 OFFCURVE",
"115 334 OFFCURVE",
"138 334 CURVE SMOOTH",
"161 334 OFFCURVE",
"207 287 OFFCURVE",
"240 240 CURVE"
);
}
);
};
layerId = "555B79C6-6D98-46E7-9307-77C37975E414";
paths = (
{
closed = 1;
nodes = (
"698 216 OFFCURVE",
"823 289 OFFCURVE",
"823 414 CURVE SMOOTH",
"823 546 OFFCURVE",
"684 641 OFFCURVE",
"496 641 CURVE SMOOTH",
"251 641 OFFCURVE",
"131 527 OFFCURVE",
"131 426 CURVE SMOOTH",
"131 351 OFFCURVE",
"211 304 OFFCURVE",
"262 304 CURVE",
"314 432 LINE",
"287 419 OFFCURVE",
"272 423 OFFCURVE",
"272 436 CURVE SMOOTH",
"272 463 OFFCURVE",
"330 526 OFFCURVE",
"479 526 CURVE SMOOTH",
"600 526 OFFCURVE",
"686 461 OFFCURVE",
"686 377 CURVE SMOOTH",
"686 304 OFFCURVE",
"637 257 OFFCURVE",
"637 232 CURVE SMOOTH",
"637 221 OFFCURVE",
"646 216 OFFCURVE",
"656 216 CURVE SMOOTH"
);
},
{
closed = 1;
nodes = (
"173 77 OFFCURVE",
"147 99 OFFCURVE",
"147 124 CURVE SMOOTH",
"147 146 OFFCURVE",
"162 164 OFFCURVE",
"186 164 CURVE SMOOTH",
"201 164 OFFCURVE",
"234 153 OFFCURVE",
"265 117 CURVE",
"251 99 OFFCURVE",
"218 77 OFFCURVE",
"197 77 CURVE SMOOTH"
);
},
{
closed = 1;
nodes = (
"240 250 LINE",
"207 297 OFFCURVE",
"162 344 OFFCURVE",
"138 344 CURVE SMOOTH",
"115 344 OFFCURVE",
"79 290 OFFCURVE",
"79 257 CURVE SMOOTH",
"79 249 OFFCURVE",
"82 246 OFFCURVE",
"86 246 CURVE SMOOTH",
"92 246 OFFCURVE",
"98 254 OFFCURVE",
"105 254 CURVE SMOOTH",
"115 254 OFFCURVE",
"150 233 OFFCURVE",
"184 197 CURVE"
);
},
{
closed = 1;
nodes = (
"254 -19 OFFCURVE",
"302 23 OFFCURVE",
"336 64 CURVE",
"374 23 OFFCURVE",
"427 -19 OFFCURVE",
"494 -19 CURVE SMOOTH",
"573 -19 OFFCURVE",
"640 32 OFFCURVE",
"640 119 CURVE SMOOTH",
"640 190 OFFCURVE",
"581 251 OFFCURVE",
"498 247 CURVE",
"508 259 OFFCURVE",
"521 290 OFFCURVE",
"521 316 CURVE SMOOTH",
"521 385 OFFCURVE",
"467 445 OFFCURVE",
"378 445 CURVE SMOOTH",
"266 445 OFFCURVE",
"216 342 OFFCURVE",
"216 278 CURVE SMOOTH",
"216 263 OFFCURVE",
"219 249 OFFCURVE",
"221 243 CURVE",
"214 246 OFFCURVE",
"200 251 OFFCURVE",
"182 251 CURVE SMOOTH",
"121 251 OFFCURVE",
"40 195 OFFCURVE",
"40 115 CURVE SMOOTH",
"40 32 OFFCURVE",
"106 -19 OFFCURVE",
"186 -19 CURVE SMOOTH"
);
},
{
closed = 1;
nodes = (
"461 79 OFFCURVE",
"429 100 OFFCURVE",
"415 118 CURVE",
"445 153 OFFCURVE",
"477 164 OFFCURVE",
"493 164 CURVE SMOOTH",
"516 164 OFFCURVE",
"531 146 OFFCURVE",
"531 125 CURVE SMOOTH",
"531 100 OFFCURVE",
"505 79 OFFCURVE",
"482 79 CURVE SMOOTH"
);
},
{
closed = 1;
nodes = (
"322 220 OFFCURVE",
"310 264 OFFCURVE",
"310 293 CURVE SMOOTH",
"310 328 OFFCURVE",
"341 347 OFFCURVE",
"370 347 CURVE SMOOTH",
"401 347 OFFCURVE",
"415 305 OFFCURVE",
"415 275 CURVE SMOOTH",
"415 240 OFFCURVE",
"382 220 OFFCURVE",
"354 220 CURVE SMOOTH"
);
}
);
width = 843;
},
{
anchors = (
{
name = bottom;
position = "{484, -9}";
},
{
name = top;
position = "{739, 696}";
}
);
layerId = "08AC27E4-54F0-4C9D-B904-08FC42541096";
paths = (
{
closed = 1;
nodes = (
"687 221 OFFCURVE",
"809 289 OFFCURVE",
"809 414 CURVE SMOOTH",
"809 546 OFFCURVE",
"669 641 OFFCURVE",
"491 641 CURVE SMOOTH",
"253 641 OFFCURVE",
"136 523 OFFCURVE",
"136 426 CURVE SMOOTH",
"136 351 OFFCURVE",
"223 311 OFFCURVE",
"264 311 CURVE",
"306 419 LINE",
"280 406 OFFCURVE",
"250 407 OFFCURVE",
"250 436 CURVE SMOOTH",
"250 467 OFFCURVE",
"318 546 OFFCURVE",
"474 546 CURVE SMOOTH",
"600 546 OFFCURVE",
"697 471 OFFCURVE",
"697 377 CURVE SMOOTH",
"697 304 OFFCURVE",
"637 257 OFFCURVE",
"637 232 CURVE SMOOTH",
"637 224 OFFCURVE",
"644 221 OFFCURVE",
"651 221 CURVE SMOOTH"
);
},
{
closed = 1;
nodes = (
"163 70 OFFCURVE",
"132 95 OFFCURVE",
"132 125 CURVE SMOOTH",
"132 150 OFFCURVE",
"150 171 OFFCURVE",
"178 171 CURVE SMOOTH",
"195 171 OFFCURVE",
"234 158 OFFCURVE",
"270 116 CURVE",
"253 95 OFFCURVE",
"215 70 OFFCURVE",
"190 70 CURVE SMOOTH"
);
},
{
closed = 1;
nodes = (
"235 240 LINE",
"202 287 OFFCURVE",
"156 334 OFFCURVE",
"133 334 CURVE SMOOTH",
"110 334 OFFCURVE",
"81 287 OFFCURVE",
"81 260 CURVE SMOOTH",
"81 255 OFFCURVE",
"83 253 OFFCURVE",
"86 253 CURVE SMOOTH",
"92 253 OFFCURVE",
"97 260 OFFCURVE",
"104 260 CURVE SMOOTH",
"114 260 OFFCURVE",
"151 233 OFFCURVE",
"185 197 CURVE"
);
},
{
closed = 1;
nodes = (
"244 -9 OFFCURVE",
"297 33 OFFCURVE",
"331 74 CURVE",
"369 33 OFFCURVE",
"426 -9 OFFCURVE",
"484 -9 CURVE SMOOTH",
"559 -9 OFFCURVE",
"620 44 OFFCURVE",
"620 115 CURVE SMOOTH",
"620 185 OFFCURVE",
"559 249 OFFCURVE",
"481 241 CURVE",
"491 253 OFFCURVE",
"504 284 OFFCURVE",
"504 310 CURVE SMOOTH",
"504 385 OFFCURVE",
"448 435 OFFCURVE",
"373 435 CURVE SMOOTH",
"273 435 OFFCURVE",
"217 342 OFFCURVE",
"217 271 CURVE SMOOTH",
"217 257 OFFCURVE",
"220 242 OFFCURVE",
"222 236 CURVE",
"215 239 OFFCURVE",
"195 245 OFFCURVE",
"177 245 CURVE SMOOTH",
"121 245 OFFCURVE",
"50 195 OFFCURVE",
"50 115 CURVE SMOOTH",
"50 44 OFFCURVE",
"111 -9 OFFCURVE",
"186 -9 CURVE SMOOTH"
);
},
{
closed = 1;
nodes = (
"454 72 OFFCURVE",
"417 97 OFFCURVE",
"400 117 CURVE",
"435 158 OFFCURVE",
"473 171 OFFCURVE",
"491 171 CURVE SMOOTH",
"518 171 OFFCURVE",
"536 150 OFFCURVE",
"536 126 CURVE SMOOTH",
"536 97 OFFCURVE",
"505 72 OFFCURVE",
"479 72 CURVE SMOOTH"
);
},
{
closed = 1;
nodes = (
"313 214 OFFCURVE",
"300 262 OFFCURVE",
"300 294 CURVE SMOOTH",
"300 332 OFFCURVE",
"334 353 OFFCURVE",
"366 353 CURVE SMOOTH",
"400 353 OFFCURVE",
"415 307 OFFCURVE",
"415 274 CURVE SMOOTH",
"415 236 OFFCURVE",
"379 214 OFFCURVE",
"348 214 CURVE SMOOTH"
);
}
);
width = 848.90164;
}
);
unicode = 0B1B;
},
{
glyphname = "ja-oriya";
lastChange = "2022-01-27 18:31:57 +0000";
layers = (
{
anchors = (
{
name = bottom;
position = "{525, -17}";
},
{
name = top;
position = "{776, 721}";
}
);
background = {
paths = (
{
closed = 1;
nodes = (
"440 242 OFFCURVE",
"490 255 OFFCURVE",
"511 255 CURVE SMOOTH",
"530 255 OFFCURVE",
"530 241 OFFCURVE",
"528 216 CURVE SMOOTH",
"523 171 OFFCURVE",
"515 94 OFFCURVE",
"511 66 CURVE SMOOTH",
"506 29 OFFCURVE",
"500 -14 OFFCURVE",
"525 -14 CURVE SMOOTH",
"560 -14 OFFCURVE",
"612 50 OFFCURVE",
"620 111 CURVE SMOOTH",
"633 208 OFFCURVE",
"638 257 OFFCURVE",
"642 292 CURVE SMOOTH",
"647 340 OFFCURVE",
"621 356 OFFCURVE",
"573 356 CURVE SMOOTH",
"461 356 OFFCURVE",
"311 297 OFFCURVE",
"311 263 CURVE SMOOTH",
"311 242 OFFCURVE",
"371 197 OFFCURVE",
"371 145 CURVE SMOOTH",
"371 99 OFFCURVE",
"322 77 OFFCURVE",
"241 77 CURVE SMOOTH",
"187 77 OFFCURVE",
"160 94 OFFCURVE",
"160 125 CURVE SMOOTH",
"160 204 OFFCURVE",
"271 254 OFFCURVE",
"271 269 CURVE SMOOTH",
"271 283 OFFCURVE",
"262 321 OFFCURVE",
"250 321 CURVE SMOOTH",
"233 321 OFFCURVE",
"50 242 OFFCURVE",
"50 124 CURVE SMOOTH",
"50 61 OFFCURVE",
"99 -8 OFFCURVE",
"238 -8 CURVE SMOOTH",
"374 -7 OFFCURVE",
"467 57 OFFCURVE",
"467 141 CURVE SMOOTH",
"467 190 OFFCURVE",
"440 218 OFFCURVE",
"430 226 CURVE SMOOTH"
);
},
{
closed = 1;
nodes = (
"856 508 OFFCURVE",
"683 617 OFFCURVE",
"490 617 CURVE SMOOTH",
"264 617 OFFCURVE",
"72 511 OFFCURVE",
"72 368 CURVE SMOOTH",
"72 274 OFFCURVE",
"154 228 OFFCURVE",
"190 228 CURVE",
"250 321 LINE",
"216 321 OFFCURVE",
"191 342 OFFCURVE",
"191 377 CURVE SMOOTH",
"191 452 OFFCURVE",
"314 526 OFFCURVE",
"472 526 CURVE SMOOTH",
"632 526 OFFCURVE",
"737 424 OFFCURVE",
"737 330 CURVE SMOOTH",
"737 220 OFFCURVE",
"667 158 OFFCURVE",
"667 133 CURVE SMOOTH",
"667 125 OFFCURVE",
"674 122 OFFCURVE",
"681 122 CURVE SMOOTH",
"717 122 OFFCURVE",
"856 206 OFFCURVE",
"856 356 CURVE SMOOTH"
);
}
);
};
layerId = "555B79C6-6D98-46E7-9307-77C37975E414";
paths = (
{
closed = 1;
nodes = (
"728 119 OFFCURVE",
"873 206 OFFCURVE",
"873 356 CURVE SMOOTH",
"873 516 OFFCURVE",
"707 631 OFFCURVE",
"490 631 CURVE SMOOTH",
"246 631 OFFCURVE",
"56 523 OFFCURVE",
"56 368 CURVE SMOOTH",
"56 261 OFFCURVE",
"152 208 OFFCURVE",
"193 208 CURVE",
"260 333 LINE",
"227 333 OFFCURVE",
"205 348 OFFCURVE",
"205 377 CURVE SMOOTH",
"205 440 OFFCURVE",
"325 506 OFFCURVE",
"472 506 CURVE SMOOTH",
"618 506 OFFCURVE",
"722 416 OFFCURVE",
"722 330 CURVE SMOOTH",
"722 223 OFFCURVE",
"664 158 OFFCURVE",
"664 133 CURVE SMOOTH",
"664 124 OFFCURVE",
"670 119 OFFCURVE",
"683 119 CURVE SMOOTH"
);
},
{
closed = 1;
nodes = (
"374 -17 OFFCURVE",
"477 50 OFFCURVE",
"477 145 CURVE SMOOTH",
"477 186 OFFCURVE",
"453 217 OFFCURVE",
"443 225 CURVE",
"456 235 OFFCURVE",
"488 246 OFFCURVE",
"509 246 CURVE SMOOTH",
"521 246 OFFCURVE",
"530 241 OFFCURVE",
"528 216 CURVE SMOOTH",
"523 171 OFFCURVE",
"515 94 OFFCURVE",
"511 66 CURVE SMOOTH",
"506 29 OFFCURVE",
"500 -17 OFFCURVE",
"525 -17 CURVE SMOOTH",
"567 -17 OFFCURVE",
"627 50 OFFCURVE",
"635 111 CURVE SMOOTH",
"648 208 OFFCURVE",
"653 257 OFFCURVE",
"657 292 CURVE SMOOTH",
"662 340 OFFCURVE",
"636 366 OFFCURVE",
"578 366 CURVE SMOOTH",
"461 366 OFFCURVE",
"301 306 OFFCURVE",
"301 263 CURVE SMOOTH",
"301 242 OFFCURVE",
"361 192 OFFCURVE",
"361 145 CURVE SMOOTH",
"361 110 OFFCURVE",
"310 93 OFFCURVE",
"241 93 CURVE SMOOTH",
"192 93 OFFCURVE",
"174 105 OFFCURVE",
"174 128 CURVE SMOOTH",
"174 197 OFFCURVE",
"284 251 OFFCURVE",
"284 269 CURVE SMOOTH",
"284 283 OFFCURVE",
"272 333 OFFCURVE",
"260 333 CURVE SMOOTH",
"243 333 OFFCURVE",
"40 253 OFFCURVE",
"40 124 CURVE SMOOTH",
"40 54 OFFCURVE",
"99 -18 OFFCURVE",
"238 -18 CURVE SMOOTH"
);
}
);
width = 893;
},
{
anchors = (
{
name = bottom;
position = "{520, -14}";
},
{
name = top;
position = "{749, 696}";
}
);
layerId = "08AC27E4-54F0-4C9D-B904-08FC42541096";
paths = (
{
closed = 1;
nodes = (
"717 122 OFFCURVE",
"856 206 OFFCURVE",
"856 356 CURVE SMOOTH",
"856 508 OFFCURVE",
"683 617 OFFCURVE",
"490 617 CURVE SMOOTH",
"264 617 OFFCURVE",
"72 511 OFFCURVE",
"72 368 CURVE SMOOTH",
"72 274 OFFCURVE",
"154 228 OFFCURVE",
"190 228 CURVE",
"250 321 LINE",
"216 321 OFFCURVE",
"191 342 OFFCURVE",
"191 377 CURVE SMOOTH",
"191 452 OFFCURVE",
"314 526 OFFCURVE",
"472 526 CURVE SMOOTH",
"632 526 OFFCURVE",
"737 424 OFFCURVE",
"737 330 CURVE SMOOTH",
"737 220 OFFCURVE",
"667 158 OFFCURVE",
"667 133 CURVE SMOOTH",
"667 125 OFFCURVE",
"674 122 OFFCURVE",
"681 122 CURVE SMOOTH"
);
},
{
closed = 1;
nodes = (
"374 -5 OFFCURVE",
"464 58 OFFCURVE",
"463 140 CURVE SMOOTH",
"462 188 OFFCURVE",
"436 216 OFFCURVE",
"426 224 CURVE SMOOTH",
"436 241 OFFCURVE",
"487 255 OFFCURVE",
"507 255 CURVE SMOOTH",
"526 255 OFFCURVE",
"526 243 OFFCURVE",
"524 218 CURVE SMOOTH",
"518 174 OFFCURVE",
"507 97 OFFCURVE",
"503 67 CURVE SMOOTH",
"498 29 OFFCURVE",
"493 -14 OFFCURVE",
"520 -14 CURVE SMOOTH",
"557 -14 OFFCURVE",
"610 50 OFFCURVE",
"618 112 CURVE SMOOTH",
"630 208 OFFCURVE",
"635 256 OFFCURVE",
"639 291 CURVE",
"644 338 OFFCURVE",
"619 354 OFFCURVE",
"572 354 CURVE SMOOTH",
"462 354 OFFCURVE",
"315 296 OFFCURVE",
"315 262 CURVE SMOOTH",
"314 241 OFFCURVE",
"373 195 OFFCURVE",
"373 144 CURVE SMOOTH",
"373 98 OFFCURVE",
"325 75 OFFCURVE",
"246 75 CURVE SMOOTH",
"193 75 OFFCURVE",
"168 93 OFFCURVE",
"168 125 CURVE SMOOTH",
"168 204 OFFCURVE",
"277 254 OFFCURVE",
"277 269 CURVE SMOOTH",
"277 284 OFFCURVE",
"268 322 OFFCURVE",
"255 322 CURVE SMOOTH",
"237 322 OFFCURVE",
"54 243 OFFCURVE",
"54 126 CURVE SMOOTH",
"54 64 OFFCURVE",
"103 -5 OFFCURVE",
"240 -5 CURVE SMOOTH"
);
}
);
width = 895.95082;
}
);
unicode = 0B1C;
},
{
glyphname = "jha-oriya";
lastChange = "2022-01-27 13:05:01 +0000";
layers = (
{
anchors = (
{
name = bottom;
position = "{240, -18}";
},
{
name = top;
position = "{696, 721}";
}
);
background = {
paths = (
{
closed = 1;
nodes = (
"173 330 OFFCURVE",
"112 214 OFFCURVE",
"112 130 CURVE SMOOTH",
"112 47 OFFCURVE",
"160 -4 OFFCURVE",
"243 -4 CURVE SMOOTH",
"342 -4 OFFCURVE",
"438 79 OFFCURVE",
"438 183 CURVE SMOOTH",
"438 276 OFFCURVE",
"375 330 OFFCURVE",
"293 330 CURVE SMOOTH"
);
},
{
closed = 1;
nodes = (
"323 245 OFFCURVE",
"339 188 OFFCURVE",
"339 150 CURVE SMOOTH",
"339 101 OFFCURVE",
"296 75 OFFCURVE",
"259 75 CURVE SMOOTH",
"215 75 OFFCURVE",
"200 134 OFFCURVE",
"200 172 CURVE SMOOTH",
"200 219 OFFCURVE",
"241 245 OFFCURVE",
"279 245 CURVE SMOOTH"
);
},
{
closed = 1;
nodes = (
"742 591 OFFCURVE",
"683 635 OFFCURVE",
"653 635 CURVE SMOOTH",
"644 635 OFFCURVE",
"636 630 OFFCURVE",
"636 623 CURVE SMOOTH",
"636 610 OFFCURVE",
"660 575 OFFCURVE",
"660 537 CURVE SMOOTH",
"660 470 OFFCURVE",
"611 418 OFFCURVE",
"527 418 CURVE SMOOTH",
"496 418 OFFCURVE",
"462 434 OFFCURVE",
"462 466 CURVE SMOOTH",
"462 527 OFFCURVE",
"536 570 OFFCURVE",
"534 582 CURVE SMOOTH",
"532 596 OFFCURVE",
"516 630 OFFCURVE",
"502 630 CURVE SMOOTH",
"178 630 OFFCURVE",
"50 480 OFFCURVE",
"50 365 CURVE SMOOTH",
"50 280 OFFCURVE",
"125 228 OFFCURVE",
"167 228 CURVE",
"228 316 LINE",
"196 316 OFFCURVE",
"169 343 OFFCURVE",
"169 378 CURVE SMOOTH",
"169 451 OFFCURVE",
"277 526 OFFCURVE",
"401 526 CURVE",
"377 498 OFFCURVE",
"367 469 OFFCURVE",
"367 442 CURVE SMOOTH",
"368 378 OFFCURVE",
"428 326 OFFCURVE",
"509 326 CURVE SMOOTH",
"642 326 OFFCURVE",
"742 399 OFFCURVE",
"742 518 CURVE SMOOTH"
);
},
{
closed = 1;
nodes = (
"400 9 OFFCURVE",
"445 -34 OFFCURVE",
"477 -34 CURVE SMOOTH",
"520 -34 OFFCURVE",
"558 35 OFFCURVE",
"558 66 CURVE SMOOTH",
"558 71 OFFCURVE",
"557 75 OFFCURVE",
"553 75 CURVE SMOOTH",
"544 75 OFFCURVE",
"523 52 OFFCURVE",
"510 52 CURVE SMOOTH",
"484 52 OFFCURVE",
"435 105 OFFCURVE",
"396 147 CURVE",
"354 57 LINE"
);
}
);
};
layerId = "555B79C6-6D98-46E7-9307-77C37975E414";
paths = (
{
closed = 1;
nodes = (
"239 324 LINE",
"214 324 OFFCURVE",
"184 339 OFFCURVE",
"184 378 CURVE SMOOTH",
"184 445 OFFCURVE",
"303 514 OFFCURVE",
"385 514 CURVE",
"368 495 OFFCURVE",
"356 472 OFFCURVE",
"356 442 CURVE SMOOTH",
"356 372 OFFCURVE",
"415 313 OFFCURVE",
"511 313 CURVE SMOOTH",
"651 313 OFFCURVE",
"751 389 OFFCURVE",
"751 518 CURVE SMOOTH",
"751 592 OFFCURVE",
"686 637 OFFCURVE",
"653 637 CURVE SMOOTH",
"643 637 OFFCURVE",
"634 632 OFFCURVE",
"634 623 CURVE SMOOTH",
"634 607 OFFCURVE",
"651 587 OFFCURVE",
"651 537 CURVE SMOOTH",
"651 476 OFFCURVE",
"598 431 OFFCURVE",
"527 431 CURVE SMOOTH",
"501 431 OFFCURVE",
"477 443 OFFCURVE",
"477 466 CURVE SMOOTH",
"477 518 OFFCURVE",
"552 563 OFFCURVE",
"552 579 CURVE SMOOTH",
"552 592 OFFCURVE",
"537 632 OFFCURVE",
"509 632 CURVE SMOOTH",
"189 632 OFFCURVE",
"40 506 OFFCURVE",
"40 365 CURVE SMOOTH",
"40 268 OFFCURVE",
"127 214 OFFCURVE",
"168 214 CURVE"
);
},
{
closed = 1;
nodes = (
"222 86 OFFCURVE",
"209 137 OFFCURVE",
"209 170 CURVE SMOOTH",
"209 212 OFFCURVE",
"245 234 OFFCURVE",
"278 234 CURVE SMOOTH",
"316 234 OFFCURVE",
"330 184 OFFCURVE",
"330 151 CURVE SMOOTH",
"330 108 OFFCURVE",
"293 86 OFFCURVE",
"260 86 CURVE SMOOTH"
);
},
{
closed = 1;
nodes = (
"348 -18 OFFCURVE",
"451 72 OFFCURVE",
"451 184 CURVE SMOOTH",
"451 286 OFFCURVE",
"383 344 OFFCURVE",
"294 344 CURVE SMOOTH",
"165 344 OFFCURVE",
"99 218 OFFCURVE",
"99 127 CURVE SMOOTH",
"99 37 OFFCURVE",
"150 -18 OFFCURVE",
"240 -18 CURVE SMOOTH"
);
},
{
closed = 1;
nodes = (
"520 -47 OFFCURVE",
"565 31 OFFCURVE",
"565 66 CURVE SMOOTH",
"565 76 OFFCURVE",
"561 86 OFFCURVE",
"555 86 CURVE SMOOTH",
"546 86 OFFCURVE",
"524 63 OFFCURVE",
"510 63 CURVE SMOOTH",
"487 63 OFFCURVE",
"435 114 OFFCURVE",
"396 156 CURVE",
"343 51 LINE",
"389 3 OFFCURVE",
"445 -47 OFFCURVE",
"477 -47 CURVE SMOOTH"
);
}
);
width = 771;
},
{
anchors = (
{
name = bottom;
position = "{243, -4}";
},
{
name = top;
position = "{649, 696}";
}
);
layerId = "08AC27E4-54F0-4C9D-B904-08FC42541096";
paths = (
{
closed = 1;
nodes = (
"228 316 LINE",
"196 316 OFFCURVE",
"169 343 OFFCURVE",
"169 378 CURVE SMOOTH",
"169 451 OFFCURVE",
"277 526 OFFCURVE",
"401 526 CURVE",
"377 498 OFFCURVE",
"367 469 OFFCURVE",
"367 442 CURVE SMOOTH",
"368 378 OFFCURVE",
"428 326 OFFCURVE",
"509 326 CURVE SMOOTH",
"642 326 OFFCURVE",
"742 399 OFFCURVE",
"742 518 CURVE SMOOTH",
"742 591 OFFCURVE",
"683 635 OFFCURVE",
"653 635 CURVE SMOOTH",
"644 635 OFFCURVE",
"636 630 OFFCURVE",
"636 623 CURVE SMOOTH",
"636 610 OFFCURVE",
"660 575 OFFCURVE",
"660 537 CURVE SMOOTH",
"660 470 OFFCURVE",
"611 418 OFFCURVE",
"527 418 CURVE SMOOTH",
"496 418 OFFCURVE",
"462 434 OFFCURVE",
"462 466 CURVE SMOOTH",
"462 527 OFFCURVE",
"534 568 OFFCURVE",
"534 582 CURVE SMOOTH",
"534 596 OFFCURVE",
"516 630 OFFCURVE",
"502 630 CURVE SMOOTH",
"178 630 OFFCURVE",
"50 480 OFFCURVE",
"50 365 CURVE SMOOTH",
"50 280 OFFCURVE",
"125 228 OFFCURVE",
"167 228 CURVE"
);
},
{
closed = 1;
nodes = (
"215 75 OFFCURVE",
"200 134 OFFCURVE",
"200 172 CURVE SMOOTH",
"200 219 OFFCURVE",
"241 245 OFFCURVE",
"279 245 CURVE SMOOTH",
"323 245 OFFCURVE",
"339 188 OFFCURVE",
"339 150 CURVE SMOOTH",
"339 101 OFFCURVE",
"296 75 OFFCURVE",
"259 75 CURVE SMOOTH"
);
},
{
closed = 1;
nodes = (
"342 -4 OFFCURVE",
"438 79 OFFCURVE",
"438 183 CURVE SMOOTH",
"438 276 OFFCURVE",
"375 330 OFFCURVE",
"293 330 CURVE SMOOTH",
"173 330 OFFCURVE",
"112 214 OFFCURVE",
"112 130 CURVE SMOOTH",
"112 47 OFFCURVE",
"160 -4 OFFCURVE",
"243 -4 CURVE SMOOTH"
);
},
{
closed = 1;
nodes = (
"520 -34 OFFCURVE",
"558 35 OFFCURVE",
"558 66 CURVE SMOOTH",
"558 71 OFFCURVE",
"557 75 OFFCURVE",
"553 75 CURVE SMOOTH",
"544 75 OFFCURVE",
"523 52 OFFCURVE",
"510 52 CURVE SMOOTH",
"484 52 OFFCURVE",
"435 105 OFFCURVE",
"396 147 CURVE",
"354 57 LINE",
"400 9 OFFCURVE",
"445 -34 OFFCURVE",
"477 -34 CURVE SMOOTH"
);
}
);
width = 762.14754;
}
);
unicode = 0B1D;
},
{
glyphname = "nya-oriya";
lastChange = "2022-01-27 13:04:53 +0000";
layers = (
{
anchors = (
{
name = bottom;
position = "{366, -51}";
},
{
name = top;
position = "{696, 721}";
}
);
background = {
paths = (
{
closed = 1;
nodes = (
"703 595 OFFCURVE",
"632 648 OFFCURVE",
"561 648 CURVE SMOOTH",
"506 648 OFFCURVE",
"466 616 OFFCURVE",
"453 575 CURVE",
"443 604 OFFCURVE",
"403 645 OFFCURVE",
"343 645 CURVE SMOOTH",
"280 645 OFFCURVE",
"218 593 OFFCURVE",
"218 518 CURVE SMOOTH",
"218 451 OFFCURVE",
"290 410 OFFCURVE",
"319 410 CURVE SMOOTH",
"340 410 OFFCURVE",
"371 458 OFFCURVE",
"371 491 CURVE SMOOTH",
"371 497 OFFCURVE",
"368 501 OFFCURVE",
"364 501 CURVE SMOOTH",
"359 501 OFFCURVE",
"350 488 OFFCURVE",
"341 488 CURVE SMOOTH",
"324 488 OFFCURVE",
"296 503 OFFCURVE",
"296 523 CURVE SMOOTH",
"296 550 OFFCURVE",
"315 574 OFFCURVE",
"342 574 CURVE SMOOTH",
"381 574 OFFCURVE",
"412 534 OFFCURVE",
"412 486 CURVE SMOOTH",
"412 477 OFFCURVE",
"415 472 OFFCURVE",
"424 472 CURVE SMOOTH",
"437 472 OFFCURVE",
"456 472 OFFCURVE",
"477 472 CURVE SMOOTH",
"485 472 OFFCURVE",
"489 474 OFFCURVE",
"489 488 CURVE SMOOTH",
"489 521 OFFCURVE",
"507 571 OFFCURVE",
"556 571 CURVE SMOOTH",
"592 571 OFFCURVE",
"610 539 OFFCURVE",
"610 496 CURVE SMOOTH",
"610 408 OFFCURVE",
"558 352 OFFCURVE",
"417 352 CURVE SMOOTH",
"241 352 OFFCURVE",
"169 438 OFFCURVE",
"169 563 CURVE SMOOTH",
"169 580 OFFCURVE",
"169 593 OFFCURVE",
"159 593 CURVE SMOOTH",
"146 593 OFFCURVE",
"86 547 OFFCURVE",
"86 470 CURVE SMOOTH",
"86 331 OFFCURVE",
"264 266 OFFCURVE",
"408 266 CURVE SMOOTH",
"571 266 OFFCURVE",
"703 335 OFFCURVE",
"703 490 CURVE SMOOTH"
);
},
{
closed = 1;
nodes = (
"684 292 OFFCURVE",
"612 345 OFFCURVE",
"540 345 CURVE SMOOTH",
"485 345 OFFCURVE",
"445 312 OFFCURVE",
"432 272 CURVE",
"423 301 OFFCURVE",
"382 341 OFFCURVE",
"322 341 CURVE SMOOTH",
"259 341 OFFCURVE",
"204 289 OFFCURVE",
"204 215 CURVE SMOOTH",
"204 150 OFFCURVE",
"274 107 OFFCURVE",
"303 107 CURVE SMOOTH",
"325 107 OFFCURVE",
"355 155 OFFCURVE",
"355 189 CURVE SMOOTH",
"355 195 OFFCURVE",
"353 199 OFFCURVE",
"349 199 CURVE SMOOTH",
"344 199 OFFCURVE",
"334 185 OFFCURVE",
"326 185 CURVE SMOOTH",
"308 185 OFFCURVE",
"281 199 OFFCURVE",
"281 219 CURVE SMOOTH",
"281 246 OFFCURVE",
"301 271 OFFCURVE",
"324 271 CURVE SMOOTH",
"365 271 OFFCURVE",
"391 244 OFFCURVE",
"391 196 CURVE SMOOTH",
"391 188 OFFCURVE",
"394 182 OFFCURVE",
"403 182 CURVE SMOOTH",
"416 182 OFFCURVE",
"435 182 OFFCURVE",
"456 182 CURVE SMOOTH",
"464 182 OFFCURVE",
"468 184 OFFCURVE",
"468 198 CURVE SMOOTH",
"468 231 OFFCURVE",
"486 268 OFFCURVE",
"535 268 CURVE SMOOTH",
"576 268 OFFCURVE",
"589 235 OFFCURVE",
"589 193 CURVE SMOOTH",
"589 110 OFFCURVE",
"516 54 OFFCURVE",
"376 54 CURVE SMOOTH",
"201 54 OFFCURVE",
"155 140 OFFCURVE",
"155 221 CURVE SMOOTH",
"155 272 OFFCURVE",
"178 320 OFFCURVE",
"193 334 CURVE",
"152 370 LINE",
"129 357 OFFCURVE",
"52 293 OFFCURVE",
"52 193 CURVE SMOOTH",
"52 69 OFFCURVE",
"148 -37 OFFCURVE",
"366 -37 CURVE SMOOTH",
"530 -37 OFFCURVE",
"684 37 OFFCURVE",
"684 187 CURVE SMOOTH"
);
}
);
};
layerId = "555B79C6-6D98-46E7-9307-77C37975E414";
paths = (
{
closed = 1;
nodes = (
"548 -51 OFFCURVE",
"699 37 OFFCURVE",
"699 187 CURVE SMOOTH",
"699 292 OFFCURVE",
"627 355 OFFCURVE",
"540 355 CURVE SMOOTH",
"485 355 OFFCURVE",
"445 322 OFFCURVE",
"432 282 CURVE",
"423 311 OFFCURVE",
"382 351 OFFCURVE",
"322 351 CURVE SMOOTH",
"259 351 OFFCURVE",
"194 299 OFFCURVE",
"194 215 CURVE SMOOTH",
"194 150 OFFCURVE",
"263 99 OFFCURVE",
"302 99 CURVE SMOOTH",
"331 99 OFFCURVE",
"359 155 OFFCURVE",
"359 189 CURVE SMOOTH",
"359 195 OFFCURVE",
"357 209 OFFCURVE",
"349 209 CURVE SMOOTH",
"344 209 OFFCURVE",
"334 195 OFFCURVE",
"326 195 CURVE SMOOTH",
"311 195 OFFCURVE",
"291 205 OFFCURVE",
"291 219 CURVE SMOOTH",
"291 240 OFFCURVE",
"307 261 OFFCURVE",
"324 261 CURVE SMOOTH",
"354 261 OFFCURVE",
"381 242 OFFCURVE",
"381 196 CURVE SMOOTH",
"381 183 OFFCURVE",
"384 177 OFFCURVE",
"393 177 CURVE SMOOTH",
"406 177 OFFCURVE",
"445 177 OFFCURVE",
"466 177 CURVE SMOOTH",
"474 177 OFFCURVE",
"478 182 OFFCURVE",
"478 198 CURVE SMOOTH",
"478 231 OFFCURVE",
"498 258 OFFCURVE",
"535 258 CURVE SMOOTH",
"567 258 OFFCURVE",
"579 230 OFFCURVE",
"579 193 CURVE SMOOTH",
"579 121 OFFCURVE",
"508 69 OFFCURVE",
"376 69 CURVE SMOOTH",
"226 69 OFFCURVE",
"170 140 OFFCURVE",
"170 221 CURVE SMOOTH",
"170 272 OFFCURVE",
"193 320 OFFCURVE",
"208 334 CURVE",
"151 374 LINE",
"128 361 OFFCURVE",
"40 293 OFFCURVE",
"40 185 CURVE SMOOTH",
"40 69 OFFCURVE",
"133 -51 OFFCURVE",
"366 -51 CURVE SMOOTH"
);
},
{
closed = 1;
nodes = (
"571 256 OFFCURVE",
"713 335 OFFCURVE",
"713 490 CURVE SMOOTH",
"713 595 OFFCURVE",
"645 658 OFFCURVE",
"561 658 CURVE SMOOTH",
"506 658 OFFCURVE",
"466 626 OFFCURVE",
"453 585 CURVE",
"443 614 OFFCURVE",
"403 655 OFFCURVE",
"343 655 CURVE SMOOTH",
"271 655 OFFCURVE",
"208 597 OFFCURVE",
"208 518 CURVE SMOOTH",
"208 451 OFFCURVE",
"279 400 OFFCURVE",
"319 400 CURVE SMOOTH",
"350 400 OFFCURVE",
"376 458 OFFCURVE",
"376 488 CURVE SMOOTH",
"376 498 OFFCURVE",
"371 506 OFFCURVE",
"366 506 CURVE SMOOTH",
"361 506 OFFCURVE",
"352 494 OFFCURVE",
"345 494 CURVE SMOOTH",
"331 494 OFFCURVE",
"306 509 OFFCURVE",
"306 523 CURVE SMOOTH",
"306 550 OFFCURVE",
"329 564 OFFCURVE",
"342 564 CURVE SMOOTH",
"370 564 OFFCURVE",
"402 534 OFFCURVE",
"402 486 CURVE SMOOTH",
"402 473 OFFCURVE",
"405 468 OFFCURVE",
"414 468 CURVE SMOOTH",
"427 468 OFFCURVE",
"466 468 OFFCURVE",
"487 468 CURVE SMOOTH",
"495 468 OFFCURVE",
"499 470 OFFCURVE",
"499 488 CURVE SMOOTH",
"499 521 OFFCURVE",
"520 561 OFFCURVE",
"556 561 CURVE SMOOTH",
"580 561 OFFCURVE",
"600 538 OFFCURVE",
"600 496 CURVE SMOOTH",
"600 408 OFFCURVE",
"533 367 OFFCURVE",
"417 367 CURVE SMOOTH",
"263 367 OFFCURVE",
"174 438 OFFCURVE",
"174 563 CURVE SMOOTH",
"174 586 OFFCURVE",
"171 598 OFFCURVE",
"159 598 CURVE SMOOTH",
"142 598 OFFCURVE",
"76 551 OFFCURVE",
"76 470 CURVE SMOOTH",
"76 331 OFFCURVE",
"264 256 OFFCURVE",
"408 256 CURVE SMOOTH"
);
}
);
width = 733;
},
{
anchors = (
{
name = bottom;
position = "{364, -37}";
},
{
name = top;
position = "{659, 696}";
}
);
layerId = "08AC27E4-54F0-4C9D-B904-08FC42541096";
paths = (
{
closed = 1;
nodes = (
"528 -37 OFFCURVE",
"682 37 OFFCURVE",
"682 187 CURVE SMOOTH",
"682 292 OFFCURVE",
"610 345 OFFCURVE",
"538 345 CURVE SMOOTH",
"483 345 OFFCURVE",
"443 312 OFFCURVE",
"430 272 CURVE",
"421 301 OFFCURVE",
"380 341 OFFCURVE",
"320 341 CURVE SMOOTH",
"257 341 OFFCURVE",
"202 289 OFFCURVE",
"202 215 CURVE SMOOTH",
"202 150 OFFCURVE",
"272 107 OFFCURVE",
"301 107 CURVE SMOOTH",
"323 107 OFFCURVE",
"353 155 OFFCURVE",
"353 189 CURVE SMOOTH",
"353 195 OFFCURVE",
"351 199 OFFCURVE",
"347 199 CURVE SMOOTH",
"342 199 OFFCURVE",
"332 185 OFFCURVE",
"324 185 CURVE SMOOTH",
"306 185 OFFCURVE",
"279 199 OFFCURVE",
"279 219 CURVE SMOOTH",
"279 246 OFFCURVE",
"299 271 OFFCURVE",
"322 271 CURVE SMOOTH",
"363 271 OFFCURVE",
"389 244 OFFCURVE",
"389 196 CURVE SMOOTH",
"389 188 OFFCURVE",
"392 182 OFFCURVE",
"401 182 CURVE SMOOTH",
"414 182 OFFCURVE",
"433 182 OFFCURVE",
"454 182 CURVE SMOOTH",
"462 182 OFFCURVE",
"466 184 OFFCURVE",
"466 198 CURVE SMOOTH",
"466 231 OFFCURVE",
"484 268 OFFCURVE",
"533 268 CURVE SMOOTH",
"574 268 OFFCURVE",
"587 235 OFFCURVE",
"587 193 CURVE SMOOTH",
"587 110 OFFCURVE",
"514 54 OFFCURVE",
"374 54 CURVE SMOOTH",
"199 54 OFFCURVE",
"153 140 OFFCURVE",
"153 221 CURVE SMOOTH",
"153 272 OFFCURVE",
"176 320 OFFCURVE",
"191 334 CURVE",
"150 370 LINE",
"127 357 OFFCURVE",
"50 293 OFFCURVE",
"50 193 CURVE SMOOTH",
"50 69 OFFCURVE",
"146 -37 OFFCURVE",
"364 -37 CURVE SMOOTH"
);
},
{
closed = 1;
nodes = (
"569 266 OFFCURVE",
"701 335 OFFCURVE",
"701 490 CURVE SMOOTH",
"701 595 OFFCURVE",
"630 648 OFFCURVE",
"559 648 CURVE SMOOTH",
"504 648 OFFCURVE",
"464 616 OFFCURVE",
"451 575 CURVE",
"441 604 OFFCURVE",
"401 645 OFFCURVE",
"341 645 CURVE SMOOTH",
"278 645 OFFCURVE",
"216 593 OFFCURVE",
"216 518 CURVE SMOOTH",
"216 451 OFFCURVE",
"288 410 OFFCURVE",
"317 410 CURVE SMOOTH",
"338 410 OFFCURVE",
"369 458 OFFCURVE",
"369 491 CURVE SMOOTH",
"369 497 OFFCURVE",
"366 501 OFFCURVE",
"362 501 CURVE SMOOTH",
"357 501 OFFCURVE",
"348 488 OFFCURVE",
"339 488 CURVE SMOOTH",
"322 488 OFFCURVE",
"294 503 OFFCURVE",
"294 523 CURVE SMOOTH",
"294 550 OFFCURVE",
"313 574 OFFCURVE",
"340 574 CURVE SMOOTH",
"379 574 OFFCURVE",
"410 534 OFFCURVE",
"410 486 CURVE SMOOTH",
"410 477 OFFCURVE",
"413 472 OFFCURVE",
"422 472 CURVE SMOOTH",
"435 472 OFFCURVE",
"454 472 OFFCURVE",
"475 472 CURVE SMOOTH",
"483 472 OFFCURVE",
"487 474 OFFCURVE",
"487 488 CURVE SMOOTH",
"487 521 OFFCURVE",
"505 571 OFFCURVE",
"554 571 CURVE SMOOTH",
"590 571 OFFCURVE",
"608 539 OFFCURVE",
"608 496 CURVE SMOOTH",
"608 408 OFFCURVE",
"556 352 OFFCURVE",
"415 352 CURVE SMOOTH",
"239 352 OFFCURVE",
"167 438 OFFCURVE",
"167 563 CURVE SMOOTH",
"167 580 OFFCURVE",
"167 593 OFFCURVE",
"157 593 CURVE SMOOTH",
"144 593 OFFCURVE",
"84 547 OFFCURVE",
"84 470 CURVE SMOOTH",
"84 331 OFFCURVE",
"262 266 OFFCURVE",
"406 266 CURVE SMOOTH"
);
}
);
width = 740.86885;
}
);
unicode = 0B1E;
},
{
glyphname = "tta-oriya";
lastChange = "2022-01-27 13:04:47 +0000";
layers = (
{
anchors = (
{
name = bottom;
position = "{258, -12}";
},
{
name = top;
position = "{696, 721}";
}
);
background = {
paths = (
{
closed = 1;
nodes = (
"394 342 OFFCURVE",
"459 286 OFFCURVE",
"459 190 CURVE SMOOTH",
"459 82 OFFCURVE",
"358 -4 OFFCURVE",
"258 -4 CURVE SMOOTH",
"172 -4 OFFCURVE",
"122 49 OFFCURVE",
"122 135 CURVE SMOOTH",
"122 222 OFFCURVE",
"185 342 OFFCURVE",
"309 342 CURVE SMOOTH"
);
},
{
closed = 1;
nodes = (
"256 254 OFFCURVE",
"213 227 OFFCURVE",
"213 178 CURVE SMOOTH",
"213 139 OFFCURVE",
"229 78 OFFCURVE",
"274 78 CURVE SMOOTH",
"312 78 OFFCURVE",
"357 105 OFFCURVE",
"357 155 CURVE SMOOTH",
"357 195 OFFCURVE",
"340 254 OFFCURVE",
"295 254 CURVE SMOOTH"
);
},
{
closed = 1;
nodes = (
"711 570 OFFCURVE",
"702 495 OFFCURVE",
"694 387 CURVE SMOOTH",
"689 322 OFFCURVE",
"631 198 OFFCURVE",
"587 198 CURVE SMOOTH",
"560 198 OFFCURVE",
"569 253 OFFCURVE",
"574 290 CURVE SMOOTH",
"578 316 OFFCURVE",
"592 433 OFFCURVE",
"609 617 CURVE SMOOTH",
"610 628 OFFCURVE",
"614 634 OFFCURVE",
"627 634 CURVE SMOOTH",
"676 634 OFFCURVE",
"691 634 OFFCURVE",
"705 634 CURVE SMOOTH",
"718 634 OFFCURVE",
"718 623 OFFCURVE",
"717 615 CURVE SMOOTH"
);
},
{
closed = 1;
nodes = (
"593 454 OFFCURVE",
"493 523 OFFCURVE",
"399 523 CURVE SMOOTH",
"268 523 OFFCURVE",
"169 450 OFFCURVE",
"169 377 CURVE SMOOTH",
"169 342 OFFCURVE",
"194 321 OFFCURVE",
"228 321 CURVE",
"168 228 LINE",
"122 228 OFFCURVE",
"50 283 OFFCURVE",
"50 365 CURVE SMOOTH",
"50 502 OFFCURVE",
"218 617 OFFCURVE",
"410 617 CURVE SMOOTH",
"506 617 OFFCURVE",
"594 577 OFFCURVE",
"621 542 CURVE",
"586 388 LINE"
);
}
);
};
layerId = "555B79C6-6D98-46E7-9307-77C37975E414";
paths = (
{
closed = 1;
nodes = (
"649 198 OFFCURVE",
"719 306 OFFCURVE",
"725 387 CURVE SMOOTH",
"733 495 OFFCURVE",
"739 570 OFFCURVE",
"744 615 CURVE SMOOTH",
"745 623 OFFCURVE",
"745 634 OFFCURVE",
"732 634 CURVE SMOOTH",
"627 634 LINE SMOOTH",
"614 634 OFFCURVE",
"610 628 OFFCURVE",
"609 617 CURVE SMOOTH",
"604 565 LINE",
"555 597 OFFCURVE",
"490 617 OFFCURVE",
"404 617 CURVE SMOOTH",
"221 617 OFFCURVE",
"40 514 OFFCURVE",
"40 363 CURVE SMOOTH",
"40 279 OFFCURVE",
"120 224 OFFCURVE",
"166 224 CURVE",
"243 328 LINE",
"223 328 OFFCURVE",
"188 342 OFFCURVE",
"188 378 CURVE SMOOTH",
"188 427 OFFCURVE",
"268 503 OFFCURVE",
"396 503 CURVE SMOOTH",
"504 503 OFFCURVE",
"592 437 OFFCURVE",
"584 365 CURVE",
"581 340 OFFCURVE",
"578 316 OFFCURVE",
"574 290 CURVE SMOOTH",
"569 253 OFFCURVE",
"560 198 OFFCURVE",
"587 198 CURVE SMOOTH"
);
},
{
closed = 1;
nodes = (
"238 92 OFFCURVE",
"225 143 OFFCURVE",
"225 176 CURVE SMOOTH",
"225 218 OFFCURVE",
"261 240 OFFCURVE",
"294 240 CURVE SMOOTH",
"332 240 OFFCURVE",
"346 190 OFFCURVE",
"346 157 CURVE SMOOTH",
"346 114 OFFCURVE",
"309 92 OFFCURVE",
"276 92 CURVE SMOOTH"
);
},
{
closed = 1;
nodes = (
"364 -12 OFFCURVE",
"467 78 OFFCURVE",
"467 190 CURVE SMOOTH",
"467 292 OFFCURVE",
"399 350 OFFCURVE",
"310 350 CURVE SMOOTH",
"181 350 OFFCURVE",
"114 228 OFFCURVE",
"114 135 CURVE SMOOTH",
"114 45 OFFCURVE",
"166 -12 OFFCURVE",
"258 -12 CURVE SMOOTH"
);
}
);
width = 764;
},
{
anchors = (
{
name = bottom;
position = "{258, -4}";
},
{
name = top;
position = "{659, 696}";
}
);
layerId = "08AC27E4-54F0-4C9D-B904-08FC42541096";
paths = (
{
closed = 1;
nodes = (
"631 198 OFFCURVE",
"689 322 OFFCURVE",
"695 387 CURVE SMOOTH",
"703 495 OFFCURVE",
"711 570 OFFCURVE",
"717 615 CURVE SMOOTH",
"718 623 OFFCURVE",
"718 634 OFFCURVE",
"705 634 CURVE SMOOTH",
"627 634 LINE SMOOTH",
"614 634 OFFCURVE",
"610 628 OFFCURVE",
"609 617 CURVE SMOOTH",
"604 559 LINE",
"566 589 OFFCURVE",
"491 617 OFFCURVE",
"410 617 CURVE SMOOTH",
"218 617 OFFCURVE",
"50 502 OFFCURVE",
"50 365 CURVE SMOOTH",
"50 283 OFFCURVE",
"122 228 OFFCURVE",
"168 228 CURVE",
"228 321 LINE",
"194 321 OFFCURVE",
"169 342 OFFCURVE",
"169 377 CURVE SMOOTH",
"169 450 OFFCURVE",
"268 523 OFFCURVE",
"399 523 CURVE SMOOTH",
"492 523 OFFCURVE",
"590 456 OFFCURVE",
"586 391 CURVE",
"580 337 OFFCURVE",
"576 303 OFFCURVE",
"574 290 CURVE SMOOTH",
"569 253 OFFCURVE",
"560 198 OFFCURVE",
"587 198 CURVE SMOOTH"
);
},
{
closed = 1;
nodes = (
"229 78 OFFCURVE",
"213 139 OFFCURVE",
"213 178 CURVE SMOOTH",
"213 227 OFFCURVE",
"256 254 OFFCURVE",
"295 254 CURVE SMOOTH",
"340 254 OFFCURVE",
"357 195 OFFCURVE",
"357 155 CURVE SMOOTH",
"357 105 OFFCURVE",
"312 78 OFFCURVE",
"274 78 CURVE SMOOTH"
);
},
{
closed = 1;
nodes = (
"358 -4 OFFCURVE",
"459 82 OFFCURVE",
"459 190 CURVE SMOOTH",
"459 286 OFFCURVE",
"394 342 OFFCURVE",
"309 342 CURVE SMOOTH",
"185 342 OFFCURVE",
"122 222 OFFCURVE",
"122 135 CURVE SMOOTH",
"122 49 OFFCURVE",
"172 -4 OFFCURVE",
"258 -4 CURVE SMOOTH"
);
}
);
width = 757.11475;
}
);
unicode = 0B1F;
},
{
glyphname = "ttha-oriya";
lastChange = "2022-01-27 13:04:42 +0000";
layers = (
{
anchors = (
{
name = bottom;
position = "{303, -22}";
},
{
name = top;
position = "{636, 721}";
}
);
background = {
paths = (
{
closed = 1;
nodes = (
"534 616 OFFCURVE",
"632 494 OFFCURVE",
"632 340 CURVE SMOOTH",
"632 143 OFFCURVE",
"483 -13 OFFCURVE",
"304 -13 CURVE SMOOTH",
"145 -13 OFFCURVE",
"49 106 OFFCURVE",
"49 260 CURVE SMOOTH",
"49 457 OFFCURVE",
"154 616 OFFCURVE",
"374 616 CURVE SMOOTH"
);
},
{
closed = 1;
nodes = (
"265 516 OFFCURVE",
"166 454 OFFCURVE",
"166 332 CURVE SMOOTH",
"166 210 OFFCURVE",
"205 87 OFFCURVE",
"312 87 CURVE SMOOTH",
"414 87 OFFCURVE",
"516 154 OFFCURVE",
"516 276 CURVE SMOOTH",
"516 400 OFFCURVE",
"474 516 OFFCURVE",
"366 516 CURVE SMOOTH"
);
}
);
};
layerId = "555B79C6-6D98-46E7-9307-77C37975E414";
paths = (
{
closed = 1;
nodes = (
"487 -22 OFFCURVE",
"641 138 OFFCURVE",
"641 341 CURVE SMOOTH",
"641 500 OFFCURVE",
"540 625 OFFCURVE",
"375 625 CURVE SMOOTH",
"148 625 OFFCURVE",
"40 462 OFFCURVE",
"40 259 CURVE SMOOTH",
"40 100 OFFCURVE",
"139 -22 OFFCURVE",
"303 -22 CURVE SMOOTH"
);
},
{
closed = 1;
nodes = (
"215 103 OFFCURVE",
"179 216 OFFCURVE",
"179 330 CURVE SMOOTH",
"179 442 OFFCURVE",
"271 500 OFFCURVE",
"364 500 CURVE SMOOTH",
"464 500 OFFCURVE",
"503 393 OFFCURVE",
"503 278 CURVE SMOOTH",
"503 165 OFFCURVE",
"408 103 OFFCURVE",
"314 103 CURVE SMOOTH"
);
}
);
width = 661;
},
{
anchors = (
{
name = bottom;
position = "{305, -13}";
},
{
name = top;
position = "{609, 696}";
}
);
layerId = "08AC27E4-54F0-4C9D-B904-08FC42541096";
paths = (
{
closed = 1;
nodes = (
"484 -13 OFFCURVE",
"633 143 OFFCURVE",
"633 340 CURVE SMOOTH",
"633 494 OFFCURVE",
"535 616 OFFCURVE",
"375 616 CURVE SMOOTH",
"155 616 OFFCURVE",
"50 457 OFFCURVE",
"50 260 CURVE SMOOTH",
"50 106 OFFCURVE",
"146 -13 OFFCURVE",
"305 -13 CURVE SMOOTH"
);
},
{
closed = 1;
nodes = (
"206 87 OFFCURVE",
"167 210 OFFCURVE",
"167 332 CURVE SMOOTH",
"167 454 OFFCURVE",
"266 516 OFFCURVE",
"367 516 CURVE SMOOTH",
"475 516 OFFCURVE",
"517 400 OFFCURVE",
"517 276 CURVE SMOOTH",
"517 154 OFFCURVE",
"415 87 OFFCURVE",
"313 87 CURVE SMOOTH"
);
}
);
width = 672.80328;
}
);
unicode = 0B20;
},
{
glyphname = "dda-oriya";
lastChange = "2022-01-27 13:04:34 +0000";
layers = (
{
anchors = (
{
name = bottom;
position = "{250, -17}";
},
{
name = top;
position = "{696, 721}";
}
);
background = {
paths = (
{
closed = 1;
nodes = (
"344 255 OFFCURVE",
"402 216 OFFCURVE",
"402 160 CURVE SMOOTH",
"402 110 OFFCURVE",
"341 84 OFFCURVE",
"253 84 CURVE SMOOTH",
"195 84 OFFCURVE",
"166 103 OFFCURVE",
"166 136 CURVE SMOOTH",
"166 207 OFFCURVE",
"270 249 OFFCURVE",
"270 265 CURVE SMOOTH",
"270 280 OFFCURVE",
"260 321 OFFCURVE",
"247 321 CURVE SMOOTH",
"229 321 OFFCURVE",
"46 254 OFFCURVE",
"47 135 CURVE SMOOTH",
"48 67 OFFCURVE",
"100 -8 OFFCURVE",
"250 -7 CURVE SMOOTH",
"397 -6 OFFCURVE",
"506 65 OFFCURVE",
"506 156 CURVE SMOOTH",
"506 223 OFFCURVE",
"442 274 OFFCURVE",
"438 277 CURVE",
"451 294 OFFCURVE",
"493 315 OFFCURVE",
"506 315 CURVE SMOOTH",
"517 315 OFFCURVE",
"523 301 OFFCURVE",
"530 301 CURVE SMOOTH",
"533 301 OFFCURVE",
"535 304 OFFCURVE",
"535 310 CURVE SMOOTH",
"535 348 OFFCURVE",
"504 405 OFFCURVE",
"478 405 CURVE SMOOTH",
"437 405 OFFCURVE",
"344 320 OFFCURVE",
"344 276 CURVE SMOOTH"
);
},
{
closed = 1;
nodes = (
"608 73 OFFCURVE",
"773 175 OFFCURVE",
"773 340 CURVE SMOOTH",
"773 506 OFFCURVE",
"625 617 OFFCURVE",
"429 617 CURVE SMOOTH",
"240 617 OFFCURVE",
"69 505 OFFCURVE",
"69 368 CURVE SMOOTH",
"69 288 OFFCURVE",
"137 228 OFFCURVE",
"187 228 CURVE",
"247 321 LINE",
"214 321 OFFCURVE",
"188 342 OFFCURVE",
"188 377 CURVE SMOOTH",
"188 450 OFFCURVE",
"287 526 OFFCURVE",
"411 526 CURVE SMOOTH",
"557 526 OFFCURVE",
"657 428 OFFCURVE",
"654 320 CURVE SMOOTH",
"651 210 OFFCURVE",
"558 109 OFFCURVE",
"558 84 CURVE SMOOTH",
"558 76 OFFCURVE",
"565 73 OFFCURVE",
"572 73 CURVE SMOOTH"
);
}
);
};
layerId = "555B79C6-6D98-46E7-9307-77C37975E414";
paths = (
{
closed = 1;
nodes = (
"621 69 OFFCURVE",
"792 184 OFFCURVE",
"792 340 CURVE SMOOTH",
"792 513 OFFCURVE",
"646 631 OFFCURVE",
"429 631 CURVE SMOOTH",
"227 631 OFFCURVE",
"52 523 OFFCURVE",
"52 368 CURVE SMOOTH",
"52 261 OFFCURVE",
"148 208 OFFCURVE",
"189 208 CURVE",
"250 331 LINE",
"225 331 OFFCURVE",
"201 348 OFFCURVE",
"201 377 CURVE SMOOTH",
"201 440 OFFCURVE",
"296 506 OFFCURVE",
"411 506 CURVE SMOOTH",
"553 506 OFFCURVE",
"641 406 OFFCURVE",
"641 320 CURVE SMOOTH",
"641 213 OFFCURVE",
"553 108 OFFCURVE",
"553 82 CURVE SMOOTH",
"553 74 OFFCURVE",
"559 69 OFFCURVE",
"570 69 CURVE SMOOTH"
);
},
{
closed = 1;
nodes = (
"415 -16 OFFCURVE",
"516 63 OFFCURVE",
"516 154 CURVE SMOOTH",
"516 222 OFFCURVE",
"452 273 OFFCURVE",
"448 275 CURVE",
"461 292 OFFCURVE",
"493 303 OFFCURVE",
"506 303 CURVE SMOOTH",
"517 303 OFFCURVE",
"523 289 OFFCURVE",
"530 289 CURVE SMOOTH",
"538 289 OFFCURVE",
"540 299 OFFCURVE",
"540 311 CURVE SMOOTH",
"540 347 OFFCURVE",
"507 413 OFFCURVE",
"478 413 CURVE SMOOTH",
"437 413 OFFCURVE",
"329 318 OFFCURVE",
"329 274 CURVE SMOOTH",
"329 249 OFFCURVE",
"387 214 OFFCURVE",
"387 158 CURVE SMOOTH",
"387 114 OFFCURVE",
"315 99 OFFCURVE",
"257 99 CURVE SMOOTH",
"202 99 OFFCURVE",
"185 115 OFFCURVE",
"185 142 CURVE SMOOTH",
"185 197 OFFCURVE",
"285 241 OFFCURVE",
"285 257 CURVE SMOOTH",
"285 272 OFFCURVE",
"271 331 OFFCURVE",
"250 331 CURVE SMOOTH",
"232 331 OFFCURVE",
"38 258 OFFCURVE",
"40 135 CURVE SMOOTH",
"41 61 OFFCURVE",
"100 -18 OFFCURVE",
"250 -17 CURVE SMOOTH"
);
}
);
width = 812;
},
{
anchors = (
{
name = bottom;
position = "{253, -7}";
},
{
name = top;
position = "{699, 696}";
}
);
layerId = "08AC27E4-54F0-4C9D-B904-08FC42541096";
paths = (
{
closed = 1;
nodes = (
"611 73 OFFCURVE",
"776 175 OFFCURVE",
"776 340 CURVE SMOOTH",
"776 506 OFFCURVE",
"628 617 OFFCURVE",
"432 617 CURVE SMOOTH",
"243 617 OFFCURVE",
"72 505 OFFCURVE",
"72 368 CURVE SMOOTH",
"72 288 OFFCURVE",
"140 228 OFFCURVE",
"190 228 CURVE",
"250 321 LINE",
"217 321 OFFCURVE",
"191 342 OFFCURVE",
"191 377 CURVE SMOOTH",
"191 450 OFFCURVE",
"290 526 OFFCURVE",
"414 526 CURVE SMOOTH",
"560 526 OFFCURVE",
"660 428 OFFCURVE",
"657 320 CURVE SMOOTH",
"654 210 OFFCURVE",
"561 109 OFFCURVE",
"561 84 CURVE SMOOTH",
"561 76 OFFCURVE",
"568 73 OFFCURVE",
"575 73 CURVE SMOOTH"
);
},
{
closed = 1;
nodes = (
"400 -6 OFFCURVE",
"509 65 OFFCURVE",
"509 156 CURVE SMOOTH",
"509 223 OFFCURVE",
"445 274 OFFCURVE",
"441 277 CURVE",
"454 294 OFFCURVE",
"496 315 OFFCURVE",
"509 315 CURVE SMOOTH",
"520 315 OFFCURVE",
"526 301 OFFCURVE",
"533 301 CURVE SMOOTH",
"536 301 OFFCURVE",
"538 304 OFFCURVE",
"538 310 CURVE SMOOTH",
"538 348 OFFCURVE",
"507 405 OFFCURVE",
"481 405 CURVE SMOOTH",
"440 405 OFFCURVE",
"347 320 OFFCURVE",
"347 276 CURVE SMOOTH",
"347 255 OFFCURVE",
"405 216 OFFCURVE",
"405 160 CURVE SMOOTH",
"405 110 OFFCURVE",
"344 84 OFFCURVE",
"256 84 CURVE SMOOTH",
"198 84 OFFCURVE",
"169 103 OFFCURVE",
"169 136 CURVE SMOOTH",
"169 207 OFFCURVE",
"273 249 OFFCURVE",
"273 265 CURVE SMOOTH",
"273 280 OFFCURVE",
"263 321 OFFCURVE",
"250 321 CURVE SMOOTH",
"232 321 OFFCURVE",
"49 254 OFFCURVE",
"50 135 CURVE SMOOTH",
"51 67 OFFCURVE",
"103 -8 OFFCURVE",
"253 -7 CURVE SMOOTH"
);
}
);
width = 815.93443;
}
);
unicode = 0B21;
},
{
glyphname = "ddha-oriya";
lastChange = "2022-01-27 13:04:29 +0000";
layers = (
{
anchors = (
{
name = bottom;
position = "{253, -17}";
},
{
name = top;
position = "{696, 721}";
}
);
background = {
paths = (
{
closed = 1;
nodes = (
"641 123 OFFCURVE",
"776 223 OFFCURVE",
"776 340 CURVE SMOOTH",
"776 506 OFFCURVE",
"628 617 OFFCURVE",
"432 617 CURVE SMOOTH",
"243 617 OFFCURVE",
"72 505 OFFCURVE",
"72 368 CURVE SMOOTH",
"72 288 OFFCURVE",
"139 228 OFFCURVE",
"190 228 CURVE",
"250 321 LINE",
"217 321 OFFCURVE",
"191 342 OFFCURVE",
"191 377 CURVE SMOOTH",
"191 450 OFFCURVE",
"290 526 OFFCURVE",
"414 526 CURVE SMOOTH",
"560 526 OFFCURVE",
"657 428 OFFCURVE",
"657 320 CURVE SMOOTH",
"657 225 OFFCURVE",
"591 159 OFFCURVE",
"591 134 CURVE SMOOTH",
"591 126 OFFCURVE",
"598 123 OFFCURVE",
"605 123 CURVE SMOOTH"
);
},
{
closed = 1;
nodes = (
"429 224 OFFCURVE",
"452 201 OFFCURVE",
"452 178 CURVE SMOOTH",
"452 121 OFFCURVE",
"344 84 OFFCURVE",
"263 84 CURVE SMOOTH",
"198 84 OFFCURVE",
"169 103 OFFCURVE",
"169 136 CURVE SMOOTH",
"169 207 OFFCURVE",
"273 249 OFFCURVE",
"273 265 CURVE SMOOTH",
"273 280 OFFCURVE",
"263 321 OFFCURVE",
"250 321 CURVE SMOOTH",
"232 321 OFFCURVE",
"49 254 OFFCURVE",
"50 135 CURVE SMOOTH",
"51 67 OFFCURVE",
"103 -8 OFFCURVE",
"253 -7 CURVE SMOOTH",
"400 -6 OFFCURVE",
"538 87 OFFCURVE",
"538 180 CURVE SMOOTH",
"538 236 OFFCURVE",
"491 302 OFFCURVE",
"413 302 CURVE SMOOTH",
"343 302 OFFCURVE",
"278 238 OFFCURVE",
"278 162 CURVE SMOOTH",
"278 58 OFFCURVE",
"391 -66 OFFCURVE",
"443 -66 CURVE SMOOTH",
"475 -66 OFFCURVE",
"519 -6 OFFCURVE",
"519 20 CURVE SMOOTH",
"519 26 OFFCURVE",
"517 31 OFFCURVE",
"514 31 CURVE SMOOTH",
"509 31 OFFCURVE",
"496 18 OFFCURVE",
"489 18 CURVE SMOOTH",
"470 18 OFFCURVE",
"359 81 OFFCURVE",
"359 179 CURVE SMOOTH",
"359 205 OFFCURVE",
"380 224 OFFCURVE",
"402 224 CURVE SMOOTH"
);
}
);
};
layerId = "555B79C6-6D98-46E7-9307-77C37975E414";
paths = (
{
closed = 1;
nodes = (
"646 116 OFFCURVE",
"786 208 OFFCURVE",
"786 340 CURVE SMOOTH",
"786 517 OFFCURVE",
"639 622 OFFCURVE",
"432 622 CURVE SMOOTH",
"233 622 OFFCURVE",
"62 514 OFFCURVE",
"62 368 CURVE SMOOTH",
"62 279 OFFCURVE",
"142 224 OFFCURVE",
"188 224 CURVE",
"250 331 LINE",
"234 331 OFFCURVE",
"206 343 OFFCURVE",
"206 378 CURVE SMOOTH",
"206 434 OFFCURVE",
"286 503 OFFCURVE",
"414 503 CURVE SMOOTH",
"548 503 OFFCURVE",
"637 410 OFFCURVE",
"637 320 CURVE SMOOTH",
"637 210 OFFCURVE",
"584 161 OFFCURVE",
"584 134 CURVE SMOOTH",
"584 121 OFFCURVE",
"593 116 OFFCURVE",
"604 116 CURVE SMOOTH"
);
},
{
closed = 1;
nodes = (
"475 -81 OFFCURVE",
"524 -9 OFFCURVE",
"524 22 CURVE SMOOTH",
"524 30 OFFCURVE",
"520 38 OFFCURVE",
"515 38 CURVE SMOOTH",
"509 38 OFFCURVE",
"498 24 OFFCURVE",
"491 24 CURVE SMOOTH",
"472 24 OFFCURVE",
"371 88 OFFCURVE",
"371 179 CURVE SMOOTH",
"371 196 OFFCURVE",
"385 212 OFFCURVE",
"402 212 CURVE SMOOTH",
"420 212 OFFCURVE",
"439 196 OFFCURVE",
"439 178 CURVE SMOOTH",
"439 130 OFFCURVE",
"344 99 OFFCURVE",
"263 99 CURVE SMOOTH",
"200 99 OFFCURVE",
"185 115 OFFCURVE",
"185 142 CURVE SMOOTH",
"185 197 OFFCURVE",
"285 241 OFFCURVE",
"285 257 CURVE SMOOTH",
"285 272 OFFCURVE",
"271 331 OFFCURVE",
"250 331 CURVE SMOOTH",
"232 331 OFFCURVE",
"38 258 OFFCURVE",
"40 135 CURVE SMOOTH",
"41 61 OFFCURVE",
"100 -18 OFFCURVE",
"253 -17 CURVE SMOOTH",
"420 -16 OFFCURVE",
"551 87 OFFCURVE",
"551 180 CURVE SMOOTH",
"551 240 OFFCURVE",
"505 315 OFFCURVE",
"413 315 CURVE SMOOTH",
"343 315 OFFCURVE",
"268 254 OFFCURVE",
"268 162 CURVE SMOOTH",
"268 42 OFFCURVE",
"391 -81 OFFCURVE",
"443 -81 CURVE SMOOTH"
);
}
);
width = 806;
},
{
anchors = (
{
name = bottom;
position = "{253, -7}";
},
{
name = top;
position = "{709, 696}";
}
);
layerId = "08AC27E4-54F0-4C9D-B904-08FC42541096";
paths = (
{
closed = 1;
nodes = (
"641 123 OFFCURVE",
"776 223 OFFCURVE",
"776 340 CURVE SMOOTH",
"776 506 OFFCURVE",
"628 617 OFFCURVE",
"432 617 CURVE SMOOTH",
"243 617 OFFCURVE",
"72 505 OFFCURVE",
"72 368 CURVE SMOOTH",
"72 288 OFFCURVE",
"139 228 OFFCURVE",
"190 228 CURVE",
"250 321 LINE",
"217 321 OFFCURVE",
"191 342 OFFCURVE",
"191 377 CURVE SMOOTH",
"191 450 OFFCURVE",
"290 526 OFFCURVE",
"414 526 CURVE SMOOTH",
"560 526 OFFCURVE",
"657 428 OFFCURVE",
"657 320 CURVE SMOOTH",
"657 225 OFFCURVE",
"591 159 OFFCURVE",
"591 134 CURVE SMOOTH",
"591 126 OFFCURVE",
"598 123 OFFCURVE",
"605 123 CURVE SMOOTH"
);
},
{
closed = 1;
nodes = (
"475 -66 OFFCURVE",
"519 -6 OFFCURVE",
"519 20 CURVE SMOOTH",
"519 26 OFFCURVE",
"517 31 OFFCURVE",
"514 31 CURVE SMOOTH",
"509 31 OFFCURVE",
"496 18 OFFCURVE",
"489 18 CURVE SMOOTH",
"470 18 OFFCURVE",
"359 81 OFFCURVE",
"359 179 CURVE SMOOTH",
"359 205 OFFCURVE",
"380 224 OFFCURVE",
"402 224 CURVE SMOOTH",
"429 224 OFFCURVE",
"452 201 OFFCURVE",
"452 178 CURVE SMOOTH",
"452 121 OFFCURVE",
"344 84 OFFCURVE",
"263 84 CURVE SMOOTH",
"198 84 OFFCURVE",
"169 103 OFFCURVE",
"169 136 CURVE SMOOTH",
"169 207 OFFCURVE",
"273 249 OFFCURVE",
"273 265 CURVE SMOOTH",
"273 280 OFFCURVE",
"263 321 OFFCURVE",
"250 321 CURVE SMOOTH",
"232 321 OFFCURVE",
"49 254 OFFCURVE",
"50 135 CURVE SMOOTH",
"51 67 OFFCURVE",
"103 -8 OFFCURVE",
"253 -7 CURVE SMOOTH",
"400 -6 OFFCURVE",
"538 87 OFFCURVE",
"538 180 CURVE SMOOTH",
"538 236 OFFCURVE",
"491 302 OFFCURVE",
"413 302 CURVE SMOOTH",
"343 302 OFFCURVE",
"278 238 OFFCURVE",
"278 162 CURVE SMOOTH",
"278 58 OFFCURVE",
"391 -66 OFFCURVE",
"443 -66 CURVE SMOOTH"
);
}
);
width = 815.83607;
}
);
unicode = 0B22;
},
{
glyphname = "nna-oriya";
lastChange = "2022-01-27 13:33:09 +0000";
layers = (
{
anchors = (
{
name = bottom;
position = "{580, -2}";
},
{
name = top;
position = "{696, 721}";
}
);
background = {
paths = (
{
closed = 1;
nodes = (
"255 80 OFFCURVE",
"164 116 OFFCURVE",
"164 182 CURVE SMOOTH",
"164 267 OFFCURVE",
"308 311 OFFCURVE",
"308 329 CURVE SMOOTH",
"308 344 OFFCURVE",
"298 385 OFFCURVE",
"285 385 CURVE SMOOTH",
"267 385 OFFCURVE",
"55 310 OFFCURVE",
"55 172 CURVE SMOOTH",
"55 57 OFFCURVE",
"173 -4 OFFCURVE",
"303 -4 CURVE SMOOTH",
"439 -4 OFFCURVE",
"508 52 OFFCURVE",
"508 140 CURVE SMOOTH",
"508 211 OFFCURVE",
"449 258 OFFCURVE",
"368 258 CURVE SMOOTH",
"249 258 OFFCURVE",
"223 150 OFFCURVE",
"238 85 CURVE",
"334 61 LINE",
"313 106 OFFCURVE",
"315 181 OFFCURVE",
"369 181 CURVE SMOOTH",
"397 181 OFFCURVE",
"421 163 OFFCURVE",
"421 133 CURVE SMOOTH",
"421 97 OFFCURVE",
"377 80 OFFCURVE",
"329 80 CURVE SMOOTH"
);
},
{
closed = 1;
nodes = (
"240 617 OFFCURVE",
"104 552 OFFCURVE",
"104 431 CURVE SMOOTH",
"104 349 OFFCURVE",
"189 295 OFFCURVE",
"225 295 CURVE",
"285 385 LINE",
"248 385 OFFCURVE",
"223 407 OFFCURVE",
"223 438 CURVE SMOOTH",
"223 493 OFFCURVE",
"296 523 OFFCURVE",
"380 523 CURVE SMOOTH",
"483 523 OFFCURVE",
"601 463 OFFCURVE",
"592 365 CURVE SMOOTH",
"581 242 OFFCURVE",
"567 119 OFFCURVE",
"564 92 CURVE SMOOTH",
"558 45 OFFCURVE",
"548 0 OFFCURVE",
"575 0 CURVE SMOOTH",
"619 0 OFFCURVE",
"679 110 OFFCURVE",
"687 189 CURVE SMOOTH",
"718 510 OFFCURVE",
"721 589 OFFCURVE",
"724 614 CURVE SMOOTH",
"725 622 OFFCURVE",
"725 633 OFFCURVE",
"712 633 CURVE SMOOTH",
"634 633 LINE SMOOTH",
"621 633 OFFCURVE",
"617 627 OFFCURVE",
"616 616 CURVE SMOOTH",
"610 550 LINE",
"544 593 OFFCURVE",
"471 617 OFFCURVE",
"382 617 CURVE SMOOTH"
);
}
);
};
layerId = "555B79C6-6D98-46E7-9307-77C37975E414";
paths = (
{
closed = 1;
nodes = (
"642 -2 OFFCURVE",
"705 99 OFFCURVE",
"714 191 CURVE SMOOTH",
"729 342 OFFCURVE",
"745 569 OFFCURVE",
"751 614 CURVE SMOOTH",
"752 622 OFFCURVE",
"752 633 OFFCURVE",
"739 633 CURVE SMOOTH",
"634 633 LINE SMOOTH",
"621 633 OFFCURVE",
"617 627 OFFCURVE",
"616 616 CURVE SMOOTH",
"611 558 LINE",
"560 592 OFFCURVE",
"476 620 OFFCURVE",
"382 620 CURVE SMOOTH",
"228 620 OFFCURVE",
"92 559 OFFCURVE",
"92 431 CURVE SMOOTH",
"92 339 OFFCURVE",
"172 284 OFFCURVE",
"218 284 CURVE",
"287 394 LINE",
"270 394 OFFCURVE",
"241 411 OFFCURVE",
"241 438 CURVE SMOOTH",
"241 484 OFFCURVE",
"314 503 OFFCURVE",
"379 503 CURVE SMOOTH",
"502 503 OFFCURVE",
"598 431 OFFCURVE",
"590 339 CURVE SMOOTH",
"579 216 OFFCURVE",
"566 108 OFFCURVE",
"562 80 CURVE SMOOTH",
"557 43 OFFCURVE",
"553 -2 OFFCURVE",
"580 -2 CURVE SMOOTH"
);
},
{
closed = 1;
nodes = (
"459 -14 OFFCURVE",
"523 52 OFFCURVE",
"523 140 CURVE SMOOTH",
"523 211 OFFCURVE",
"463 271 OFFCURVE",
"368 271 CURVE SMOOTH",
"249 271 OFFCURVE",
"208 163 OFFCURVE",
"226 85 CURVE",
"347 61 LINE",
"326 106 OFFCURVE",
"327 169 OFFCURVE",
"369 169 CURVE SMOOTH",
"390 169 OFFCURVE",
"408 154 OFFCURVE",
"408 133 CURVE SMOOTH",
"408 107 OFFCURVE",
"377 95 OFFCURVE",
"329 95 CURVE SMOOTH",
"255 95 OFFCURVE",
"184 128 OFFCURVE",
"184 182 CURVE SMOOTH",
"184 267 OFFCURVE",
"318 306 OFFCURVE",
"318 324 CURVE SMOOTH",
"318 339 OFFCURVE",
"303 394 OFFCURVE",
"287 394 CURVE SMOOTH",
"269 394 OFFCURVE",
"40 310 OFFCURVE",
"40 172 CURVE SMOOTH",
"40 42 OFFCURVE",
"173 -14 OFFCURVE",
"303 -14 CURVE SMOOTH"
);
}
);
width = 771;
},
{
anchors = (
{
name = bottom;
position = "{570, 0}";
},
{
name = top;
position = "{679, 696}";
}
);
layerId = "08AC27E4-54F0-4C9D-B904-08FC42541096";
paths = (
{
closed = 1;
nodes = (
"614 0 OFFCURVE",
"675 110 OFFCURVE",
"683 189 CURVE SMOOTH",
"713 507 OFFCURVE",
"716 589 OFFCURVE",
"720 614 CURVE SMOOTH",
"721 622 OFFCURVE",
"721 633 OFFCURVE",
"708 633 CURVE SMOOTH",
"629 633 LINE SMOOTH",
"616 633 OFFCURVE",
"612 627 OFFCURVE",
"611 616 CURVE SMOOTH",
"605 550 LINE",
"539 593 OFFCURVE",
"466 617 OFFCURVE",
"377 617 CURVE SMOOTH",
"235 617 OFFCURVE",
"99 552 OFFCURVE",
"99 431 CURVE SMOOTH",
"99 349 OFFCURVE",
"184 295 OFFCURVE",
"220 295 CURVE",
"280 385 LINE",
"243 385 OFFCURVE",
"218 407 OFFCURVE",
"218 438 CURVE SMOOTH",
"218 493 OFFCURVE",
"291 523 OFFCURVE",
"375 523 CURVE SMOOTH",
"478 523 OFFCURVE",
"596 462 OFFCURVE",
"587 365 CURVE SMOOTH",
"576 242 OFFCURVE",
"562 119 OFFCURVE",
"559 92 CURVE SMOOTH",
"553 45 OFFCURVE",
"543 0 OFFCURVE",
"570 0 CURVE SMOOTH"
);
},
{
closed = 1;
nodes = (
"434 -4 OFFCURVE",
"503 52 OFFCURVE",
"503 140 CURVE SMOOTH",
"503 211 OFFCURVE",
"444 258 OFFCURVE",
"363 258 CURVE SMOOTH",
"244 258 OFFCURVE",
"218 150 OFFCURVE",
"233 85 CURVE",
"329 61 LINE",
"308 106 OFFCURVE",
"310 181 OFFCURVE",
"364 181 CURVE SMOOTH",
"392 181 OFFCURVE",
"416 163 OFFCURVE",
"416 133 CURVE SMOOTH",
"416 97 OFFCURVE",
"372 80 OFFCURVE",
"324 80 CURVE SMOOTH",
"250 80 OFFCURVE",
"159 116 OFFCURVE",
"159 182 CURVE SMOOTH",
"159 267 OFFCURVE",
"303 311 OFFCURVE",
"303 329 CURVE SMOOTH",
"303 344 OFFCURVE",
"293 385 OFFCURVE",
"280 385 CURVE SMOOTH",
"262 385 OFFCURVE",
"50 310 OFFCURVE",
"50 172 CURVE SMOOTH",
"50 57 OFFCURVE",
"168 -4 OFFCURVE",
"298 -4 CURVE SMOOTH"
);
}
);
width = 759.19672;
}
);
unicode = 0B23;
},
{
glyphname = "ta.-oriya";
lastChange = "2022-01-27 13:04:14 +0000";
layers = (
{
anchors = (
{
name = bottom;
position = "{258, -17}";
},
{
name = top;
position = "{696, 721}";
}
);
background = {
paths = (
{
closed = 1;
nodes = (
"641 123 OFFCURVE",
"776 216 OFFCURVE",
"776 354 CURVE SMOOTH",
"776 506 OFFCURVE",
"628 617 OFFCURVE",
"432 617 CURVE SMOOTH",
"243 617 OFFCURVE",
"72 505 OFFCURVE",
"72 368 CURVE SMOOTH",
"72 295 OFFCURVE",
"134 228 OFFCURVE",
"190 228 CURVE",
"250 321 LINE",
"218 321 OFFCURVE",
"191 342 OFFCURVE",
"191 377 CURVE SMOOTH",
"191 450 OFFCURVE",
"290 526 OFFCURVE",
"414 526 CURVE SMOOTH",
"560 526 OFFCURVE",
"657 428 OFFCURVE",
"657 320 CURVE SMOOTH",
"657 225 OFFCURVE",
"591 159 OFFCURVE",
"591 134 CURVE SMOOTH",
"591 126 OFFCURVE",
"598 123 OFFCURVE",
"605 123 CURVE SMOOTH"
);
},
{
closed = 1;
nodes = (
"490 304 OFFCURVE",
"420 304 CURVE SMOOTH",
"378 304 OFFCURVE",
"299 282 OFFCURVE",
"299 239 CURVE SMOOTH",
"299 204 OFFCURVE",
"331 162 OFFCURVE",
"350 162 CURVE SMOOTH",
"358 162 OFFCURVE",
"355 175 OFFCURVE",
"355 186 CURVE SMOOTH",
"355 198 OFFCURVE",
"392 222 OFFCURVE",
"408 222 CURVE SMOOTH",
"427 222 OFFCURVE",
"441 194 OFFCURVE",
"441 160 CURVE SMOOTH",
"441 113 OFFCURVE",
"344 84 OFFCURVE",
"256 84 CURVE SMOOTH",
"198 84 OFFCURVE",
"169 103 OFFCURVE",
"169 136 CURVE SMOOTH",
"169 207 OFFCURVE",
"273 249 OFFCURVE",
"273 265 CURVE SMOOTH",
"273 280 OFFCURVE",
"263 321 OFFCURVE",
"250 321 CURVE SMOOTH",
"232 321 OFFCURVE",
"49 254 OFFCURVE",
"50 135 CURVE SMOOTH",
"51 67 OFFCURVE",
"103 -8 OFFCURVE",
"247 -7 CURVE SMOOTH",
"423 -6 OFFCURVE",
"536 68 OFFCURVE",
"536 169 CURVE SMOOTH",
"536 247 OFFCURVE"
);
},
{
closed = 1;
nodes = (
"641 123 OFFCURVE",
"776 216 OFFCURVE",
"776 354 CURVE SMOOTH",
"776 506 OFFCURVE",
"628 617 OFFCURVE",
"432 617 CURVE SMOOTH",
"243 617 OFFCURVE",
"72 505 OFFCURVE",
"72 368 CURVE SMOOTH",
"72 295 OFFCURVE",
"134 228 OFFCURVE",
"190 228 CURVE",
"250 321 LINE",
"218 321 OFFCURVE",
"191 342 OFFCURVE",
"191 377 CURVE SMOOTH",
"191 450 OFFCURVE",
"290 526 OFFCURVE",
"414 526 CURVE SMOOTH",
"560 526 OFFCURVE",
"657 428 OFFCURVE",
"657 320 CURVE SMOOTH",
"657 225 OFFCURVE",
"591 159 OFFCURVE",
"591 134 CURVE SMOOTH",
"591 126 OFFCURVE",
"598 123 OFFCURVE",
"605 123 CURVE SMOOTH"
);
},
{
closed = 1;
nodes = (
"490 304 OFFCURVE",
"420 304 CURVE SMOOTH",
"378 304 OFFCURVE",
"299 282 OFFCURVE",
"299 239 CURVE SMOOTH",
"299 204 OFFCURVE",
"331 162 OFFCURVE",
"350 162 CURVE SMOOTH",
"358 162 OFFCURVE",
"355 175 OFFCURVE",
"355 186 CURVE SMOOTH",
"355 198 OFFCURVE",
"392 222 OFFCURVE",
"408 222 CURVE SMOOTH",
"427 222 OFFCURVE",
"441 194 OFFCURVE",
"441 160 CURVE SMOOTH",
"441 113 OFFCURVE",
"344 84 OFFCURVE",
"256 84 CURVE SMOOTH",
"198 84 OFFCURVE",
"169 103 OFFCURVE",
"169 136 CURVE SMOOTH",
"169 207 OFFCURVE",
"273 249 OFFCURVE",
"273 265 CURVE SMOOTH",
"273 280 OFFCURVE",
"263 321 OFFCURVE",
"250 321 CURVE SMOOTH",
"232 321 OFFCURVE",
"49 254 OFFCURVE",
"50 135 CURVE SMOOTH",
"51 67 OFFCURVE",
"103 -8 OFFCURVE",
"247 -7 CURVE SMOOTH",
"423 -6 OFFCURVE",
"536 68 OFFCURVE",
"536 169 CURVE SMOOTH",
"536 247 OFFCURVE"
);
},
{
closed = 1;
nodes = (
"641 123 OFFCURVE",
"776 216 OFFCURVE",
"776 354 CURVE SMOOTH",
"776 506 OFFCURVE",
"628 617 OFFCURVE",
"432 617 CURVE SMOOTH",
"243 617 OFFCURVE",
"72 505 OFFCURVE",
"72 368 CURVE SMOOTH",
"72 295 OFFCURVE",
"134 228 OFFCURVE",
"190 228 CURVE",
"250 321 LINE",
"218 321 OFFCURVE",
"191 342 OFFCURVE",
"191 377 CURVE SMOOTH",
"191 450 OFFCURVE",
"290 526 OFFCURVE",
"414 526 CURVE SMOOTH",
"560 526 OFFCURVE",
"657 428 OFFCURVE",
"657 320 CURVE SMOOTH",
"657 225 OFFCURVE",
"591 159 OFFCURVE",
"591 134 CURVE SMOOTH",
"591 126 OFFCURVE",
"598 123 OFFCURVE",
"605 123 CURVE SMOOTH"
);
},
{
closed = 1;
nodes = (
"490 304 OFFCURVE",
"420 304 CURVE SMOOTH",
"378 304 OFFCURVE",
"299 282 OFFCURVE",
"299 239 CURVE SMOOTH",
"299 204 OFFCURVE",
"331 162 OFFCURVE",
"350 162 CURVE SMOOTH",
"358 162 OFFCURVE",
"355 175 OFFCURVE",
"355 186 CURVE SMOOTH",
"355 198 OFFCURVE",
"392 222 OFFCURVE",
"408 222 CURVE SMOOTH",
"427 222 OFFCURVE",
"441 194 OFFCURVE",
"441 160 CURVE SMOOTH",
"441 113 OFFCURVE",
"344 84 OFFCURVE",
"256 84 CURVE SMOOTH",
"198 84 OFFCURVE",
"169 103 OFFCURVE",
"169 136 CURVE SMOOTH",
"169 207 OFFCURVE",
"273 249 OFFCURVE",
"273 265 CURVE SMOOTH",
"273 280 OFFCURVE",
"263 321 OFFCURVE",
"250 321 CURVE SMOOTH",
"232 321 OFFCURVE",
"49 254 OFFCURVE",
"50 135 CURVE SMOOTH",
"51 67 OFFCURVE",
"103 -8 OFFCURVE",
"247 -7 CURVE SMOOTH",
"423 -6 OFFCURVE",
"536 68 OFFCURVE",
"536 169 CURVE SMOOTH",
"536 247 OFFCURVE"
);
}
);
};
layerId = "555B79C6-6D98-46E7-9307-77C37975E414";
paths = (
{
closed = 1;
nodes = (
"648 119 OFFCURVE",
"795 211 OFFCURVE",
"795 354 CURVE SMOOTH",
"795 510 OFFCURVE",
"649 631 OFFCURVE",
"432 631 CURVE SMOOTH",
"230 631 OFFCURVE",
"55 523 OFFCURVE",
"55 368 CURVE SMOOTH",
"55 261 OFFCURVE",
"151 208 OFFCURVE",
"192 208 CURVE",
"250 331 LINE",
"229 331 OFFCURVE",
"204 348 OFFCURVE",
"204 377 CURVE SMOOTH",
"204 440 OFFCURVE",
"299 506 OFFCURVE",
"414 506 CURVE SMOOTH",
"556 506 OFFCURVE",
"644 406 OFFCURVE",
"644 320 CURVE SMOOTH",
"644 213 OFFCURVE",
"588 158 OFFCURVE",
"588 132 CURVE SMOOTH",
"588 124 OFFCURVE",
"594 119 OFFCURVE",
"605 119 CURVE SMOOTH"
);
},
{
closed = 1;
nodes = (
"429 -16 OFFCURVE",
"551 54 OFFCURVE",
"551 169 CURVE SMOOTH",
"551 247 OFFCURVE",
"505 314 OFFCURVE",
"420 314 CURVE SMOOTH",
"365 314 OFFCURVE",
"294 289 OFFCURVE",
"294 240 CURVE SMOOTH",
"294 205 OFFCURVE",
"328 157 OFFCURVE",
"353 157 CURVE SMOOTH",
"363 157 OFFCURVE",
"359 167 OFFCURVE",
"359 178 CURVE SMOOTH",
"359 190 OFFCURVE",
"392 212 OFFCURVE",
"408 212 CURVE SMOOTH",
"420 212 OFFCURVE",
"429 186 OFFCURVE",
"429 160 CURVE SMOOTH",
"429 130 OFFCURVE",
"350 99 OFFCURVE",
"262 99 CURVE SMOOTH",
"207 99 OFFCURVE",
"185 115 OFFCURVE",
"185 142 CURVE SMOOTH",
"185 197 OFFCURVE",
"285 241 OFFCURVE",
"285 257 CURVE SMOOTH",
"285 272 OFFCURVE",
"271 331 OFFCURVE",
"250 331 CURVE SMOOTH",
"232 331 OFFCURVE",
"39 262 OFFCURVE",
"40 135 CURVE SMOOTH",
"41 50 OFFCURVE",
"103 -18 OFFCURVE",
"258 -17 CURVE SMOOTH"
);
}
);
width = 815;
},
{
anchors = (
{
name = bottom;
position = "{247, -7}";
},
{
name = top;
position = "{642, 693}";
}
);
layerId = "08AC27E4-54F0-4C9D-B904-08FC42541096";
paths = (
{
closed = 1;
nodes = (
"641 123 OFFCURVE",
"776 216 OFFCURVE",
"776 354 CURVE SMOOTH",
"776 506 OFFCURVE",
"628 617 OFFCURVE",
"432 617 CURVE SMOOTH",
"243 617 OFFCURVE",
"72 505 OFFCURVE",
"72 368 CURVE SMOOTH",
"72 294 OFFCURVE",
"134 228 OFFCURVE",
"190 228 CURVE",
"250 321 LINE",
"218 321 OFFCURVE",
"191 342 OFFCURVE",
"191 377 CURVE SMOOTH",
"191 450 OFFCURVE",
"290 526 OFFCURVE",
"414 526 CURVE SMOOTH",
"560 526 OFFCURVE",
"657 428 OFFCURVE",
"657 320 CURVE SMOOTH",
"657 225 OFFCURVE",
"591 159 OFFCURVE",
"591 134 CURVE SMOOTH",
"591 126 OFFCURVE",
"598 123 OFFCURVE",
"605 123 CURVE SMOOTH"
);
},
{
closed = 1;
nodes = (
"423 -6 OFFCURVE",
"536 68 OFFCURVE",
"536 169 CURVE SMOOTH",
"536 247 OFFCURVE",
"490 304 OFFCURVE",
"420 304 CURVE SMOOTH",
"378 304 OFFCURVE",
"299 282 OFFCURVE",
"299 239 CURVE SMOOTH",
"299 204 OFFCURVE",
"331 162 OFFCURVE",
"350 162 CURVE SMOOTH",
"358 162 OFFCURVE",
"355 175 OFFCURVE",
"355 186 CURVE SMOOTH",
"355 198 OFFCURVE",
"392 222 OFFCURVE",
"408 222 CURVE SMOOTH",
"427 222 OFFCURVE",
"441 194 OFFCURVE",
"441 160 CURVE SMOOTH",
"441 113 OFFCURVE",
"344 84 OFFCURVE",
"256 84 CURVE SMOOTH",
"198 84 OFFCURVE",
"169 103 OFFCURVE",
"169 136 CURVE SMOOTH",
"169 207 OFFCURVE",
"273 249 OFFCURVE",
"273 265 CURVE SMOOTH",
"273 280 OFFCURVE",
"263 321 OFFCURVE",
"250 321 CURVE SMOOTH",
"232 321 OFFCURVE",
"49 254 OFFCURVE",
"50 135 CURVE SMOOTH",
"51 67 OFFCURVE",
"103 -8 OFFCURVE",
"247 -7 CURVE SMOOTH"
);
}
);
width = 815.98361;
}
);
unicode = 0B24;
},
{
glyphname = "tha-oriya";
lastChange = "2022-01-27 13:05:26 +0000";
layers = (
{
anchors = (
{
name = bottom;
position = "{248, 9}";
},
{
name = top;
position = "{696, 721}";
}
);
background = {
paths = (
{
closed = 1;
nodes = (
"643 595 OFFCURVE",
"643 606 OFFCURVE",
"630 606 CURVE SMOOTH",
"616 606 OFFCURVE",
"601 606 OFFCURVE",
"552 606 CURVE SMOOTH",
"539 606 OFFCURVE",
"535 600 OFFCURVE",
"534 589 CURVE SMOOTH",
"515 380 OFFCURVE",
"486 108 OFFCURVE",
"482 80 CURVE SMOOTH",
"477 43 OFFCURVE",
"469 0 OFFCURVE",
"496 0 CURVE SMOOTH",
"540 0 OFFCURVE",
"599 110 OFFCURVE",
"607 189 CURVE SMOOTH",
"622 340 OFFCURVE",
"636 542 OFFCURVE",
"642 587 CURVE SMOOTH"
);
},
{
closed = 1;
nodes = (
"490 173 OFFCURVE",
"333 118 OFFCURVE",
"253 118 CURVE SMOOTH",
"201 118 OFFCURVE",
"173 140 OFFCURVE",
"173 166 CURVE SMOOTH",
"173 237 OFFCURVE",
"461 283 OFFCURVE",
"461 478 CURVE SMOOTH",
"461 578 OFFCURVE",
"375 614 OFFCURVE",
"307 614 CURVE SMOOTH",
"213 614 OFFCURVE",
"140 558 OFFCURVE",
"140 482 CURVE SMOOTH",
"140 415 OFFCURVE",
"212 367 OFFCURVE",
"244 367 CURVE SMOOTH",
"274 367 OFFCURVE",
"309 426 OFFCURVE",
"309 463 CURVE SMOOTH",
"309 466 OFFCURVE",
"308 469 OFFCURVE",
"305 469 CURVE SMOOTH",
"299 469 OFFCURVE",
"291 454 OFFCURVE",
"281 454 CURVE SMOOTH",
"266 454 OFFCURVE",
"244 465 OFFCURVE",
"244 486 CURVE SMOOTH",
"244 509 OFFCURVE",
"263 523 OFFCURVE",
"299 523 CURVE SMOOTH",
"333 523 OFFCURVE",
"365 509 OFFCURVE",
"365 466 CURVE SMOOTH",
"365 352 OFFCURVE",
"54 295 OFFCURVE",
"54 159 CURVE SMOOTH",
"54 82 OFFCURVE",
"125 19 OFFCURVE",
"248 19 CURVE SMOOTH",
"371 19 OFFCURVE",
"459 69 OFFCURVE",
"508 104 CURVE",
"502 264 LINE"
);
}
);
};
layerId = "555B79C6-6D98-46E7-9307-77C37975E414";
paths = (
{
closed = 1;
nodes = (
"366 9 OFFCURVE",
"452 49 OFFCURVE",
"511 93 CURVE",
"504 282 LINE",
"494 213 OFFCURVE",
"363 133 OFFCURVE",
"253 133 CURVE SMOOTH",
"214 133 OFFCURVE",
"187 146 OFFCURVE",
"187 166 CURVE SMOOTH",
"187 218 OFFCURVE",
"477 282 OFFCURVE",
"477 478 CURVE SMOOTH",
"477 558 OFFCURVE",
"411 617 OFFCURVE",
"307 617 CURVE SMOOTH",
"228 617 OFFCURVE",
"130 573 OFFCURVE",
"130 482 CURVE SMOOTH",
"130 406 OFFCURVE",
"207 367 OFFCURVE",
"244 367 CURVE SMOOTH",
"282 367 OFFCURVE",
"315 430 OFFCURVE",
"315 464 CURVE SMOOTH",
"315 474 OFFCURVE",
"312 484 OFFCURVE",
"306 484 CURVE SMOOTH",
"301 484 OFFCURVE",
"288 468 OFFCURVE",
"281 468 CURVE SMOOTH",
"271 468 OFFCURVE",
"257 472 OFFCURVE",
"257 486 CURVE SMOOTH",
"257 503 OFFCURVE",
"271 515 OFFCURVE",
"299 515 CURVE SMOOTH",
"328 515 OFFCURVE",
"351 501 OFFCURVE",
"351 466 CURVE SMOOTH",
"351 347 OFFCURVE",
"40 310 OFFCURVE",
"40 159 CURVE SMOOTH",
"40 73 OFFCURVE",
"115 9 OFFCURVE",
"248 9 CURVE SMOOTH"
);
},
{
closed = 1;
nodes = (
"544 -2 OFFCURVE",
"624 73 OFFCURVE",
"634 189 CURVE SMOOTH",
"647 340 OFFCURVE",
"663 543 OFFCURVE",
"669 588 CURVE SMOOTH",
"670 596 OFFCURVE",
"670 607 OFFCURVE",
"657 607 CURVE SMOOTH",
"643 607 OFFCURVE",
"628 607 OFFCURVE",
"552 607 CURVE SMOOTH",
"539 607 OFFCURVE",
"535 601 OFFCURVE",
"534 590 CURVE SMOOTH",
"517 403 OFFCURVE",
"495 172 OFFCURVE",
"482 78 CURVE SMOOTH",
"477 41 OFFCURVE",
"473 -2 OFFCURVE",
"500 -2 CURVE SMOOTH"
);
}
);
width = 689;
},
{
anchors = (
{
name = bottom;
position = "{492, 0}";
},
{
name = top;
position = "{669, 696}";
}
);
layerId = "08AC27E4-54F0-4C9D-B904-08FC42541096";
paths = (
{
closed = 1;
nodes = (
"367 19 OFFCURVE",
"455 69 OFFCURVE",
"504 104 CURVE",
"498 264 LINE",
"486 174 OFFCURVE",
"330 118 OFFCURVE",
"249 118 CURVE SMOOTH",
"197 118 OFFCURVE",
"169 140 OFFCURVE",
"169 166 CURVE SMOOTH",
"169 237 OFFCURVE",
"457 283 OFFCURVE",
"457 478 CURVE SMOOTH",
"457 578 OFFCURVE",
"372 614 OFFCURVE",
"303 614 CURVE SMOOTH",
"209 614 OFFCURVE",
"136 558 OFFCURVE",
"136 482 CURVE SMOOTH",
"136 415 OFFCURVE",
"208 367 OFFCURVE",
"240 367 CURVE SMOOTH",
"270 367 OFFCURVE",
"305 426 OFFCURVE",
"305 463 CURVE SMOOTH",
"305 466 OFFCURVE",
"304 469 OFFCURVE",
"301 469 CURVE SMOOTH",
"295 469 OFFCURVE",
"287 454 OFFCURVE",
"277 454 CURVE SMOOTH",
"262 454 OFFCURVE",
"240 465 OFFCURVE",
"240 486 CURVE SMOOTH",
"240 509 OFFCURVE",
"259 523 OFFCURVE",
"295 523 CURVE SMOOTH",
"329 523 OFFCURVE",
"361 509 OFFCURVE",
"361 466 CURVE SMOOTH",
"361 352 OFFCURVE",
"50 295 OFFCURVE",
"50 159 CURVE SMOOTH",
"50 82 OFFCURVE",
"121 19 OFFCURVE",
"244 19 CURVE SMOOTH"
);
},
{
closed = 1;
nodes = (
"536 0 OFFCURVE",
"595 109 OFFCURVE",
"604 189 CURVE SMOOTH",
"618 340 OFFCURVE",
"633 543 OFFCURVE",
"639 588 CURVE SMOOTH",
"640 596 OFFCURVE",
"640 607 OFFCURVE",
"627 607 CURVE SMOOTH",
"613 607 OFFCURVE",
"598 607 OFFCURVE",
"548 607 CURVE SMOOTH",
"535 607 OFFCURVE",
"531 601 OFFCURVE",
"530 590 CURVE SMOOTH",
"511 381 OFFCURVE",
"482 109 OFFCURVE",
"478 80 CURVE SMOOTH",
"473 43 OFFCURVE",
"465 0 OFFCURVE",
"492 0 CURVE SMOOTH"
);
}
);
width = 678.18033;
}
);
unicode = 0B25;
},
{
glyphname = "da-oriya";
lastChange = "2022-01-27 13:05:38 +0000";
layers = (
{
anchors = (
{
name = bottom;
position = "{399, 0}";
},
{
name = top;
position = "{716, 721}";
}
);
background = {
paths = (
{
closed = 1;
nodes = (
"406 280 LINE",
"401 215 OFFCURVE",
"337 115 OFFCURVE",
"241 115 CURVE SMOOTH",
"201 115 OFFCURVE",
"172 134 OFFCURVE",
"172 167 CURVE SMOOTH",
"172 238 OFFCURVE",
"276 280 OFFCURVE",
"276 296 CURVE SMOOTH",
"276 311 OFFCURVE",
"266 352 OFFCURVE",
"253 352 CURVE SMOOTH",
"235 352 OFFCURVE",
"52 276 OFFCURVE",
"53 157 CURVE SMOOTH",
"54 89 OFFCURVE",
"106 24 OFFCURVE",
"219 24 CURVE SMOOTH",
"308 24 OFFCURVE",
"386 65 OFFCURVE",
"424 101 CURVE"
);
},
{
closed = 1;
nodes = (
"642 122 OFFCURVE",
"779 209 OFFCURVE",
"779 352 CURVE SMOOTH",
"779 506 OFFCURVE",
"631 617 OFFCURVE",
"435 617 CURVE SMOOTH",
"249 617 OFFCURVE",
"75 529 OFFCURVE",
"75 399 CURVE SMOOTH",
"75 319 OFFCURVE",
"142 259 OFFCURVE",
"193 259 CURVE",
"253 352 LINE",
"220 352 OFFCURVE",
"194 373 OFFCURVE",
"194 408 CURVE SMOOTH",
"194 474 OFFCURVE",
"296 526 OFFCURVE",
"417 526 CURVE SMOOTH",
"563 526 OFFCURVE",
"660 428 OFFCURVE",
"660 320 CURVE SMOOTH",
"660 225 OFFCURVE",
"592 158 OFFCURVE",
"592 133 CURVE SMOOTH",
"592 125 OFFCURVE",
"599 122 OFFCURVE",
"606 122 CURVE SMOOTH"
);
},
{
closed = 1;
nodes = (
"527 393 OFFCURVE",
"527 404 OFFCURVE",
"514 404 CURVE SMOOTH",
"500 404 OFFCURVE",
"451 404 OFFCURVE",
"436 404 CURVE SMOOTH",
"423 404 OFFCURVE",
"419 398 OFFCURVE",
"418 387 CURVE SMOOTH",
"396 196 OFFCURVE",
"389 108 OFFCURVE",
"385 80 CURVE SMOOTH",
"380 43 OFFCURVE",
"372 0 OFFCURVE",
"399 0 CURVE SMOOTH",
"443 0 OFFCURVE",
"503 99 OFFCURVE",
"508 178 CURVE SMOOTH",
"513 256 OFFCURVE",
"521 340 OFFCURVE",
"526 385 CURVE SMOOTH"
);
}
);
};
layerId = "555B79C6-6D98-46E7-9307-77C37975E414";
paths = (
{
closed = 1;
nodes = (
"649 119 OFFCURVE",
"798 211 OFFCURVE",
"798 354 CURVE SMOOTH",
"798 510 OFFCURVE",
"652 631 OFFCURVE",
"435 631 CURVE SMOOTH",
"241 631 OFFCURVE",
"60 548 OFFCURVE",
"60 399 CURVE SMOOTH",
"60 292 OFFCURVE",
"156 242 OFFCURVE",
"197 242 CURVE",
"257 364 LINE",
"236 364 OFFCURVE",
"209 380 OFFCURVE",
"209 408 CURVE SMOOTH",
"209 463 OFFCURVE",
"302 506 OFFCURVE",
"417 506 CURVE SMOOTH",
"559 506 OFFCURVE",
"647 406 OFFCURVE",
"647 320 CURVE SMOOTH",
"647 213 OFFCURVE",
"589 164 OFFCURVE",
"589 132 CURVE SMOOTH",
"589 124 OFFCURVE",
"595 119 OFFCURVE",
"606 119 CURVE SMOOTH"
);
},
{
closed = 1;
nodes = (
"314 12 OFFCURVE",
"390 52 OFFCURVE",
"428 101 CURVE",
"409 307 LINE",
"403 241 OFFCURVE",
"339 127 OFFCURVE",
"241 127 CURVE SMOOTH",
"204 127 OFFCURVE",
"184 145 OFFCURVE",
"184 167 CURVE SMOOTH",
"184 232 OFFCURVE",
"288 277 OFFCURVE",
"288 296 CURVE SMOOTH",
"288 315 OFFCURVE",
"269 364 OFFCURVE",
"257 364 CURVE SMOOTH",
"240 364 OFFCURVE",
"40 290 OFFCURVE",
"40 157 CURVE SMOOTH",
"40 79 OFFCURVE",
"97 12 OFFCURVE",
"219 12 CURVE SMOOTH"
);
},
{
closed = 1;
nodes = (
"443 0 OFFCURVE",
"527 73 OFFCURVE",
"537 189 CURVE SMOOTH",
"544 267 OFFCURVE",
"549 340 OFFCURVE",
"554 385 CURVE SMOOTH",
"555 393 OFFCURVE",
"555 404 OFFCURVE",
"542 404 CURVE SMOOTH",
"528 404 OFFCURVE",
"451 404 OFFCURVE",
"436 404 CURVE SMOOTH",
"423 404 OFFCURVE",
"419 398 OFFCURVE",
"418 387 CURVE SMOOTH",
"396 196 OFFCURVE",
"389 106 OFFCURVE",
"385 78 CURVE SMOOTH",
"380 41 OFFCURVE",
"372 0 OFFCURVE",
"399 0 CURVE SMOOTH"
);
}
);
width = 818;
},
{
anchors = (
{
name = bottom;
position = "{396, 0}";
},
{
name = top;
position = "{739, 696}";
}
);
layerId = "08AC27E4-54F0-4C9D-B904-08FC42541096";
paths = (
{
closed = 1;
nodes = (
"639 122 OFFCURVE",
"776 209 OFFCURVE",
"776 352 CURVE SMOOTH",
"776 506 OFFCURVE",
"628 617 OFFCURVE",
"432 617 CURVE SMOOTH",
"246 617 OFFCURVE",
"72 529 OFFCURVE",
"72 399 CURVE SMOOTH",
"72 319 OFFCURVE",
"139 259 OFFCURVE",
"190 259 CURVE",
"250 352 LINE",
"217 352 OFFCURVE",
"191 373 OFFCURVE",
"191 408 CURVE SMOOTH",
"191 474 OFFCURVE",
"293 526 OFFCURVE",
"414 526 CURVE SMOOTH",
"560 526 OFFCURVE",
"657 428 OFFCURVE",
"657 320 CURVE SMOOTH",
"657 225 OFFCURVE",
"589 158 OFFCURVE",
"589 133 CURVE SMOOTH",
"589 125 OFFCURVE",
"596 122 OFFCURVE",
"603 122 CURVE SMOOTH"
);
},
{
closed = 1;
nodes = (
"305 24 OFFCURVE",
"383 65 OFFCURVE",
"421 101 CURVE",
"403 280 LINE",
"398 215 OFFCURVE",
"334 115 OFFCURVE",
"238 115 CURVE SMOOTH",
"198 115 OFFCURVE",
"169 134 OFFCURVE",
"169 167 CURVE SMOOTH",
"169 238 OFFCURVE",
"273 280 OFFCURVE",
"273 296 CURVE SMOOTH",
"273 311 OFFCURVE",
"263 352 OFFCURVE",
"250 352 CURVE SMOOTH",
"232 352 OFFCURVE",
"49 276 OFFCURVE",
"50 157 CURVE SMOOTH",
"51 89 OFFCURVE",
"103 24 OFFCURVE",
"216 24 CURVE SMOOTH"
);
},
{
closed = 1;
nodes = (
"440 0 OFFCURVE",
"500 99 OFFCURVE",
"506 178 CURVE SMOOTH",
"511 256 OFFCURVE",
"519 340 OFFCURVE",
"524 385 CURVE SMOOTH",
"525 393 OFFCURVE",
"525 404 OFFCURVE",
"512 404 CURVE SMOOTH",
"498 404 OFFCURVE",
"448 404 OFFCURVE",
"433 404 CURVE SMOOTH",
"420 404 OFFCURVE",
"416 398 OFFCURVE",
"415 387 CURVE SMOOTH",
"393 196 OFFCURVE",
"386 108 OFFCURVE",
"382 80 CURVE SMOOTH",
"377 43 OFFCURVE",
"369 0 OFFCURVE",
"396 0 CURVE SMOOTH"
);
}
);
width = 816.03279;
}
);
unicode = 0B26;
},
{
glyphname = "dha-oriya";
lastChange = "2022-01-27 13:05:43 +0000";
layers = (
{
anchors = (
{
name = bottom;
position = "{521, -2}";
},
{
name = top;
position = "{696, 721}";
}
);
background = {
paths = (
{
closed = 1;
nodes = (
"48 499 OFFCURVE",
"51 495 OFFCURVE",
"55 495 CURVE SMOOTH",
"63 495 OFFCURVE",
"80 515 OFFCURVE",
"89 515 CURVE SMOOTH",
"110 515 OFFCURVE",
"206 453 OFFCURVE",
"254 410 CURVE",
"152 369 OFFCURVE",
"81 306 OFFCURVE",
"81 212 CURVE SMOOTH",
"81 103 OFFCURVE",
"173 27 OFFCURVE",
"312 27 CURVE SMOOTH",
"396 27 OFFCURVE",
"466 55 OFFCURVE",
"504 88 CURVE",
"498 43 OFFCURVE",
"490 0 OFFCURVE",
"517 0 CURVE SMOOTH",
"561 0 OFFCURVE",
"620 112 OFFCURVE",
"628 191 CURVE SMOOTH",
"643 342 OFFCURVE",
"657 541 OFFCURVE",
"663 587 CURVE SMOOTH",
"664 595 OFFCURVE",
"664 606 OFFCURVE",
"651 606 CURVE SMOOTH",
"573 606 LINE SMOOTH",
"560 606 OFFCURVE",
"556 600 OFFCURVE",
"555 589 CURVE SMOOTH",
"544 467 OFFCURVE",
"533 367 OFFCURVE",
"525 291 CURVE SMOOTH",
"515 197 OFFCURVE",
"413 127 OFFCURVE",
"331 127 CURVE SMOOTH",
"254 127 OFFCURVE",
"200 178 OFFCURVE",
"200 230 CURVE SMOOTH",
"200 286 OFFCURVE",
"252 332 OFFCURVE",
"326 332 CURVE SMOOTH",
"376 332 OFFCURVE",
"403 305 OFFCURVE",
"419 305 CURVE SMOOTH",
"437 305 OFFCURVE",
"459 365 OFFCURVE",
"458 382 CURVE SMOOTH",
"457 396 OFFCURVE",
"424 398 OFFCURVE",
"407 407 CURVE SMOOTH",
"365 428 OFFCURVE",
"205 608 OFFCURVE",
"136 608 CURVE SMOOTH",
"104 608 OFFCURVE",
"48 549 OFFCURVE",
"48 507 CURVE SMOOTH"
);
}
);
};
layerId = "555B79C6-6D98-46E7-9307-77C37975E414";
paths = (
{
closed = 1;
nodes = (
"565 -2 OFFCURVE",
"645 73 OFFCURVE",
"655 189 CURVE SMOOTH",
"668 340 OFFCURVE",
"684 542 OFFCURVE",
"690 588 CURVE SMOOTH",
"691 596 OFFCURVE",
"691 607 OFFCURVE",
"678 607 CURVE SMOOTH",
"573 607 LINE SMOOTH",
"560 607 OFFCURVE",
"556 601 OFFCURVE",
"555 590 CURVE SMOOTH",
"544 468 OFFCURVE",
"535 387 OFFCURVE",
"530 341 CURVE SMOOTH",
"516 213 OFFCURVE",
"413 147 OFFCURVE",
"331 147 CURVE SMOOTH",
"262 147 OFFCURVE",
"218 189 OFFCURVE",
"218 230 CURVE SMOOTH",
"218 275 OFFCURVE",
"260 319 OFFCURVE",
"326 319 CURVE SMOOTH",
"369 319 OFFCURVE",
"403 290 OFFCURVE",
"419 290 CURVE SMOOTH",
"443 290 OFFCURVE",
"472 360 OFFCURVE",
"470 388 CURVE SMOOTH",
"469 406 OFFCURVE",
"427 408 OFFCURVE",
"407 419 CURVE SMOOTH",
"366 442 OFFCURVE",
"212 613 OFFCURVE",
"136 613 CURVE SMOOTH",
"96 613 OFFCURVE",
"40 543 OFFCURVE",
"40 495 CURVE SMOOTH",
"40 484 OFFCURVE",
"44 472 OFFCURVE",
"53 472 CURVE SMOOTH",
"64 472 OFFCURVE",
"79 492 OFFCURVE",
"88 492 CURVE SMOOTH",
"109 492 OFFCURVE",
"183 452 OFFCURVE",
"232 410 CURVE",
"140 375 OFFCURVE",
"68 306 OFFCURVE",
"68 212 CURVE SMOOTH",
"68 91 OFFCURVE",
"163 15 OFFCURVE",
"312 15 CURVE SMOOTH",
"401 15 OFFCURVE",
"468 49 OFFCURVE",
"503 81 CURVE",
"496 32 OFFCURVE",
"494 -2 OFFCURVE",
"521 -2 CURVE SMOOTH"
);
}
);
width = 710;
},
{
anchors = (
{
name = bottom;
position = "{519, 0}";
},
{
name = top;
position = "{669, 696}";
}
);
layerId = "08AC27E4-54F0-4C9D-B904-08FC42541096";
paths = (
{
closed = 1;
nodes = (
"563 0 OFFCURVE",
"622 111 OFFCURVE",
"630 191 CURVE SMOOTH",
"645 342 OFFCURVE",
"659 541 OFFCURVE",
"665 587 CURVE SMOOTH",
"666 595 OFFCURVE",
"666 606 OFFCURVE",
"653 606 CURVE SMOOTH",
"575 606 LINE SMOOTH",
"562 606 OFFCURVE",
"558 600 OFFCURVE",
"557 589 CURVE SMOOTH",
"546 467 OFFCURVE",
"535 367 OFFCURVE",
"527 292 CURVE SMOOTH",
"517 197 OFFCURVE",
"415 127 OFFCURVE",
"333 127 CURVE SMOOTH",
"256 127 OFFCURVE",
"202 178 OFFCURVE",
"202 230 CURVE SMOOTH",
"202 286 OFFCURVE",
"254 332 OFFCURVE",
"328 332 CURVE SMOOTH",
"378 332 OFFCURVE",
"405 305 OFFCURVE",
"421 305 CURVE SMOOTH",
"439 305 OFFCURVE",
"461 365 OFFCURVE",
"460 382 CURVE SMOOTH",
"459 396 OFFCURVE",
"426 398 OFFCURVE",
"409 407 CURVE SMOOTH",
"367 428 OFFCURVE",
"207 608 OFFCURVE",
"138 608 CURVE SMOOTH",
"106 608 OFFCURVE",
"50 549 OFFCURVE",
"50 507 CURVE SMOOTH",
"50 499 OFFCURVE",
"53 495 OFFCURVE",
"57 495 CURVE SMOOTH",
"65 495 OFFCURVE",
"82 515 OFFCURVE",
"91 515 CURVE SMOOTH",
"112 515 OFFCURVE",
"208 453 OFFCURVE",
"256 410 CURVE",
"154 369 OFFCURVE",
"83 306 OFFCURVE",
"83 212 CURVE SMOOTH",
"83 103 OFFCURVE",
"175 27 OFFCURVE",
"314 27 CURVE SMOOTH",
"398 27 OFFCURVE",
"468 55 OFFCURVE",
"506 88 CURVE",
"500 43 OFFCURVE",
"492 0 OFFCURVE",
"519 0 CURVE SMOOTH"
);
}
);
width = 705.08197;
}
);
unicode = 0B27;
},
{
glyphname = "na-oriya";
lastChange = "2022-01-27 13:05:50 +0000";
layers = (
{
anchors = (
{
name = bottom;
position = "{399, -3}";
},
{
name = top;
position = "{696, 721}";
}
);
background = {
paths = (
{
closed = 1;
nodes = (
"622 122 OFFCURVE",
"759 206 OFFCURVE",
"759 356 CURVE SMOOTH",
"759 506 OFFCURVE",
"606 617 OFFCURVE",
"415 617 CURVE SMOOTH",
"226 617 OFFCURVE",
"55 522 OFFCURVE",
"55 380 CURVE SMOOTH",
"55 295 OFFCURVE",
"141 230 OFFCURVE",
"182 230 CURVE",
"274 335 LINE",
"218 315 OFFCURVE",
"174 349 OFFCURVE",
"174 387 CURVE SMOOTH",
"174 457 OFFCURVE",
"273 526 OFFCURVE",
"397 526 CURVE SMOOTH",
"542 526 OFFCURVE",
"643 431 OFFCURVE",
"640 320 CURVE SMOOTH",
"637 210 OFFCURVE",
"572 158 OFFCURVE",
"572 133 CURVE SMOOTH",
"572 125 OFFCURVE",
"579 122 OFFCURVE",
"586 122 CURVE SMOOTH"
);
},
{
closed = 1;
nodes = (
"522 361 OFFCURVE",
"505 378 OFFCURVE",
"453 378 CURVE SMOOTH",
"334 378 OFFCURVE",
"79 271 OFFCURVE",
"79 162 CURVE SMOOTH",
"79 88 OFFCURVE",
"204 -5 OFFCURVE",
"236 -5 CURVE SMOOTH",
"269 -5 OFFCURVE",
"313 70 OFFCURVE",
"313 103 CURVE SMOOTH",
"313 113 OFFCURVE",
"310 117 OFFCURVE",
"306 117 CURVE SMOOTH",
"300 117 OFFCURVE",
"287 101 OFFCURVE",
"280 101 CURVE SMOOTH",
"259 101 OFFCURVE",
"186 141 OFFCURVE",
"186 158 CURVE SMOOTH",
"186 193 OFFCURVE",
"336 264 OFFCURVE",
"386 264 CURVE SMOOTH",
"407 264 OFFCURVE",
"404 254 OFFCURVE",
"401 227 CURVE SMOOTH",
"396 174 OFFCURVE",
"389 111 OFFCURVE",
"385 78 CURVE SMOOTH",
"381 41 OFFCURVE",
"372 -3 OFFCURVE",
"399 -3 CURVE SMOOTH",
"443 -3 OFFCURVE",
"502 80 OFFCURVE",
"507 159 CURVE SMOOTH",
"514 265 OFFCURVE",
"515 271 OFFCURVE",
"518 309 CURVE SMOOTH"
);
}
);
};
layerId = "555B79C6-6D98-46E7-9307-77C37975E414";
paths = (
{
closed = 1;
nodes = (
"629 119 OFFCURVE",
"778 211 OFFCURVE",
"778 354 CURVE SMOOTH",
"778 510 OFFCURVE",
"632 631 OFFCURVE",
"415 631 CURVE SMOOTH",
"221 631 OFFCURVE",
"40 529 OFFCURVE",
"40 380 CURVE SMOOTH",
"40 280 OFFCURVE",
"141 221 OFFCURVE",
"182 221 CURVE",
"281 347 LINE",
"238 332 OFFCURVE",
"189 355 OFFCURVE",
"189 387 CURVE SMOOTH",
"189 442 OFFCURVE",
"282 506 OFFCURVE",
"397 506 CURVE SMOOTH",
"539 506 OFFCURVE",
"627 406 OFFCURVE",
"627 320 CURVE SMOOTH",
"627 213 OFFCURVE",
"569 164 OFFCURVE",
"569 132 CURVE SMOOTH",
"569 124 OFFCURVE",
"575 119 OFFCURVE",
"586 119 CURVE SMOOTH"
);
},
{
closed = 1;
nodes = (
"281 -5 OFFCURVE",
"318 78 OFFCURVE",
"318 111 CURVE SMOOTH",
"318 124 OFFCURVE",
"313 130 OFFCURVE",
"309 130 CURVE SMOOTH",
"303 130 OFFCURVE",
"290 114 OFFCURVE",
"283 114 CURVE SMOOTH",
"262 114 OFFCURVE",
"202 141 OFFCURVE",
"202 158 CURVE SMOOTH",
"202 188 OFFCURVE",
"348 250 OFFCURVE",
"386 250 CURVE SMOOTH",
"400 250 OFFCURVE",
"403 244 OFFCURVE",
"401 223 CURVE SMOOTH",
"396 170 OFFCURVE",
"389 111 OFFCURVE",
"385 78 CURVE SMOOTH",
"381 41 OFFCURVE",
"372 -3 OFFCURVE",
"399 -3 CURVE SMOOTH",
"443 -3 OFFCURVE",
"517 80 OFFCURVE",
"522 159 CURVE SMOOTH",
"527 234 OFFCURVE",
"530 271 OFFCURVE",
"533 309 CURVE SMOOTH",
"537 361 OFFCURVE",
"514 388 OFFCURVE",
"462 388 CURVE SMOOTH",
"335 388 OFFCURVE",
"69 279 OFFCURVE",
"69 162 CURVE SMOOTH",
"69 88 OFFCURVE",
"190 -5 OFFCURVE",
"236 -5 CURVE SMOOTH"
);
}
);
width = 798;
},
{
anchors = (
{
name = bottom;
position = "{394, -3}";
},
{
name = top;
position = "{699, 696}";
}
);
layerId = "08AC27E4-54F0-4C9D-B904-08FC42541096";
paths = (
{
closed = 1;
nodes = (
"617 122 OFFCURVE",
"754 206 OFFCURVE",
"754 356 CURVE SMOOTH",
"754 506 OFFCURVE",
"602 617 OFFCURVE",
"410 617 CURVE SMOOTH",
"221 617 OFFCURVE",
"50 522 OFFCURVE",
"50 380 CURVE SMOOTH",
"50 295 OFFCURVE",
"136 230 OFFCURVE",
"177 230 CURVE",
"269 335 LINE",
"213 315 OFFCURVE",
"169 349 OFFCURVE",
"169 387 CURVE SMOOTH",
"169 457 OFFCURVE",
"268 526 OFFCURVE",
"392 526 CURVE SMOOTH",
"537 526 OFFCURVE",
"638 431 OFFCURVE",
"635 320 CURVE SMOOTH",
"632 210 OFFCURVE",
"567 158 OFFCURVE",
"567 133 CURVE SMOOTH",
"567 125 OFFCURVE",
"574 122 OFFCURVE",
"581 122 CURVE SMOOTH"
);
},
{
closed = 1;
nodes = (
"264 -5 OFFCURVE",
"308 70 OFFCURVE",
"308 103 CURVE SMOOTH",
"308 113 OFFCURVE",
"305 117 OFFCURVE",
"301 117 CURVE SMOOTH",
"295 117 OFFCURVE",
"282 101 OFFCURVE",
"275 101 CURVE SMOOTH",
"254 101 OFFCURVE",
"181 141 OFFCURVE",
"181 158 CURVE SMOOTH",
"181 193 OFFCURVE",
"331 264 OFFCURVE",
"381 264 CURVE SMOOTH",
"402 264 OFFCURVE",
"399 254 OFFCURVE",
"396 227 CURVE SMOOTH",
"391 174 OFFCURVE",
"384 111 OFFCURVE",
"380 78 CURVE SMOOTH",
"376 41 OFFCURVE",
"367 -3 OFFCURVE",
"394 -3 CURVE SMOOTH",
"438 -3 OFFCURVE",
"497 80 OFFCURVE",
"502 159 CURVE SMOOTH",
"509 264 OFFCURVE",
"510 271 OFFCURVE",
"513 309 CURVE SMOOTH",
"517 361 OFFCURVE",
"500 378 OFFCURVE",
"448 378 CURVE SMOOTH",
"329 378 OFFCURVE",
"74 271 OFFCURVE",
"74 162 CURVE SMOOTH",
"74 88 OFFCURVE",
"199 -5 OFFCURVE",
"231 -5 CURVE SMOOTH"
);
}
);
width = 794.06557;
}
);
unicode = 0B28;
},
